<svg viewBox="277.5 -157.5 517.5 1672.4999999999998" xmlns="http://www.w3.org/2000/svg" xmlns:xlink="http://www.w3.org/1999/xlink" xmlns:blush="http://design.blush" overflow="visible" width="309.4170403587445px" height="1000.0000000000001px"><g id="Master/Character/Standing" stroke="none" stroke-width="1" fill="none" fill-rule="evenodd" blush:has-customizable-skin="true"><g id="Lower Body/Standing" transform="translate(-64.000000, 629.000000) scale(1 1)" blush:width="1110" blush:height="871" blush:component="Lower Body/Standing"><g id="Lower Body/Standing/Jump 4" stroke="none" stroke-width="1" fill="none" fill-rule="evenodd"><g id="leg-2" transform="translate(435.000000, 640.000000)"><path d="M69.7065805,2.62900812e-13 C69.7065805,2.62900812e-13 59.8429805,49.9337 56.8989805,63.4707 C50.7537005,82.0674541 53.4873294,106.935257 64.0823294,109.877257 C74.6763294,112.821257 92.0109805,104.9717 92.0109805,104.9717 L127.295581,18.458 L69.7065805,2.62900812e-13 Z" id="Fill-1" fill="#757EFF" blush:skin="500"/><g id="Shoe-2" transform="translate(0.000000, 63.030484)"><path d="M56.8989805,0.440216332 C56.8989805,0.440216332 27.6399805,-3.14978367 15.3919805,10.1742163 C6.73498053,19.5922163 8.65798053,44.6782163 11.9969805,51.9122163 C15.3349805,59.1442163 18.0229805,65.6842163 14.6849805,76.8122163 C11.3459805,87.9402163 -2.06601947,108.405216 2.94198053,135.669216 C7.94898053,162.932216 21.9799805,181.783216 30.8819805,184.008216 C43.1239805,178.444216 92.0109805,41.9412163 92.0109805,41.9412163 C92.0109805,41.9412163 65.8369805,42.8102163 58.8149805,24.2092163 C53.9419805,11.2952163 56.8989805,0.440216332 56.8989805,0.440216332" id="Fill-3" fill="#090E2B"/><path d="M73.7876805,83.9235163 C68.2826805,84.2755163 60.9096805,77.8875163 58.4436805,74.0365163 C57.0876805,71.9175163 56.9446805,69.8545163 59.2776805,71.5825163 C59.4036805,71.6765163 69.3396805,84.0265163 77.5346805,79.5175163 C78.1916805,79.1565163 79.0166805,79.3955163 79.3786805,80.0525163 C80.2066805,82.7955163 75.4136805,83.7955163 73.7876805,83.9235163" id="Fill-13" fill="#FFB201"/><path d="M67.0561805,98.4089163 C61.6181805,98.0449163 55.2521805,93.7849163 51.9871805,90.2579163 C50.0271805,88.1409163 50.4751805,85.0329163 52.8191805,87.2969163 C52.9211805,87.3959163 62.5981805,97.4629163 70.4891805,95.8379163 C71.2261805,95.6849163 71.9421805,96.1579163 72.0931805,96.8909163 C72.3801805,98.7699163 68.7541805,98.5229163 67.0561805,98.4089163" id="Fill-15" fill="#FFB201"/><path d="M18.1880805,167.131616 C13.6080805,160.187616 8.55308053,145.445616 7.46908053,128.735616 C6.57708053,114.981616 19.7640805,82.3026163 21.5840805,67.7816163 C22.7650805,58.3596163 21.1930805,50.9576163 20.8010805,36.8716163 C20.4890805,25.6316163 21.6710805,10.6636163 22.1620805,5.07061633 C18.4590805,6.63761633 12.5900805,8.11761633 10.2480805,10.9706163 C4.09208053,18.4626163 7.54408053,44.8136163 9.29508053,52.5846163 C11.6130805,62.8676163 11.8600805,70.3616163 11.2320805,77.2026163 C10.1700805,88.7726163 -3.42991947,112.521616 0.820080531,139.912616 C5.45208053,169.769616 21.9800805,181.782616 30.8820805,184.008616 C32.1890805,184.113616 34.2180805,182.861616 34.2460805,180.621616 C28.8050805,177.793616 22.1820805,173.186616 18.1880805,167.131616" id="Fill-39" fill="#FFB201"/></g></g><g id="leg-1" transform="translate(342.000000, 275.000000)"><path d="M172.272894,0.64634203 C160.189894,-5.70565797 80.3318936,36.853342 80.3318936,36.853342 C80.3318936,36.853342 72.5438936,46.534342 76.3778936,58.676342 C80.2118936,70.819342 95.0828936,78.535342 95.0828936,78.535342 L181.000894,58.343342 C181.000894,58.343342 184.355894,6.99834203 172.272894,0.64634203" id="Leg-1" fill="#757EFF" blush:skin="500"/><g id="Shoe-1" transform="translate(0.000000, 24.507092)"><path d="M57.8607936,0.462549602 C53.5027936,0.867549602 51.1607936,-1.4094504 45.9557936,10.8925496 C40.7507936,23.1945496 35.0807936,45.8735496 33.4537936,49.5745496 C26.6837936,64.9745496 11.0717936,82.6075496 7.75279358,97.7475496 C-5.53720642,158.36255 21.1297936,167.73455 24.5607936,165.72155 C35.3137936,159.40855 43.3687936,139.72855 52.0477936,130.41855 C68.7767936,112.47255 110.795794,56.4065496 111.741794,50.2555496 C97.3777936,46.1285496 90.4647936,35.9525496 90.4647936,26.4895496 C90.4647936,17.0255496 91.8867936,5.4485496 91.8867936,5.4485496 C91.8867936,5.4485496 70.2267936,-0.686450398 57.8607936,0.462549602" id="Fill-7" fill="#090E2B"/><path d="M81.6302936,94.8199763 C80.8342936,94.8249496 80.1972936,94.1269496 80.2762936,93.3349496 C80.7042936,81.7999496 64.0422936,81.7889496 64.5952936,78.4769496 C65.1982936,75.3559496 84.3132936,79.1949496 83.1562936,92.9559496 C83.0982936,93.6599496 82.3212936,94.8199763 81.6302936,94.8199763" id="Fill-9" fill="#FFB201"/><path d="M92.7328936,79.7340432 C92.1018936,79.7340432 91.5378936,79.2929496 91.4048936,78.6519496 C89.0558936,68.6639496 75.1488936,67.3439496 75.7438936,64.0829496 C76.6348936,61.1759496 93.5638936,67.2259496 94.0628936,78.0999496 C94.1018936,78.9509496 93.5808936,79.7439496 92.7328936,79.7340432" id="Fill-11" fill="#FFB201"/><path d="M47.9749936,37.1256496 C50.3439936,24.7476496 56.3699936,3.5156496 57.8609936,0.462649602 C53.5019936,0.867649602 47.3599936,-3.5853504 42.1549936,8.7176496 C36.9509936,21.0196496 35.0799936,45.8736496 33.4539936,49.5746496 C26.6839936,64.9746496 8.30899358,85.1176496 4.03799358,100.01765 C0.0159935799,114.05065 -3.06100642,140.92265 5.29399358,157.55765 C10.9049936,168.72865 21.1299936,167.73465 24.5609936,165.72165 C25.8979936,164.93665 27.7429936,163.55965 29.0029936,162.40565 C27.9009936,162.93765 27.0129936,163.32765 25.5809936,163.73665 C17.7889936,165.96365 10.0789936,155.31865 7.85199358,136.02465 C5.62599358,116.73165 9.13999358,97.5286496 20.4579936,81.0826496 C26.9539936,71.6426496 45.6469936,49.2886496 47.9749936,37.1256496" id="Fill-36" fill="#FFB201"/></g></g><g id="pant" transform="translate(463.000000, -1.000000)"><path d="M49.9597,-5.68434189e-14 L125.5647,226.873 C125.5647,226.873 91.4667,447.709 91.4667,467.432 C84.8927,483.868 41.7407,591.756 36.8107,642.708 C63.1077,657.5 95.9807,673.937 95.9807,673.937 C95.9807,673.937 153.5077,568.745 196.2407,453.691 C238.9757,338.639 243.8197,330.28 249.1347,283.398 C268.8037,109.898 246.8947,98.213 221.5377,-5.68434189e-14 L49.9597,-5.68434189e-14 Z" id="pang-2" fill="#FFB201"/><path d="M211.016811,29.4397032 C211.429324,29.4079849 211.794127,29.711998 211.831621,30.1245111 C219.478458,114.255877 202.534259,186.513315 148.752398,297.323586 C142.611823,312.570537 137.052735,329.774862 132.033924,348.619037 C125.112142,374.608311 119.556702,402.288541 115.014442,430.980071 L114.769972,432.537513 L114.391722,434.993387 L113.871202,438.447953 L113.339679,442.047692 L112.233769,449.717181 L110.313941,463.452804 L109.07746,472.516631 C107.87474,478.201746 106.266575,483.965096 104.225707,490.011243 L103.828156,491.177513 L103.215387,492.932294 L102.794911,494.108459 L102.364063,495.291857 L101.922154,496.484361 L101.23705,498.294282 L100.523195,500.135217 L100.030173,501.382857 L99.2632459,503.28952 L98.4613824,505.244043 L97.9062524,506.576766 L97.0410078,508.625092 L96.1346418,510.738123 L94.8581784,513.667067 L93.8468425,515.955641 L92.4220004,519.141571 L90.8433277,522.627127 L84.1838416,537.188945 L81.8957328,542.232473 L80.491969,545.358831 L78.8405171,549.079365 L77.5786657,551.96 L76.9609405,553.383655 L76.3488304,554.803605 C63.0597033,585.732824 54.1164916,613.917064 48.1874835,647.813624 C48.116115,648.221643 47.7274947,648.494552 47.3194759,648.423184 C46.911457,648.351815 46.6385479,647.963195 46.7099165,647.555176 C52.561555,614.100943 61.34004,586.185618 74.3076705,555.760689 L75.2768076,553.500093 L76.2194162,551.324338 L76.8798863,549.812362 L78.2387003,546.731498 L79.3019366,544.345514 L81.1859474,540.16052 L82.3988698,537.48884 L90.3086679,520.178056 L91.7741441,516.921087 L92.814206,514.584147 L93.8062259,512.330898 L94.4420238,510.872121 L95.3591097,508.744385 L95.9470917,507.363464 L96.5171457,506.010425 L97.3401101,504.029072 L97.8683405,502.737591 L98.3810399,501.467473 L99.1224664,499.598279 L99.5993343,498.373421 L100.063068,497.163407 L100.514353,495.966375 L101.169435,494.191093 L101.592592,493.018367 L102.005697,491.852103 L102.409435,490.690439 L102.804489,489.531513 C104.682881,483.966709 106.190208,478.648097 107.348757,473.412914 L107.612452,472.187554 L109.288942,459.909437 L110.749983,449.494624 L111.667935,443.113493 L112.216902,439.374319 L112.75741,435.763642 L113.151901,433.183125 L113.532894,430.745522 C118.082615,402.006861 123.647781,374.27817 130.584451,348.232995 C135.618075,329.3332 141.195613,312.071778 147.381968,296.71593 C201.074445,186.085745 217.95722,114.090244 210.337779,30.2602889 C210.300285,29.8477757 210.604298,29.4829729 211.016811,29.4397032 Z" id="Stroke-19" fill="#0023FF" fill-rule="nonzero"/><path d="M50.283,5.68434189e-13 C50.283,5.68434189e-13 8.52651283e-14,49.862 8.52651283e-14,118.173 C8.52651283e-14,184.304 44.138,224.539 106.653,239.005 C72.064,255.882 53.535,266.376 32.631,276.441 C36.502,286.507 44.511,340.79 50.231,343.824 C55.952,346.857 187.088,331.624 232.591,317.254 C296.756,296.991 355.72,265.649 355.666037,201.151 C355.605,129.469 214.998,92.343 178.618,84.064 C165.178,75.104 155.228,5.68434189e-13 155.228,5.68434189e-13 L50.283,5.68434189e-13 Z" id="pant-1" fill="#FFB201"/><path d="M154.9509,80.5361 C179.2369,83.5761 203.3279,88.6351 226.5629,96.3911 C233.0299,98.9091 243.8689,100.7881 249.8109,104.5831 C250.7579,105.1861 252.0579,106.4111 249.6979,105.5891 C229.4249,98.5191 205.5889,92.5851 184.6009,88.0071 C174.7349,85.8441 164.6389,83.8981 154.7319,81.9461 C153.8639,81.8021 154.0499,80.4061 154.9509,80.5361" id="Fill-24" fill="#000"/><path d="M107.0974,238.3438 C136.4004,217.1588 180.6114,186.8568 217.1724,185.2278 C217.8354,185.2658 217.8174,186.3288 217.1144,186.2868 C197.3774,187.3458 176.7014,197.2948 159.6704,206.9458 C150.7974,212.1858 142.1054,217.7558 133.3494,223.2228 C124.6234,228.7398 115.8444,233.9908 106.7994,239.0388 C106.4794,239.2348 106.7614,238.5838 107.0974,238.3438" id="Fill-26" fill="#090E2B"/><path d="M108.8689,339.1992 C146.7369,332.4082 189.5779,325.6052 227.1199,317.4832 C232.5399,316.3272 239.1659,314.8452 244.3659,312.9912 C244.6549,312.8612 245.1769,313.3162 243.8129,314.0092 C243.0179,314.4122 239.5329,315.6862 238.8119,315.9742 C218.8469,322.1942 198.1049,325.7712 177.5619,329.4462 C161.4129,332.2732 143.4889,334.8752 127.1619,337.1022 C121.5409,337.8052 114.9289,338.9572 109.2949,339.5712 C108.8679,339.6302 108.3929,339.2692 108.8689,339.1992" id="Fill-28" fill="#090E2B"/><path d="M193.156,33.7119 C193.802,47.1629 193.246,62.1809 200.4,74.0399 C203.172,77.5789 207.927,78.8559 212.067,80.0239 C212.554,80.0659 212.509,80.8479 212.011,80.8179 C194.388,80.9779 192.963,61.1319 192.094,47.7709 C192.163,46.4119 191.023,30.4829 193.156,33.7119" id="Fill-30" fill="#0023FF"/><path d="M67.2205,21.0088 C67.2985,20.8618 67.2765,20.7288 67.2085,20.6198 C72.3155,21.4048 77.3565,22.5958 82.3775,23.9278 C92.4055,26.2538 102.5685,27.9908 112.7825,29.3578 C111.8835,30.6038 110.6675,33.7918 110.2815,34.4118 C107.8905,39.6418 105.2965,45.4288 102.5595,50.4438 C89.3425,74.9698 72.8945,85.5958 45.7185,77.8218 C50.1555,62.2268 57.3365,43.5268 67.2205,21.0088 M239.5335,185.9398 C230.9725,161.6608 185.7965,162.1778 164.2605,160.4838 C62.8785,155.1268 25.6705,148.9458 45.5745,78.3278 C46.6655,78.7348 48.5425,79.5628 49.4175,79.8198 C85.9785,91.8408 102.3785,57.6088 113.7425,29.4918 C113.7425,29.4888 113.7415,29.4878 113.7415,29.4858 C121.4005,30.4908 129.0845,31.2968 136.7665,31.9548 C163.4465,34.1348 203.9595,39.1698 226.6795,23.0668 C227.4905,22.4508 226.3935,21.2698 225.7165,21.9178 C203.2235,37.9268 163.3145,33.0388 136.8415,30.9808 C118.6345,29.4928 100.3705,27.2478 82.5525,23.1878 C66.8595,18.3558 50.3635,17.4048 34.1405,19.2568 C32.8635,20.3318 38.3665,19.8748 40.2195,19.8258 C46.1245,19.5298 52.5625,19.3158 58.4425,19.7318 C61.1575,19.8488 63.8445,20.1328 66.5165,20.5238 C66.4895,20.5528 66.4605,20.5798 66.4415,20.6208 C63.8495,25.8218 61.4375,31.0938 59.1145,36.4108 C50.0335,57.7248 41.8935,79.8598 39.2625,103.0238 C33.6475,141.0808 63.4525,151.3998 94.8245,156.3968 C117.7855,159.9928 141.0045,160.9788 164.1575,162.3168 C180.7955,163.3178 199.6235,163.6438 215.4865,168.9448 C224.8725,172.2768 239.4585,178.1238 237.8925,190.2208 C234.0505,201.6398 219.7385,203.2718 209.4475,205.1948 C192.5195,209.5038 176.5595,216.7088 160.5425,223.4948 C118.2585,242.1818 76.4425,262.5768 35.4205,283.9088 C35.4415,283.9198 35.4425,283.9218 35.4515,283.9278 C35.4565,283.9338 35.4585,283.9378 35.4635,283.9438 C35.3895,283.9388 34.7985,283.7678 35.7225,284.7518 C35.7735,284.7368 35.8095,284.7088 35.8465,284.6838 C35.7865,284.6548 35.7405,284.5998 35.8735,284.6528 C35.8835,284.6478 35.8935,284.6428 35.9035,284.6368 C35.9085,284.6308 35.9115,284.6238 35.9165,284.6178 C35.9175,284.6208 35.9195,284.6258 35.9205,284.6288 C76.9475,263.4728 118.7995,243.2188 161.0685,224.7048 C177.0145,218.0088 192.9815,210.8668 209.7735,206.6458 C221.3545,204.7848 240.9495,201.3678 239.5335,185.9398" id="Fill-32" fill="#0023FF"/></g></g></g><g id="Upper Body/Standing" transform="translate(69.000000, -172.000000) scale(1 1)" blush:width="906" blush:height="1041" blush:component="Upper Body/Standing"><g id="Upper Body/Standing/Hands Up 1" stroke="none" stroke-width="1" fill="none" fill-rule="evenodd"><path d="M618.80649,189.842661 C618.80649,189.842661 651.924998,118.822147 655.08097,111.742496 C667.567632,83.7317223 658.329949,85.8038774 661.60891,69.8882704 C665.301614,51.9733458 659.673114,42.8264885 661.60891,41.6944412 C672.610069,35.2648517 674.988589,60.7833778 676.437688,56.071343 C681.296667,40.2826292 690.094195,35.1489492 695.278971,29.367814 C702.159692,21.6962696 713.969348,34.81523 717.00446,38.3552511 C723.906168,46.4044777 720.490292,62.3627117 717.00446,75.5216384 C709.531108,103.7309 695.826209,99.6120707 684.204436,122.552766 C679.9291,130.99167 670.017059,181.425678 655.08097,231.763492 C629.412354,318.272216 593.897039,420.031571 582.694898,420.031571 C570.243741,420.031571 532.809412,422.210537 529.566876,420.031571 C524.43225,416.581131 554.178789,339.851495 618.80649,189.842661 Z" id="hand-2" fill="#757EFF" blush:skin="500"/><path d="M499.588011,502.133487 C495.343107,493.907325 477.913227,476.395032 484.450913,464.212308 C490.988599,452.030576 512.58439,460.589588 515.792507,466.037042 C534.005408,496.959445 507.077567,516.648145 499.588011,502.133487" id="t-4" fill="#FF0057"/><path d="M293.858856,248.851213 C293.858856,248.851213 285.957527,123.190291 280.435777,105.730071 C274.913026,88.2708496 272.961463,90.3836502 257.712583,77.6677724 C240.061202,62.9460181 240.84177,54.9800579 243.576291,53.9429763 C251.386441,57.1211392 224.26696,27.2688853 244.954573,22.2321847 C272.243288,15.5883495 275.21434,37.7951213 288.625305,41.6529605 C290.931707,42.3155893 284.891417,31.6105852 290.0608,26.3375387 C295.490454,20.7986411 295.826805,29.650683 298.052122,33.2006946 C304.731077,43.8487306 309.652202,62.7531422 309.652202,74.4695797 C309.652202,90.0928291 348.453607,215.336679 348.453607,215.336679 C375.583733,343.1908 387.183934,409.405409 383.254211,413.980509 C367.549054,432.264918 340.96651,437.514299 333.75982,440.965904 C330.149513,442.69504 316.849191,378.65681 293.858856,248.851213 Z" id="hand-1" fill="#757EFF" blush:skin="500"/><path d="M446.712995,420 C446.712995,420 445.881817,449.599337 440.193919,465.472803 C437.002024,474.380564 421.321889,468.288429 429.178278,486.198077 C443.5211,518.894385 502.541109,560.913797 513.692563,550.334893 C524.841653,539.759062 542.629214,534.779291 529.172344,502.008121 C527.434745,497.778389 497.862778,482.511381 496.490937,477.918414 C487.920186,449.238888 498.61233,420 498.61233,420 L446.712995,420 Z" id="neck" fill="#757EFF" blush:skin="500"/><g id="tshirt" transform="translate(284.000000, 173.000000)" fill="#FF0057"><path d="M280.213721,105.528538 C295.457321,67.6228011 328.287344,25.9722546 325.304393,14.5177703 C322.321443,3.06328592 327.306872,-0.0397483352 331.532193,1 C339.916957,3.06328592 370.7207,17.0958236 381.0077,22.2388236 C391.2947,27.3828236 386.1517,33.3838236 386.1517,33.3838236 C386.1517,33.3838236 355.205809,120.226593 346.479399,147.882824 C325.304393,214.991844 307.488611,264.097331 295.155027,292.312036 C280.836988,325.066443 280.213721,364.017529 280.213721,364.017529 C280.213721,364.017529 234.592728,362.268392 237.299269,336 C240.435735,305.558968 209.246583,301.068667 209.246583,284.293633 C209.246583,265.700454 264.970121,143.434275 280.213721,105.528538 Z" id="t-3"/><path d="M218.057498,356.726098 C236.35046,354.646966 229.144391,316.111887 229.144391,316.111887 C229.144391,316.111887 253.732874,330.203285 269.710874,333.757285 C269.710874,356.444285 305.313652,384.127106 302.376,431.569461 C299.438348,479.011817 280.423,582.156644 297.139,608.424644 C313.856,634.694644 309.541,641.146424 302.376,650.698424 C295.212,660.251424 247.262,676.009424 204.758,669.490424 C183.514,666.232424 124.296,646.528424 101.609,651.303424 C90.823,653.575424 75.522,666.252424 75.522,654.978424 C75.522,633.485424 100.559,623.973424 106.367,484.705424 C108.708,428.583424 77.211,381.492424 76.017,365.969424 C74.823,350.447424 78.405,347.461424 96.315,327.163424 C114.227,306.864424 122.897,246.884424 133.699,267.138424 C144.501,287.391424 161.449,289.995424 167.958,328.357424 C167.958,328.357424 209.509083,357.69769 218.057498,356.726098 Z" id="t-2"/><path d="M0,52.6924236 C0,52.6924236 25.846,27.8874236 51.775,23.9984236 C77.706,20.1084236 69.85,28.7884236 69.85,28.7884236 C69.85,28.7884236 95.402,202.823424 116.146,236.533424 C136.891,270.242424 143.151,283.340424 143.151,283.340424 L79.775,377.169424 C79.775,377.169424 33.77,300.302424 31.176,249.738424 C28.583,199.173424 25.315,181.545424 20.129,163.393424 C14.943,145.243424 2.593,78.6234236 0,52.6924236" id="t-1"/></g></g></g><g id="Head" transform="translate(399.000000, 26.000000) scale(1 1)" blush:width="300" blush:height="300" blush:component="Head"><g id="Head/Hair Bun Dark" stroke="none" stroke-width="1" fill="none" fill-rule="evenodd"><path d="M199.344059,265.553095 C216.516924,263.335386 241.691505,222.379074 236.024106,172.148465 C230.356708,121.917856 241.691505,121.917856 230.01893,81.5710225 C220.329736,48.0798441 161.708955,79.0941821 138.1545,89.6041 C110.246649,102.056489 86.0355,150.8011 87.6185,184.7161 C87.6185,224.594598 145.237382,272.54045 199.344059,265.553095 Z" id="Fill-1" fill="#757EFF" blush:skin="500"/><path d="M193.5844,33.9056 C150.2074,14.2296 105.6884,35.1006 105.6884,35.1006 C118.5984,-30.0504 38.0714,-33.9034 17.3444,29.3026 C3.2354,65.4986 37.2294,97.3536 54.9914,81.5726 C39.5924,101.0976 42.2994,153.2116 59.4064,183.8516 C66.4564,196.4786 78.6364,205.7256 88.9734,207.6486 C107.8404,211.1596 88.8364,193.3466 86.9744,187.8896 C87.7264,172.1066 106.4474,144.4096 109.9404,178.8516 C111.3964,187.5766 106.8344,222.2976 107.4114,230.4736 C107.8204,236.2766 108.1734,239.4086 111.7514,246.0656 C115.1854,252.4546 113.0344,265.5186 113.4164,266.9406 C113.9394,263.3896 115.1464,256.9646 113.9464,249.5446 C113.4484,246.4556 112.2384,243.3206 110.8584,239.9496 C107.9674,232.8816 114.1684,216.7296 117.1604,179.2596 C119.2104,153.5926 106.2734,140.1506 121.6944,130.4506 C153.1814,110.6466 206.1304,133.4336 236.4844,108.1216 C250.1884,96.6956 237.1654,53.6756 193.5844,33.9056" id="Fill-3" fill="#090E2B"/><path d="M108.016,170.0277 C110.682,180.5817 111.718862,189.325045 102.418862,193.792045 C93.1178621,198.259045 76.839,190.9327 72.126,181.1207 C67.413,171.3077 69.907,156.1527 79.058,151.3867 C93.319,143.9607 104.57649,156.411576 108.016,170.0277 Z" id="Fill-6" fill="#757EFF" blush:skin="500"/><path d="M107.0241,22.7615 C108.7201,24.7845 106.6701,28.7715 105.5911,26.3665 C100.2951,21.6835 83.5781,30.9485 79.3101,35.2825 C64.5022581,48.7512605 56.5310332,63.01493 54.9982454,81.52041 C55.0086551,81.4325177 55.1506358,81.1065033 55.2124,80.9273 C62.9104,58.6643 80.6224,35.9053 105.5624,33.7633 C106.4504,33.6903 106.6934,35.0523 105.8134,35.2673 C81.4394,41.4393 66.3594,61.2143 55.2544,81.0903 C55.1694,81.2413 55.0364,81.5563 55.0014,81.5446334 L54.9974988,81.5294302 C54.9966974,81.539119 54.9958978,81.5488089 54.9951,81.5585 C54.9901,81.6215 54.9741,81.4295 54.9711,81.3665 C53.7271,59.3915 68.2001,37.4115 86.1501,26.2935 C91.8931,22.7355 101.9861,16.7525 107.0241,22.7615 Z" id="Combined-Shape" fill="#FFB201"/><path d="M100.3978,178.1312 C99.8758,174.3442 99.0018,170.9522 96.5408,168.0812 C92.8728,163.9912 87.4958,161.4252 82.0198,161.7142 C81.6068,161.7352 80.6908,162.3182 80.6278,162.7422 C80.5488,163.2702 81.4808,163.7792 82.0058,163.8082 C87.8878,164.5712 93.6318,167.8562 96.4468,173.1822 C93.1198,171.9562 85.4758,175.8292 86.0728,178.4382 C86.4988,180.3022 92.8178,174.3252 97.8648,176.1792 C98.4678,177.6342 99.0788,179.9952 99.5408,182.3572 C99.6238,182.7792 99.8948,183.2822 100.2708,183.0372 C100.8858,182.6372 100.5948,179.5582 100.3978,178.1312" id="Fill-12" fill="#090E2B"/><path d="M132.3031,247.9544 C137.5441,250.6564 146.3971,255.2584 154.0611,258.6254 C156.5331,259.7114 159.0641,260.7364 161.6331,261.6154 C161.8811,261.6984 161.5831,262.6034 159.8031,262.1904 C154.5061,260.9634 149.3321,258.8404 143.9951,256.1334 C139.5371,253.8724 133.7531,250.3594 131.3071,248.4984 C129.3351,246.9994 129.8901,246.7114 132.3031,247.9544" id="Fill-14" fill="#000"/></g></g><g id="Expressions" transform="translate(520.000000, 159.000000) scale(1 1)" blush:width="120" blush:height="120" blush:component="Expressions"><g id="Expressions/Smile" stroke="none" stroke-width="1" fill="none" fill-rule="evenodd"><g id="eye1" transform="translate(21.027098, 10.213671)"><path d="M0.0487023333,7.96572872 C1.82485498,-0.0171869856 25.1977023,-2.81531309 35.4827023,3.36568691 C39.0387023,5.47868691 45.6427023,11.2837287 39.7957023,14.4437287 C38.2517023,15.1157287 36.7517023,14.4267287 35.4827023,13.6077287 C21.4647023,3.86572872 -1.18942441,13.5304877 0.0487023333,7.96572872 Z" id="Fill-1" fill="#090E2B"/><path d="M19.0113023,22.3973287 C13.7233023,23.8973287 9.19030233,28.1473287 8.76930233,31.6693287 C8.51430233,33.7973287 16.8643023,38.9063287 24.9173023,39.3033287 C35.5113023,39.8243287 40.8513023,34.0853287 40.8324531,32.2513287 C40.1193023,26.7013287 33.7283023,18.2233287 19.0113023,22.3973287 Z" id="Fill-6" fill="#FFF"/><path d="M35.3981023,25.5550287 C27.2551023,19.4010287 14.6431023,23.4110287 8.76910233,31.6690287 C8.43210233,32.0970287 8.52910233,31.0200287 8.76310233,30.5290287 C11.5971023,24.5820287 16.7101023,21.7750287 22.6381023,20.5510287 C26.2051023,19.8140287 29.5311023,19.7540287 33.0101023,21.3120287 C34.3551023,21.9130287 36.7311023,23.7450287 38.5671023,25.8170287 C39.9991023,27.4320287 41.2051023,30.2010287 39.5481023,29.2220287 C38.2511023,28.4550287 36.4781023,26.3720287 35.3981023,25.5550287 Z" id="Fill-8" fill="#090E2B"/><path d="M24.8135023,36.0623287 C29.3405023,36.0623287 33.0105023,32.7143287 33.0105023,28.5833287 C33.0105023,24.4533287 29.3405023,21.1043287 24.8135023,21.1043287 C20.2865023,21.1043287 16.6165023,24.4533287 16.6165023,28.5833287 C16.6165023,32.7143287 20.2865023,36.0623287 24.8135023,36.0623287 Z" id="Fill-10" fill="#090E2B"/></g><g id="eye2" transform="translate(81.203378, 15.000183)"><path d="M23.2557812,1.861246 C26.6096324,3.34897691 31.0744206,8.28711729 27.357522,8.28711729 C23.6406234,8.28711729 15.5900245,7.23270759 10.1930245,9.45970759 C8.30802454,9.94170759 6.87752199,10.8641173 4.98452199,11.0891173 C0.67652199,11.9281173 -1.66408888,6.76839233 1.38185604,3.64904337 C4.82290212,0.125071736 16.4397812,-1.545754 23.2557812,1.861246 Z" id="Fill-4" fill="#090E2B"/><path d="M19.455322,34.2343173 C24.826322,32.9853173 28.843322,28.1153173 28.389322,24.4763173 C27.503322,19.6543173 18.218322,16.5753173 13.017322,19.2083173 C7.86632199,21.8153173 4.64332199,27.6403173 5.05932199,29.9403173 C5.66032199,31.5323173 13.966322,35.5113173 19.455322,34.2343173 Z" id="Fill-12" fill="#FFF"/><path d="M15.011222,31.6060173 C18.549222,31.6060173 21.417222,28.8520173 21.417222,25.4560173 C21.417222,22.0590173 19.396222,18.8490173 15.011222,19.3060173 C11.492222,19.6720173 8.60422199,22.0590173 8.60422199,25.4560173 C8.60422199,28.8520173 11.473222,31.6060173 15.011222,31.6060173 Z" id="Fill-14" fill="#090E2B"/><path d="M5.25072199,26.6376173 C7.27972199,19.0636173 16.440722,15.1686173 23.685722,18.7546173 C24.705722,19.2866173 26.361722,20.4806173 27.601722,21.9226173 C28.742722,23.2526173 28.593722,23.9496173 28.127722,23.8116173 C27.355722,23.5816173 25.722722,22.1166173 24.395722,21.4866173 C17.685722,18.3036173 10.704722,20.0896173 5.59372199,27.5586173 C5.34272199,27.9456173 5.10472199,27.0746173 5.25072199,26.6376173" id="Fill-22" fill="#090E2B"/></g><path d="M86.9879908,70.3386563 C86.0131141,75.2575144 79.9689699,75.7359636 76.0323155,74.6212963 C72.832522,73.7152719 72.0034674,71.851321 73.0853454,71.2537752 C74.8485675,70.2799076 80.4997296,72.9889887 82.5858367,70.4027854 C86.305606,65.7912866 74.8914605,48.8346319 78.5177277,51.5592059 C83.3102149,55.1600121 87.6386051,67.0559034 86.9879908,70.3386563 Z" id="nose" fill="#090E2B"/><path d="M89.6387968,90.5818454 C88.8707672,91.1602445 87.0677709,93.5463983 85.244688,95.0617056 C81.1444698,98.4697185 74.4745751,99.2530639 70.5444286,98.4697185 C63.1559339,96.997065 59.9595527,92.178225 58.0067117,90.8585998 C56.0538707,89.5389745 59.7200172,87.8442758 62.5249361,88.0931395 C65.3298551,88.3420033 67.2123883,89.156182 72.5654423,91.4592717 C76.0199316,92.9455259 83.8310598,90.8585998 86.0381944,89.5389745 C90.2484115,87.021725 91.5113061,89.1716685 89.6387968,90.5818454 Z" id="Fill-18" fill="#090E2B"/></g></g><g id="Facial Accesories" transform="translate(517.000000, 209.000000) scale(1 1)" fill="#000" blush:width="120" blush:height="110" blush:component="Facial Accesories"><g id="Facial Accesories/None" stroke="none" stroke-width="1" fill="none" fill-rule="evenodd" fill-opacity="0"/></g><g id="Glass" transform="translate(520.000000, 164.000000) scale(1 1)" fill="#000" blush:width="120" blush:height="75" blush:component="Glass"><g id="Glass/None" stroke="none" stroke-width="1" fill="none" fill-rule="evenodd" fill-opacity="0"/></g></g></svg>