<svg viewBox="208 -7.999999999999773 2975.999999999999 2080" xmlns="http://www.w3.org/2000/svg" xmlns:xlink="http://www.w3.org/1999/xlink" xmlns:blush="http://design.blush" overflow="visible" width="1000px" height="698.9247311827959px"><defs><rect id="mastersceneskeeping-in-touch-path-1" x="0" y="0" width="569" height="356"/></defs><g id="Master/Scenes/Keeping in Touch" stroke="none" stroke-width="1" fill="none" fill-rule="evenodd"><g id="Background"><path d="M1013.485,1606 C1015.14185,1606 1016.485,1607.34395 1016.485,1609.0008 C1016.485,1610.59848 1015.23608,1611.90446 1013.66127,1611.99571 L1013.485,1612.0008 L933.202,1612 L933.202,1671.462 L1060.65059,1671.4628 C1062.24828,1671.4628 1063.55426,1672.71172 1063.6455,1674.28653 L1063.65059,1674.4628 C1063.65059,1676.06048 1062.40167,1677.36646 1060.82687,1677.45771 L1060.65059,1677.4628 L1016.485,1677.462 L1016.485,1736.926 L1100.405,1736.9266 C1102.06185,1736.9266 1103.405,1738.26975 1103.405,1739.9266 C1103.405,1741.52428 1102.15608,1742.83026 1100.58127,1742.92151 L1100.405,1742.9266 L933.202,1742.926 L933.202,1802.386 L1031.15928,1802.3866 C1032.75696,1802.3866 1034.06294,1803.63552 1034.15419,1805.21033 L1034.15928,1805.3866 C1034.15928,1806.98428 1032.91036,1808.29026 1031.33555,1808.38151 L1031.15928,1808.3866 L842.84,1808.3866 C841.183146,1808.3866 839.84,1807.04245 839.84,1805.3856 C839.84,1803.78792 841.08892,1802.48194 842.663727,1802.39069 L842.84,1802.3856 L927.202,1802.385 L927.202,1742.925 L842.84,1742.9256 C841.242319,1742.9256 839.936339,1741.67668 839.845093,1740.10187 L839.84,1739.9256 C839.84,1739.35179 840.001101,1738.8156 840.280541,1738.3598 L840.280541,1676.0278 C840.001101,1675.572 839.84,1675.03581 839.84,1674.462 C839.84,1672.86432 841.08892,1671.55834 842.663727,1671.46709 L842.84,1671.462 L927.202,1671.461 L927.202,1612 L868.53,1612 C866.932319,1612 865.626339,1610.75108 865.535093,1609.17627 L865.53,1609 C865.53,1607.40232 866.77892,1606.09634 868.353727,1606.00509 L868.53,1606 L1013.485,1606 Z M1010.485,1677.463 L846.281,1677.463 L846.281,1736.925 L1010.485,1736.925 L1010.485,1677.463 Z" id="Bricks" fill-opacity=".08" fill="#000" fill-rule="nonzero"/><path d="M2099.316,770.244 L2464.996,770.244 L2464.996,1244.071 L2099.316,1244.072 L2099.316,770.244 Z M2872.84,770.244 L2872.84,1244.072 L2507.16,1244.071 L2507.16,770.244 L2872.84,770.244 Z M2872.84,727.527 L2507.16,727.528 L2507.16,210.151 L2872.84,210.152 L2872.84,727.527 Z M2464.996,210.151 L2464.996,727.528 L2099.316,727.527 L2099.316,210.152 L2464.996,210.151 Z" id="Window" fill="#F0F1FF" fill-rule="nonzero" opacity=".5"/><path d="M2313.484,387.0036 L2117,387.0036 C2117,387.0036 2131.4,327.9916 2182.216,327.9916 C2219.868,327.9916 2239.404,351.8036 2247.012,364.1436 C2261.864,358.3356 2293.84,351.2836 2313.484,387.0036" id="Fill-17" fill="#FFF"/><path d="M2608.306,1000.5192 C2613.35,1000.5192 2618.074,1001.8872 2622.174,1004.2552 C2630.01,990.5912 2644.462,981.3952 2661.046,981.3952 C2676.534,981.3952 2690.19,989.3992 2698.306,1001.5832 C2702.594,986.9032 2715.862,976.1992 2731.582,976.1992 C2749.422,976.1992 2764.106,989.9872 2766.082,1007.7272 C2767.518,1007.4952 2768.978,1007.3432 2770.478,1007.3432 C2781.362,1007.3432 2790.794,1013.6432 2795.53,1022.8712 L2580.778,1022.8712 C2583.718,1010.0672 2594.91,1000.5192 2608.306,1000.5192" id="Fill-18" fill="#FFF"/><path d="M2927.34,165.572 L2044.34,165.572 L2044.34,1295.572 L2927.34,1295.572 L2927.34,165.572 Z M2920.34,172.571 L2920.34,1288.572 L2051.34,1288.572 L2051.34,172.571 L2920.34,172.571 Z" id="Window-Frame" fill-opacity=".08" fill="#000" fill-rule="nonzero"/><path d="M1959.4854,803 C1961.14225,803 1962.4854,804.343946 1962.4854,806.0008 C1962.4854,807.598481 1961.23648,808.904461 1959.66167,808.995707 L1959.4854,809.0008 L1879.2034,809 L1879.2034,868.462 L2046.4054,868.4628 C2048.00308,868.4628 2049.30906,869.71172 2049.40031,871.286527 L2049.4054,871.4628 C2049.4054,873.060481 2048.15648,874.366461 2046.58167,874.457707 L2046.4054,874.4628 L1962.4854,874.462 L1962.4854,933.926 L2046.4054,933.9266 C2048.06225,933.9266 2049.4054,935.269746 2049.4054,936.9266 C2049.4054,938.524281 2048.15648,939.830261 2046.58167,939.921507 L2046.4054,939.9266 L1879.2034,939.926 L1879.2034,999.386 L2046.4054,999.3866 C2048.00308,999.3866 2049.30906,1000.63552 2049.40031,1002.21033 L2049.4054,1002.3866 C2049.4054,1003.98428 2048.15648,1005.29026 2046.58167,1005.38151 L2046.4054,1005.3866 L1792.2824,1005.387 L1792.2824,1064.849 L1876.2032,1064.8496 C1877.80088,1064.8496 1879.10686,1066.09852 1879.19811,1067.67333 L1879.2032,1067.8496 C1879.2032,1069.44728 1877.95428,1070.75326 1876.37947,1070.84451 L1876.2032,1070.8496 L1789.2832,1070.8496 C1787.68552,1070.8496 1786.37954,1069.60068 1786.28829,1068.02587 L1786.2832,1067.8496 L1786.2824,1005.385 L1739.959,1005.3856 C1738.30215,1005.3856 1736.959,1004.04245 1736.959,1002.3856 C1736.959,1000.78792 1738.20792,999.481939 1739.78273,999.390693 L1739.959,999.3856 L1873.2024,999.385 L1873.2024,939.925 L1739.959,939.9256 C1738.36132,939.9256 1737.05534,938.67668 1736.96409,937.101873 L1736.959,936.9256 C1736.959,935.327919 1738.20792,934.021939 1739.78273,933.930693 L1739.959,933.9256 L1786.2814,933.925 L1786.2814,874.461 L1706.0004,874.462 C1704.34355,874.462 1703.0004,873.118854 1703.0004,871.462 C1703.0004,869.864319 1704.24932,868.558339 1705.82413,868.467093 L1706.0004,868.462 L1873.2024,868.461 L1873.2024,809 L1814.5304,809 C1812.93272,809 1811.62674,807.75108 1811.53549,806.176273 L1811.5304,806 C1811.5304,804.402319 1812.77932,803.096339 1814.35413,803.005093 L1814.5304,803 L1959.4854,803 Z M1956.4854,874.463 L1792.2814,874.463 L1792.2814,933.925 L1956.4854,933.925 L1956.4854,874.463 Z" id="Bricks" fill-opacity=".08" fill="#000" fill-rule="nonzero"/><path d="M3094.485,202 C3096.14185,202 3097.485,203.343946 3097.485,205.0008 C3097.485,206.598481 3096.23608,207.904461 3094.66127,207.995707 L3094.485,208.0008 L3014.202,208 L3014.202,267.462 L3141.65059,267.4628 C3143.24828,267.4628 3144.55426,268.71172 3144.6455,270.286527 L3144.65059,270.4628 C3144.65059,272.060481 3143.40167,273.366461 3141.82687,273.457707 L3141.65059,273.4628 L3097.485,273.462 L3097.485,332.926 L3181.405,332.9266 C3183.06185,332.9266 3184.405,334.269746 3184.405,335.9266 C3184.405,337.524281 3183.15608,338.830261 3181.58127,338.921507 L3181.405,338.9266 L3014.202,338.926 L3014.202,398.386 L3112.15928,398.3866 C3113.75696,398.3866 3115.06294,399.63552 3115.15419,401.210327 L3115.15928,401.3866 C3115.15928,402.984281 3113.91036,404.290261 3112.33555,404.381507 L3112.15928,404.3866 L2923.84,404.3866 C2922.18315,404.3866 2920.84,403.042454 2920.84,401.3856 C2920.84,399.787919 2922.08892,398.481939 2923.66373,398.390693 L2923.84,398.3856 L3008.202,398.385 L3008.201,338.925 L2923.84,338.9256 C2922.24232,338.9256 2920.93634,337.67668 2920.84509,336.101873 L2920.84,335.9256 C2920.84,335.351785 2921.0011,334.815597 2921.28054,334.359799 L2921.28054,272.027801 C2921.0011,271.572003 2920.84,271.035815 2920.84,270.462 C2920.84,268.864319 2922.08892,267.558339 2923.66373,267.467093 L2923.84,267.462 L3008.202,267.461 L3008.202,208 L2949.53,208 C2947.93232,208 2946.62634,206.75108 2946.53509,205.176273 L2946.53,205 C2946.53,203.402319 2947.77892,202.096339 2949.35373,202.005093 L2949.53,202 L3094.485,202 Z M3091.485,273.463 L2927.281,273.463 L2927.281,332.925 L3091.485,332.925 L3091.485,273.463 Z" id="Bricks" fill-opacity=".08" fill="#000" fill-rule="nonzero"/><g id="Lamp" transform="translate(812.000000, 0.000000)"><path d="M231,621.003035 C231,640.879963 214.884674,657 195,657 C175.115326,657 159,640.879963 159,621.003035 C159,601.120037 175.115326,585 195,585 C214.884674,585 231,601.120037 231,621.003035" id="Fill-5" fill="#FFF"/><polygon id="Fill-3" fill="#090E2B" points="193 490 198 490 198 0 193 0"/><path d="M186.507779,462.266165 C168.684301,497.567794 118.938893,573.423586 2.3418784,627.372619 C-1.53986671,629.171929 -0.31627314,635 3.95726302,635 L386.043944,635 C390.31748,635 391.541074,629.171929 387.653301,627.372619 C271.056287,573.423586 221.316907,497.567794 203.4874,462.266165 C199.943198,455.244612 190.058009,455.244612 186.507779,462.266165" id="Fill-1" fill="#0084FF"/></g><g id="Medium Plants" transform="translate(2111.000000, 1253.000000) scale(1 1)" blush:width="845" blush:height="800" blush:component="Medium Plants"><defs><polygon id="medium-plantsplant-4-path-1" points="0.885 0.4042 225.003 0.4042 225.003 229 0.885 229"/></defs><g id="Medium Plants/Plant 4" stroke="none" stroke-width="1" fill="none" fill-rule="evenodd"><g id="Group-16" transform="translate(94.000000, 144.000000)"><path d="M662.512,98.475 C662.512,98.475 654.898,157.099 541.284,228.111 C510.266,247.427 495.952,267.763 485.27,286.623 C475.046,289.917 459.708,294.121 450.39,293.439 C450.39,293.439 464.366,297.417 479.476,297.417 C464.82,325.253 450.172,348.431 395.524,357.747 C395.524,357.747 337.882,323.167 382.904,223.567 C394.72,233.791 410.058,253.105 410.058,253.105 C408.24,238.223 394.606,221.181 387.79,213.453 C387.902,213.341 387.902,213.227 388.016,213.113 C421.08,151.081 484.704,148.921 545.942,145.173 C545.26,153.465 543.216,165.851 537.876,175.393 C537.876,175.393 554.122,163.123 559.122,144.263 C569.232,143.581 579.232,142.673 589.002,141.309 C617.178,137.445 647.174,121.881 662.512,98.475" id="Fill-1" fill="#009BA0"/><path d="M10.3910291,113.374429 C25.9612131,111.077316 44.3658046,110.707752 64.7231199,113.490176 C92.7811,117.325122 121.021718,126.762182 148.555346,143.024165 C148.887306,143.220228 149.073691,143.586985 149.043724,143.964048 L149.025625,144.089897 L141.939,177.971 L157.743907,149.967727 C158.008197,149.499404 158.589421,149.329819 159.058442,149.562859 L159.164491,149.623832 C168.811192,155.971576 178.331005,163.262123 187.817736,171.593001 C223.39881,202.762455 245.340792,234.773338 256.182175,266.376895 C263.611965,288.035365 265.047051,306.790526 263.048678,321.394825 C262.965152,322.005241 262.878548,322.576963 262.790336,323.109279 L262.656999,323.878111 L262.522354,324.587303 L262.387427,325.234372 L262.270923,325.733668 L262.231693,325.848056 L262.19283,325.931313 L262.135104,326.027965 L262.067638,326.116488 L261.991346,326.196343 L261.937861,326.243242 L261.839616,326.313749 L261.734763,326.371215 L261.723,326.375 C261.685299,326.393589 261.651094,326.406878 261.616178,326.418272 L261.510483,326.446248 L261.39938,326.463179 L261.286874,326.467227 L261.15729,326.45616 L261.040332,326.431323 L260.925944,326.392093 L260.842687,326.35323 L260.746035,326.295504 L260.710128,326.269686 C256.52596,323.158633 252.280858,320.451042 247.848299,318.035552 L246.822015,317.483266 L245.861482,316.978041 C245.701612,316.894826 245.541821,316.812091 245.382062,316.729817 L244.423531,316.241522 L243.46357,315.763265 C243.303334,315.684336 243.142946,315.605784 242.982361,315.527589 L242.016105,315.062517 L241.042887,314.604988 L240.060495,314.154002 C239.895875,314.079328 239.730781,314.004885 239.565167,313.930652 L238.564865,313.48761 C238.396984,313.414134 238.22849,313.340828 238.059338,313.267669 L237.036148,312.830324 L235.994935,312.395529 L234.933485,311.962285 C234.754768,311.890152 234.575115,311.818041 234.394481,311.745933 L233.298528,311.313144 C233.113784,311.240962 232.927966,311.16874 232.741028,311.096458 L231.605595,310.661878 L230.441076,310.224855 L229.245259,309.784392 L228.015931,309.339488 L226.104266,308.661626 L224.781482,308.201256 L223.417444,307.732952 L221.289196,307.013436 L219.812343,306.520928 L206.810764,302.22715 L202.409619,300.749307 L199.321756,299.691506 L196.319463,298.634097 L194.165491,297.849018 L192.409498,297.187179 L190.967544,296.62652 L189.08907,295.871239 L188.094412,295.46009 L187.031034,295.012617 L185.945089,294.548128 L184.825843,294.062648 L183.662562,293.5522 L181.811596,292.731019 L181.160962,292.440501 C165.668155,285.513952 150.417057,276.554523 133.881881,264.18801 C133.381817,263.814016 133.349536,263.089033 133.784048,262.669558 L133.884302,262.584585 L154.071,247.581 L128.318251,259.139532 C128.025678,259.270838 127.690765,259.252896 127.41632,259.097547 L127.302702,259.02259 L126.20091,258.173175 L124.740219,257.019217 L123.435516,255.968337 L121.948112,254.755968 C114.317692,248.488973 106.440774,241.063179 98.5597118,232.878472 L96.8083948,231.047319 C93.8897479,227.975117 90.972995,224.802876 88.070449,221.550911 L86.3307248,219.590328 C86.0410878,219.262024 85.7516174,218.932963 85.462326,218.603166 L83.7288245,216.615711 C83.4402984,216.28305 83.1519759,215.949693 82.8638695,215.615661 L81.1379203,213.603528 L79.417745,211.576162 L77.7039343,209.534539 C77.4188625,209.193134 77.1340804,208.851176 76.8496005,208.508685 L75.1464452,206.447503 C74.8632231,206.102961 74.5803277,205.757926 74.2977714,205.412419 L72.6066012,203.333873 C72.3254505,202.986559 72.0446635,202.638813 71.7642524,202.290656 L70.0863971,200.19694 L68.4181571,198.094331 C68.1409512,197.743209 67.8641706,197.391757 67.5878275,197.039995 L65.9351187,194.925873 C65.3860317,194.220035 64.8387936,193.513121 64.2935028,192.805294 L62.6635708,190.679234 L61.0459137,188.548669 C60.7773599,188.193253 60.5093422,187.837691 60.241873,187.482001 L58.6437364,185.346505 C58.37851,184.99039 58.1138565,184.634188 57.8497884,184.277921 L56.2725023,182.139689 C55.7491472,181.42679 55.228232,180.71379 54.7098551,180.000852 L53.162438,177.862384 L51.6308419,175.725263 L50.1156579,173.590461 L48.7570018,171.686355 L47.4092365,169.813079 C47.1855176,169.503427 46.9622533,169.195054 46.7394439,168.887957 L45.4080508,167.060658 L44.0875961,165.263833 L42.7780991,163.497338 L41.4795787,161.761033 L40.1920541,160.054772 L38.9155442,158.378416 L37.6500681,156.73182 L36.3956449,155.114842 L35.1522937,153.52734 L33.9200334,151.969172 L32.6988832,150.440194 C32.4962851,150.187789 32.2941507,149.936594 32.0924804,149.686607 L30.888031,148.201148 L29.6947393,146.744523 C29.4967882,146.504147 29.2993028,146.264966 29.1022835,146.026978 L27.925764,144.613338 L26.7604499,143.228175 C26.5671658,142.99968 26.3743493,142.772365 26.1820008,142.546228 L25.0335304,141.203515 L23.896313,139.888924 L22.7703676,138.602312 L21.6557133,137.343536 L20.5523691,136.112454 L19.4603542,134.908924 L18.3796874,133.732803 L17.310388,132.583948 C17.1331198,132.394736 16.956326,132.206655 16.780007,132.0197 L15.7277942,130.911478 L14.6869965,129.830165 L13.6576327,128.77562 C13.4870259,128.602086 13.3168964,128.42966 13.1472445,128.258341 L12.1115509,127.220503 C11.7708102,126.88174 11.4345633,126.550135 11.1028205,126.225611 L10.1211146,125.273206 C9.79839023,124.962768 9.48018011,124.659334 9.16649449,124.362829 L8.23902135,123.494021 L7.3387565,122.666324 C7.19098312,122.531774 7.04434597,122.398919 6.89884633,122.267748 L6.0395088,121.500855 L5.20753274,120.773924 L4.40297942,120.086498 C4.27117583,119.975193 4.14051741,119.865515 4.01100544,119.757455 L3.28328667,119.157441 L2.63493837,118.636079 C2.53098592,118.553585 2.42908819,118.473276 2.32924806,118.395131 L1.7549214,117.952054 C1.66332316,117.882478 1.57378826,117.815022 1.4863196,117.749665 L0.960618641,117.363961 L0.574456463,117.092618 L0.458066013,117.015105 C-0.270580867,116.544264 -0.0950827257,115.432463 0.74316699,115.208957 L1.39498615,115.046932 L2.25696813,114.847912 L2.91069485,114.704838 L3.26106716,114.630479 C3.77113547,114.523314 4.30265292,114.416183 4.85530049,114.309527 L5.98867462,114.096981 L7.17782865,113.886491 L8.42219547,113.678844 L9.72120796,113.474829 C9.94223234,113.441173 10.16551,113.407701 10.3910291,113.374429 Z" id="Fill-3" fill="#017C7F" fill-rule="nonzero"/><path d="M331.4778,356.7582 C331.4778,356.7582 277.8958,340.8782 240.0318,272.3862 C252.9298,268.6422 261.2518,259.9882 261.2518,259.9882 C252.0978,262.5682 235.4538,263.6502 235.4538,263.6502 C156.6878,164.7222 196.4138,0.0002 196.4138,0.0002 C205.1518,21.7202 248.5858,52.7902 283.7858,98.4742 C278.9598,102.7202 261.9898,119.9182 257.7458,126.6582 C257.7458,126.6582 276.8158,112.0302 286.9678,107.1182 C319.2578,149.3922 343.6278,201.9702 352.9478,243.4142 C373.2538,334.2902 331.4778,356.7582 331.4778,356.7582" id="Fill-5" fill="#009BA0"/><path d="M213.221,60.438 C226.283,96.12 240.029,131.57 255.003,166.488 C262.539,183.92 270.331,201.262 279.167,218.048 C280.291,220.136 281.347,222.262 282.525,224.314 L286.103,230.45 C288.467,234.544 290.993,238.608 293.429,242.688 C298.161,250.948 302.817,259.266 306.883,267.89 C315.213,285.026 321.729,303.09 326.015,321.68 C328.191,330.966 329.851,340.356 331.375,349.74 C332.161,354.422 332.873,359.132 333.519,363.866 C334.091,368.594 334.659,373.322 335.121,378.058 C337.053,396.988 338.417,415.954 339.741,434.92 C341.031,453.89 342.175,472.864 343.191,491.852 C343.229,492.542 342.699,493.13 342.011,493.167922 C341.321,493.204 340.733,492.674 340.695,491.984 L340.695,491.978 C339.745,473.004 338.665,454.032 337.443,435.072 C336.185,416.118 334.887,397.158 333.023,378.268 C332.579,373.544 332.031,368.834 331.477,364.126 C330.853,359.442 330.163,354.754 329.391,350.06 C327.903,340.684 326.283,331.34 324.153,322.112 C319.963,303.64 313.561,285.704 305.337,268.63 C301.325,260.042 296.717,251.744 292.033,243.502 C289.611,239.416 287.133,235.398 284.759,231.256 L281.177,225.064 C279.997,222.994 278.945,220.858 277.825,218.758 C269.013,201.874 261.271,184.486 253.789,167.008 C238.919,132.004 225.293,96.5 212.347,60.75 C212.259,60.51 212.385,60.244 212.625,60.156 C212.867,60.068 213.135,60.196 213.221,60.438" id="Fill-7" fill="#000"/><path d="M58.6878,139.4418 L153.4198,205.0718 C169.2218,216.0298 184.2658,228.1018 198.3638,241.1918 C201.9418,244.4078 205.3158,247.8418 208.7858,251.1738 C212.1118,254.6498 215.5678,258.0038 218.7678,261.6018 C225.3598,268.6178 231.4738,276.0698 237.3678,283.6838 C243.1938,291.3578 248.5438,299.3918 253.4298,307.7118 C258.1358,316.1338 262.3558,324.8458 265.4158,334.0538 C266.1898,336.3418 266.7758,338.6818 267.4658,340.9938 C268.0938,343.3198 268.8798,345.6138 269.3718,347.9698 C270.4218,352.6678 271.6798,357.3278 272.5558,362.0598 C274.4938,371.4878 276.1238,380.9718 277.5998,390.4738 C283.3618,428.5118 286.8678,466.8138 289.3598,505.1878 C289.4038,505.8758 288.8818,506.4718 288.1938,506.518389 C287.5038,506.5598 286.9098,506.0378 286.8638,505.3478 L286.8638,505.3438 L286.8638,505.3238 C284.5258,467.0358 281.1658,428.7338 275.5658,390.7818 C274.1318,381.3018 272.5418,371.8418 270.6478,362.4498 C269.7938,357.7338 268.5618,353.1058 267.5358,348.4278 C267.0558,346.0778 266.2858,343.8158 265.6738,341.5038 C264.9998,339.2138 264.4258,336.8858 263.6718,334.6258 C260.7018,325.5678 256.5598,316.9238 251.9298,308.5658 C247.1198,300.3038 241.8418,292.3078 236.0798,284.6578 C230.2478,277.0678 224.1958,269.6298 217.6578,262.6198 C214.4898,259.0258 211.0598,255.6718 207.7598,252.1978 C204.3158,248.8658 200.9678,245.4318 197.4158,242.2138 C183.4138,229.1118 168.4698,217.0238 152.7458,206.0318 L58.2718,140.0418 C58.1058,139.9278 58.0638,139.6998 58.1798,139.5338 C58.2938,139.3678 58.5218,139.3258 58.6878,139.4418" id="Fill-9" fill="#000"/><path d="M613.0178,154.895 C580.8438,175.235 548.4818,195.275 516.1918,215.435 L492.0098,230.555 C484.1098,235.679 476.6958,241.627 469.5438,247.821 C462.3498,253.985 455.6518,260.705 449.0918,267.533 C445.9438,271.073 442.6298,274.465 439.6618,278.159 L435.1058,283.605 L430.7858,289.241 C424.9858,296.729 419.8638,304.697 415.0098,312.811 C413.8498,314.867 412.7758,316.973 411.6538,319.053 C410.5878,321.159 409.3378,323.179 408.4198,325.355 L405.5198,331.817 L404.0758,335.049 L402.8718,338.375 L400.4638,345.027 C399.6238,347.235 399.1718,349.559 398.5058,351.819 C397.9038,354.099 397.2478,356.353 396.6858,358.655 L395.1518,365.619 L389.1638,393.517 C381.4018,430.763 373.9698,468.091 366.9418,505.483 C366.8158,506.161 366.1658,506.611 365.4858,506.487 C364.8078,506.361 364.3578,505.707 364.4818,505.027 C371.4418,467.595 378.6498,430.215 386.5218,392.961 L392.5418,365.043 L394.0878,358.073 C394.6538,355.753 395.3278,353.437 395.9418,351.117 C396.6218,348.817 397.0918,346.445 397.9438,344.203 L400.3998,337.437 L401.6298,334.055 L403.0978,330.773 L406.0518,324.217 C406.9858,322.007 408.2518,319.963 409.3358,317.829 C410.4758,315.721 411.5658,313.587 412.7438,311.505 C417.6658,303.293 422.8598,295.237 428.7238,287.677 L433.0958,281.991 L437.6998,276.495 C440.7018,272.771 444.0478,269.349 447.2258,265.781 C453.8518,258.899 460.6138,252.127 467.8818,245.911 C475.1158,239.665 482.5858,233.675 490.6638,228.445 C498.7658,223.347 506.8838,218.467 514.9938,213.467 C547.4558,193.603 579.8478,173.621 612.4238,153.939 C612.6898,153.777 613.0358,153.861 613.1978,154.127 C613.3578,154.389 613.2758,154.731 613.0178,154.895" id="Fill-11" fill="#000"/><g id="Group-15" transform="translate(216.000000, 426.090000)"><mask id="medium-plantsplant-4-mask-2" fill="#fff"><use xlink:href="#medium-plantsplant-4-path-1"/></mask><g id="Clip-14"/><path d="M73.761,229.0002 L152.127,229.0002 C180.031,229.0002 203.369,225.7942 206.035,198.0182 L225.003,0.4042 L0.885,0.4042 L19.851,198.0182 C22.517,225.7942 45.855,229.0002 73.761,229.0002" id="Fill-13" fill="#F0F1FF" mask="url(#medium-plantsplant-4-mask-2)"/></g></g></g></g><g id="Table" transform="translate(545.000000, 1458.053163)"><rect id="Rectangle" fill="#F0F1FF" x="0" y="0" width="1057" height="40" rx="13"/><rect id="Rectangle-Copy-3" fill="#BACCFF" x="0" y="0" width="369" height="40" rx="13"/><rect id="Rectangle" fill="#C7D2F2" x="728" y="40" width="239" height="552"/><rect id="Rectangle-Copy-2" fill="#C7D2F2" x="86" y="40" width="239" height="552"/></g><g id="Monitor" transform="translate(791.000000, 936.053163)"><rect id="Rectangle" fill="#FFB201" x="0" y="0" width="619" height="441" rx="20"/><rect id="Rectangle-Copy-5" fill="#FFF" x="26" y="24" width="569" height="356"/><g id="Character" transform="translate(26.000000, 24.000000)"><mask id="mastersceneskeeping-in-touch-mask-2" fill="#fff"><use xlink:href="#mastersceneskeeping-in-touch-path-1"/></mask><use id="Mask" fill="#FBFDFF" xlink:href="#mastersceneskeeping-in-touch-path-1"/><g id="Character-1" mask="url(#mastersceneskeeping-in-touch-mask-2)"><g transform="translate(98.896484, -8.853963)" blush:has-customizable-skin="true"><path d="M213.972307,222.517402 C213.972307,222.517402 207.254058,264.694548 213.762956,277.264565 C218.945634,287.273819 249.523831,300.962858 249.523831,300.962858 L255,330.345184 L141.468913,342 C128.331918,339.085547 80.7772962,326.899195 95.9567113,307.851838 C111.135125,288.804481 143.290964,283.552071 148.517715,275.109448 C158.553518,258.900611 160.387589,225.951401 160.111126,213.505277 C160.111126,210.413978 213.972307,222.517402 213.972307,222.517402" id="neck" fill="#09B9C6" blush:skin="500"/><g id="t-shirt" stroke-width="1" fill="none" transform="translate(31.000000, 287.000000)"><path d="M89.4468,0.0136764189 C102.8688,2.67167642 149.2358,34.6536764 177.6858,31.5776764 C192.0658,30.0236764 203.8198,5.46367642 204.2708,4.91467642 C204.576334,4.54492662 218.843092,11.9835019 231.055751,19.7322048 L231.0582,19.7031764 L231.0582,19.7031764 C231.135221,19.7651796 231.222432,19.8308242 231.319419,19.9003197 C231.863961,20.2463015 232.403006,20.5926111 232.936312,20.9387644 C239.599781,25.0355541 258.899602,36.4407721 265.3982,68.0261764 C268.0352,80.8401764 285.0832,128.800176 300.1392,167.597176 C288.335776,185.699803 275.3929,186.242882 241.16511,186.259174 L237.927661,186.259678 L237.927661,186.259678 C229.857644,186.259678 155.328216,189.846496 72.662627,186.259678 C38.2055127,184.764601 8.73269423,183.264728 1.25005975,158 C-2.84486358,144.173704 13.2909823,83.3129264 12.1768,74.8846764 C8.8578,49.7816764 26.8658,32.3416764 33.1348,27.1536764 C54.0788,9.82167642 87.2148,-0.427323581 89.4468,0.0136764189 Z" id="T-Shirt" fill="#FF0057"/><path d="M255.6453,102.608676 C258.0363,112.136676 258.064419,120.171504 257.606419,129.951504 C256.453079,147.259988 253.873594,145.961005 249.782594,166.732005 C247.698594,177.309005 246.534594,183.736005 245.868594,185.399005 C244.964594,187.656005 245.234594,181.318005 247.753594,166.371005 C250.267594,149.368005 252.892902,151.271638 254.510902,134.292638 C256.128902,117.313638 255.5623,114.940676 252.8243,102.383676 C250.3413,91.3246764 246.4643,81.4866764 243.1413,70.6196764 C242.9503,69.1046764 239.1053,59.6106764 241.0533,61.0176764 C245.5873,74.8956764 251.9913,88.4526764 255.6453,102.608676 Z" id="Fill-15" fill="#090E2B"/><path d="M96.8404,74.2851764 C93.7574,101.612176 89.1684,128.761176 83.1614,155.596176 C82.2654,157.756176 75.4204,187.256176 75.1164,182.060176 C75.0774,181.382176 75.2134,180.032176 75.3544,179.363176 C80.6594,154.144176 86.1554,126.484176 90.7034,101.126176 C90.7044,101.126176 95.4114,74.0911764 95.4114,74.0911764 C95.5384,73.2221764 96.9564,73.3601764 96.8404,74.2851764" id="Fill-17" fill="#090E2B"/></g><g id="Head" fill="none" transform="translate(43.000000, 0.000000) scale(1 1)" blush:width="300" blush:height="300" blush:component="Head"><g id="Head/Long Dark" stroke="none" stroke-width="1" fill="none" fill-rule="evenodd"><path d="M172.750436,123.673215 C181.557667,108.745196 199.106925,88.6932061 230.141424,95.6440364 C273.229251,105.294464 235.7643,153.087 237.6813,176.044 C244.6903,259.99 223.691575,291.326 194.4633,291.326 C165.633543,291.326 152.716829,272.531922 167.8583,235.389 C181.469468,202 156.532456,151.162251 172.750436,123.673215 Z" id="Fill-1" fill="#090E2B"/><path d="M234.848949,163.885475 C232.942649,191.560432 241.123118,249.878015 201.29748,260.203135 C173.36764,267.444173 110.311063,248.579884 103.276658,201.477616 C102.046318,193.23928 88.8110684,143.437961 121.79356,114.65996 C150.3729,89.7238126 226.222248,92.3469712 232.718352,105.216043 C244.807119,129.164429 236.755249,136.210518 234.848949,163.885475 Z" id="Fill-4" fill="#09B9C6" blush:skin="500"/><path d="M237.132791,103.554712 C238.555601,118.814762 224.859909,127.515966 206.018175,130.669488 C177.122783,135.50568 146.540942,129.287177 126.654101,145.974687 C120.819387,150.87073 126.602434,171.03705 120.104434,177.25405 C115.844434,181.32905 113.896743,172.576115 113.677743,171.810115 C111.809743,165.286115 109.796784,170.94382 107.151784,169.62282 C106.367784,194.15782 106.367784,208.818524 118.285953,227.667862 C132.317762,249.860056 162.936284,305.178536 153.323045,347.333094 C141.001856,401.362157 71.109999,413.558159 82.9582049,336.523861 C94.8064108,259.489563 69.7482937,267.648064 57.1857011,224.117077 C51.1089575,203.060384 49.1167445,173.936868 58.1857011,136.974687 C76.5555752,62.1049248 135.505093,46.1875757 182.945121,53.6709499 C216.459513,58.9576402 235.577842,86.8774414 237.132791,103.554712 Z" id="Fill-6" fill="#090E2B"/><path d="M102.271722,163.023106 C97.3166078,162.654238 86.4745543,163.725043 90.9927759,185.83565 C93.9563575,200.338389 113.042311,203.391002 117.062687,202.616683 C124.257151,201.229616 117.611469,190.122232 117.062687,179.804078 C116.690803,172.831144 111.458282,163.708003 102.271722,163.023106 Z" id="Fill-9" fill="#09B9C6" blush:skin="500"/><path d="M162.122346,256.020918 C162.376346,256.116918 162.793001,257.295741 162.526001,257.346741 C157.131001,258.395741 143.458313,253.166394 135.058313,245.948394 C134.075313,245.103394 130.395313,241.885394 132.088313,242.314394 C139.611313,247.511394 159.614346,255.083918 162.122346,256.020918 Z" id="Fill-11" fill="#090E2B"/><path d="M98.7621,171.4166 C96.1761,171.5516 95.2181,174.2336 97.7951,174.0726 C101.1761,173.8616 105.4961,176.9886 107.5011,179.5376 C105.0641,179.8306 103.0591,180.4216 101.2001,182.4326 C100.0751,183.6496 100.1801,185.0626 101.4441,183.9976 C104.5421,181.3886 107.6001,181.2946 108.5041,181.3496 C108.6501,181.4696 110.4571,185.6546 110.7401,187.4306 C112.7531,187.9676 109.6011,170.8536 98.7621,171.4166" id="Fill-13" fill="#090E2B"/></g></g><g id="Expressions" fill="none" transform="translate(164.000000, 133.000000) scale(1 1)" blush:width="120" blush:height="120" blush:component="Expressions"><g id="Expressions/Happy" stroke="none" stroke-width="1" fill="none" fill-rule="evenodd"><g id="eye1" transform="translate(21.027098, 10.213671)"><path d="M0.0487023333,7.96572872 C1.82485498,-0.0171869856 25.1977023,-2.81531309 35.4827023,3.36568691 C39.0387023,5.47868691 45.6427023,11.2837287 39.7957023,14.4437287 C38.2517023,15.1157287 36.7517023,14.4267287 35.4827023,13.6077287 C21.4647023,3.86572872 -1.18942441,13.5304877 0.0487023333,7.96572872 Z" id="Fill-1" fill="#090E2B"/><path d="M19.0113023,22.3973287 C13.7233023,23.8973287 9.19030233,28.1473287 8.76930233,31.6693287 C8.51430233,33.7973287 16.8643023,38.9063287 24.9173023,39.3033287 C35.5113023,39.8243287 40.8513023,34.0853287 40.8324531,32.2513287 C40.1193023,26.7013287 33.7283023,18.2233287 19.0113023,22.3973287 Z" id="Fill-6" fill="#FFF"/><path d="M35.3981023,25.5550287 C27.2551023,19.4010287 14.6431023,23.4110287 8.76910233,31.6690287 C8.43210233,32.0970287 8.52910233,31.0200287 8.76310233,30.5290287 C11.5971023,24.5820287 16.7101023,21.7750287 22.6381023,20.5510287 C26.2051023,19.8140287 29.5311023,19.7540287 33.0101023,21.3120287 C34.3551023,21.9130287 36.7311023,23.7450287 38.5671023,25.8170287 C39.9991023,27.4320287 41.2051023,30.2010287 39.5481023,29.2220287 C38.2511023,28.4550287 36.4781023,26.3720287 35.3981023,25.5550287 Z" id="Fill-8" fill="#090E2B"/><path d="M24.8135023,36.0623287 C29.3405023,36.0623287 33.0105023,32.7143287 33.0105023,28.5833287 C33.0105023,24.4533287 29.3405023,21.1043287 24.8135023,21.1043287 C20.2865023,21.1043287 16.6165023,24.4533287 16.6165023,28.5833287 C16.6165023,32.7143287 20.2865023,36.0623287 24.8135023,36.0623287 Z" id="Fill-10" fill="#090E2B"/></g><g id="eye2" transform="translate(81.203378, 15.000183)"><path d="M23.2557812,1.861246 C26.6096324,3.34897691 31.0744206,8.28711729 27.357522,8.28711729 C23.6406234,8.28711729 15.5900245,7.23270759 10.1930245,9.45970759 C8.30802454,9.94170759 6.87752199,10.8641173 4.98452199,11.0891173 C0.67652199,11.9281173 -1.66408888,6.76839233 1.38185604,3.64904337 C4.82290212,0.125071736 16.4397812,-1.545754 23.2557812,1.861246 Z" id="Fill-4" fill="#090E2B"/><path d="M19.455322,34.2343173 C24.826322,32.9853173 28.843322,28.1153173 28.389322,24.4763173 C27.503322,19.6543173 18.218322,16.5753173 13.017322,19.2083173 C7.86632199,21.8153173 4.64332199,27.6403173 5.05932199,29.9403173 C5.66032199,31.5323173 13.966322,35.5113173 19.455322,34.2343173 Z" id="Fill-12" fill="#FFF"/><path d="M15.011222,31.6060173 C18.549222,31.6060173 21.417222,28.8520173 21.417222,25.4560173 C21.417222,22.0590173 19.396222,18.8490173 15.011222,19.3060173 C11.492222,19.6720173 8.60422199,22.0590173 8.60422199,25.4560173 C8.60422199,28.8520173 11.473222,31.6060173 15.011222,31.6060173 Z" id="Fill-14" fill="#090E2B"/><path d="M5.25072199,26.6376173 C7.27972199,19.0636173 16.440722,15.1686173 23.685722,18.7546173 C24.705722,19.2866173 26.361722,20.4806173 27.601722,21.9226173 C28.742722,23.2526173 28.593722,23.9496173 28.127722,23.8116173 C27.355722,23.5816173 25.722722,22.1166173 24.395722,21.4866173 C17.685722,18.3036173 10.704722,20.0896173 5.59372199,27.5586173 C5.34272199,27.9456173 5.10472199,27.0746173 5.25072199,26.6376173" id="Fill-22" fill="#090E2B"/></g><path d="M89.773817,88.8585998 C81.203378,89.8585998 88.1482904,99.3833823 83.7083884,100.648667 C72.3411441,103.888108 60,99.9572383 58.0067117,89.8585998 C56.8303329,83.8986871 60.3418642,84.6193542 63.1467832,84.8682179 C65.9517021,85.1170816 79.8038764,85.6292987 87.244688,85.6292987 C94.4593207,85.6292987 90.833428,88.7349642 89.773817,88.8585998 Z" id="Fill-18" fill="#090E2B"/><path d="M79.5163974,56.0474227 C79.9047316,56.0474227 82.4878873,60.4695558 83.4356699,62.0222568 C86.4544009,66.9676809 89.7813295,72.5049636 84.8702,75.6883 C82.4912,77.2313 75.0122,74.8407787 75.0122,73.0253 C75.0122,70.2632077 81.8382,75.1193 83.4442,72.3153 C84.3857451,70.8872578 80.8590997,63.6440183 79.5163974,59.348811 C78.7670658,56.9517537 79.1280631,56.0474227 79.5163974,56.0474227 Z" id="nose" fill="#090E2B"/></g></g><g id="Facial Accesories" fill="none" transform="translate(161.000000, 183.000000) scale(1 1)" blush:width="120" blush:height="110" blush:component="Facial Accesories"><g id="Facial Accesories/None" stroke="none" stroke-width="1" fill="none" fill-rule="evenodd" fill-opacity="0"/></g><g id="Glass" fill="none" transform="translate(164.000000, 138.000000) scale(1 1)" blush:width="120" blush:height="75" blush:component="Glass"><g id="Glass/None" stroke="none" stroke-width="1" fill="none" fill-rule="evenodd" fill-opacity="0"/></g></g></g><path d="M49.0625,50 L49.0625,46.71875 L41.5332031,46.71875 L41.5332031,46.6455078 L48.8867188,37.0068359 L48.8867188,34.296875 L36.2158203,34.296875 L36.2158203,37.5634766 L43.9208984,37.5634766 L43.9208984,37.6513672 L36.0986328,47.5683594 L36.0986328,50 L49.0625,50 Z M58.7597656,50.3369141 C63.5058594,50.3369141 66.5380859,47.3046875 66.5380859,42.1337891 C66.5380859,37.0361328 63.4619141,33.9599609 58.7597656,33.9599609 C54.0576172,33.9599609 50.9814453,37.0507812 50.9814453,42.1337891 C50.9814453,47.2900391 54.0136719,50.3369141 58.7597656,50.3369141 Z M58.7597656,47.0703125 C56.6503906,47.0703125 55.3173828,45.2978516 55.3173828,42.1484375 C55.3173828,39.0283203 56.6796875,37.2265625 58.7597656,37.2265625 C60.8398438,37.2265625 62.1875,39.0283203 62.1875,42.1484375 C62.1875,45.2978516 60.8544922,47.0703125 58.7597656,47.0703125 Z M77.1142578,50.46875 C82.4316406,50.46875 85.6542969,46.2060547 85.6542969,39.3798828 C85.6542969,32.5537109 82.4023438,28.3789062 77.1142578,28.3789062 C71.8261719,28.3789062 68.5595703,32.5683594 68.5595703,39.3945312 C68.5595703,46.2353516 71.796875,50.46875 77.1142578,50.46875 Z M77.1142578,46.9238281 C74.5947266,46.9238281 73.0566406,44.1992188 73.0566406,39.3945312 C73.0566406,34.6337891 74.6240234,31.9238281 77.1142578,31.9238281 C79.6191406,31.9238281 81.1572266,34.6191406 81.1572266,39.3945312 C81.1572266,44.2138672 79.6337891,46.9238281 77.1142578,46.9238281 Z M95.46875,50.3369141 C100.214844,50.3369141 103.24707,47.3046875 103.24707,42.1337891 C103.24707,37.0361328 100.170898,33.9599609 95.46875,33.9599609 C90.7666016,33.9599609 87.6904297,37.0507812 87.6904297,42.1337891 C87.6904297,47.2900391 90.7226562,50.3369141 95.46875,50.3369141 Z M95.46875,47.0703125 C93.359375,47.0703125 92.0263672,45.2978516 92.0263672,42.1484375 C92.0263672,39.0283203 93.3886719,37.2265625 95.46875,37.2265625 C97.5488281,37.2265625 98.8964844,39.0283203 98.8964844,42.1484375 C98.8964844,45.2978516 97.5634766,47.0703125 95.46875,47.0703125 Z M109.72168,50 L109.72168,40.5224609 C109.72168,38.7646484 110.820312,37.5341797 112.446289,37.5341797 C114.02832,37.5341797 114.980469,38.5302734 114.980469,40.2148438 L114.980469,50 L119.09668,50 L119.09668,40.4638672 C119.09668,38.7207031 120.166016,37.5341797 121.791992,37.5341797 C123.447266,37.5341797 124.355469,38.5302734 124.355469,40.3466797 L124.355469,50 L128.632812,50 L128.632812,39.2773438 C128.632812,36.1132812 126.567383,34.0039062 123.491211,34.0039062 C121.191406,34.0039062 119.316406,35.2490234 118.613281,37.2265625 L118.525391,37.2265625 C117.998047,35.1757812 116.416016,34.0039062 114.145508,34.0039062 C112.006836,34.0039062 110.322266,35.2490234 109.663086,37.1386719 L109.575195,37.1386719 L109.575195,34.296875 L105.444336,34.296875 L105.444336,50 L109.72168,50 Z" id="zo0om" fill="#000" fill-rule="nonzero" mask="url(#mastersceneskeeping-in-touch-mask-2)"/></g><rect id="Rectangle" fill="#F67A49" x="254" y="441" width="119" height="57"/><path d="M198,498 L428,498 C436.284271,498 443,504.715729 443,513 L443,524 L443,524 L183,524 L183,513 C183,504.715729 189.715729,498 198,498 Z" id="Rectangle-Copy-4" fill="#FFB201"/></g><g id="Chair" transform="translate(1776.000000, 1654.000000) scale(-1, 1) translate(-1776.000000, -1654.000000) translate(1476.000000, 1254.000000) scale(0.8571428571428571 1)" blush:width="600" blush:height="800" blush:component="Chair"><g id="Chair/Tall Chair 2" stroke="none" stroke-width="1" fill="none" fill-rule="evenodd"><g id="Group" transform="translate(150.000000, 169.000000)"><path d="M322.77787,249.880468 C322.347405,248.021078 320.683897,246.630108 318.692311,246.622411 L318.658182,246.622411 L156.340052,245.99972 L156.32574,245.99972 C154.122775,245.990152 152.127886,247.502075 151.614851,249.737523 L74.0695961,627.630966 C73.7349127,629.095607 74.638778,630.563547 76.1052196,630.917612 C77.5826705,631.273876 79.0700298,630.367822 79.4278327,628.892185 L160.163589,255.682956 L315.32566,255.088083 L395.570401,628.892185 C395.922699,630.356826 397.393544,631.269478 398.866592,630.928608 C400.348446,630.586639 401.271027,629.111001 400.928637,627.630966 L322.77787,249.880468 Z" id="Fill-4" fill="#090E2B"/><path d="M265.77787,249.880468 C265.347405,248.021078 263.683897,246.630108 261.692311,246.622411 L261.658182,246.622411 L99.3400519,245.99972 L99.3257398,245.99972 C97.1227746,245.990152 95.1278856,247.502075 94.6148512,249.737523 L17.0695961,627.630966 C16.7349127,629.095607 17.638778,630.563547 19.1052196,630.917612 C20.5826705,631.273876 22.0700298,630.367822 22.4278327,628.892185 L103.163589,255.682956 L258.32566,255.088083 L338.570401,628.892185 C338.922699,630.356826 340.393544,631.269478 341.866592,630.928608 C343.348446,630.586639 344.271027,629.111001 343.928637,627.630966 L265.77787,249.880468 Z" id="Fill-4-Copy" fill="#090E2B"/><path d="M58.1921488,41.2196463 C66.3085398,81.4190302 112.030062,206.924243 136.697616,221.042896 C161.365171,235.160391 305.423549,232.409824 322.322031,233.819837 C339.220514,235.231007 357.527877,245.104572 354.711271,263.44053 C351.894665,281.777645 344.853727,276.135278 295.566004,276.135278 C246.278282,276.135278 130.805511,276.954891 130.805511,276.954891 C130.805511,276.954891 71.0083919,280.665147 46.3951587,220.787056 C23.8530616,165.945883 3.90856718,64.7475273 1.09196081,46.4104117 C-1.72348979,28.0732961 0.311817478,5.58486122 14.2642476,1.0202623 C24.8279662,-2.43531157 50.0757579,1.0202623 58.1921488,41.2196463 Z" id="Fill-1" fill="#008BF2"/></g></g></g><g id="Clock" transform="translate(1467.000000, 353.000000)"><path d="M299.456,151.596 C299.456,235.32 232.42,303.192 149.724,303.192 C67.036,303.192 -8.52651283e-13,235.32 -8.52651283e-13,151.596 C-8.52651283e-13,67.872 67.036,0 149.724,0 C232.42,0 299.456,67.872 299.456,151.596" id="Fill-1" fill="#C7D2F2"/><path d="M283.2176,151.596 C283.2176,226.24 223.4536,286.752 149.7256,286.752 C76.0016,286.752 16.2376,226.24 16.2376,151.596 C16.2376,76.952 76.0016,16.44 149.7256,16.44 C223.4536,16.44 283.2176,76.952 283.2176,151.596" id="Fill-3" fill="#F9FAFA"/><path d="M160.9052,151.596 C160.9052,157.844 155.9012,162.912 149.7252,162.912 C143.5532,162.912 138.5492,157.844 138.5492,151.596 C138.5492,145.344 143.5532,140.276 149.7252,140.276 C155.9012,140.276 160.9052,145.344 160.9052,151.596" id="Fill-5" fill="#C7D2F2"/><polygon id="Fill-7" fill="#C7D2F2" points="147.194 46.1016 152.566 46.1016 152.566 21.3776 147.194 21.3776"/><polygon id="Fill-9" fill="#C7D2F2" points="147.194 281.9576 152.566 281.9576 152.566 257.2336 147.194 257.2336"/><polygon id="Fill-10" fill="#C7D2F2" points="254.146 154.3856 278.562 154.3856 278.562 148.9456 254.146 148.9456"/><polygon id="Fill-11" fill="#C7D2F2" points="21.19 154.3856 45.61 154.3856 45.61 148.9456 21.19 148.9456"/><polygon id="Fill-12" fill="#C7D2F2" points="146.9248 147.68 149.9288 61.968 152.9368 147.68"/><polygon id="Fill-13" fill="#C7D2F2" points="146.452 153.1252 88.768 90.3172 150.704 148.8252"/></g><g id="Floor" transform="translate(465.209230, 2052.500000)" stroke="#090E2B" stroke-linecap="round" stroke-linejoin="round" stroke-width="7"><line x1="0" y1=".5" x2="639.291" y2="1" id="Path-4"/><line x1="740" y1=".5" x2="1571.291" y2="1" id="Path-4-Copy-2"/><line x1="1875.291" y1="1" x2="2161.291" y2="1" id="Path-4-Copy-3"/><line x1="0" y1=".5" x2="639.291" y2="1" id="Path-4-Copy"/></g><g id="Medium Plants" transform="translate(213.000000, 1254.000000) scale(1 1)" blush:width="845" blush:height="800" blush:component="Medium Plants"><g id="Medium Plants/Plant 5" stroke="none" stroke-width="1" fill="none" fill-rule="evenodd"><g id="Group" transform="translate(0.000000, 41.000000)"><path d="M416.63677,583.047934 L426.647451,583.047934 C426.647451,583.047934 424.80074,524.172037 465.321274,464.212062 C505.841808,404.252087 536.97489,403.156308 536.97489,403.156308 C514.014969,403.951964 487.155191,424.303882 456.395555,464.212062 C426.914076,502.461934 417.413288,568.272504 416.63677,583.047934 Z" id="Fill-5" fill="#090E2B"/><path d="M354.59194,558.411454 L345.24874,555.901054 C345.24874,555.901054 364.622625,446.510254 319.265944,368.07845 C273.909262,289.646645 77.6575283,202.398924 77.6575283,202.398924 C85.1493374,199.983041 270.872507,275.192963 328.380488,368.07845 C361.085413,420.902646 364.025485,527.827047 354.59194,558.411454 Z" id="Fill-12" fill="#090E2B"/><path d="M493.43234,427.820814 C493.43234,427.820814 440.55314,366.128814 490.17314,326.944014 C490.17314,326.944014 526.41314,305.000814 555.96914,306.781614 C555.96914,306.781614 514.09154,377.003214 527.63954,383.987214 C541.18514,390.971214 568.66034,302.377614 568.66034,302.377614 C568.66034,302.377614 651.13874,294.378414 677.67074,307.136814 C677.67074,307.136814 607.16354,364.835214 622.00994,368.272014 C636.86114,371.706414 713.01794,315.071214 713.01794,315.071214 C713.01794,315.071214 789.78194,328.136814 785.68994,374.965614 C781.59554,421.792014 755.14754,436.254414 743.52194,435.006414 C731.89394,433.763214 663.88994,407.802414 662.40914,417.328014 C660.92834,426.853614 701.86514,457.981614 730.52834,459.440814 C730.52834,459.440814 676.40834,519.124014 640.44194,501.899214 C604.47314,484.674414 601.40114,457.369614 578.98034,447.128814 C556.55954,436.885614 537.41954,436.912014 546.67874,447.359214 C555.93314,457.801614 596.50994,467.953614 609.33314,490.633614 C622.15634,513.313614 633.66194,528.611214 596.44754,523.012014 C559.23314,517.412814 498.74354,490.182414 496.08674,459.001614 L493.43234,427.820814 Z" id="Fill-1" fill="#017C7F"/><path d="M398.993366,567.130775 L407.998591,567.130775 C407.998591,567.130775 391.10022,460.315392 416.63677,368.449195 C442.173321,276.582997 480.856349,244.544738 480.856349,244.544738 C451.313712,258.975075 425.884615,305.602619 404.569057,384.427369 C393.611982,424.94654 391.021056,541.282798 398.993366,567.130775 Z" id="Fill-19" fill="#090E2B"/><path d="M308.54546,350.237934 C308.54546,350.237934 392.66546,303.130734 353.40866,239.199534 C353.40866,239.199534 322.00466,199.947534 288.35906,189.853134 C288.35906,189.853134 306.30146,285.185934 288.35906,287.429934 C270.41186,289.673934 276.02066,179.758734 276.02066,179.758734 C276.02066,179.758734 187.41746,137.139534 152.64866,140.501934 C152.64866,140.501934 207.60386,233.593134 189.66146,231.351534 C171.71426,229.107534 110.02706,134.893134 110.02706,134.893134 C110.02706,134.893134 19.1822601,118.071534 4.59986012,171.905934 C-9.98013988,225.742734 13.5734601,252.661134 27.0302601,256.023534 C40.4918601,259.388334 126.85106,258.269934 124.60706,269.485134 C122.36546,280.697934 64.0430601,298.645134 31.5182601,288.550734 C31.5182601,288.550734 67.4078601,377.153934 114.51506,372.668334 C161.61986,368.182734 176.19986,339.020334 205.36226,336.778734 C234.52226,334.534734 255.83186,342.387534 241.25186,350.237934 C226.67186,358.088334 177.32306,352.808334 153.76946,372.833934 C130.21586,392.857134 111.15026,405.193134 154.89266,414.166734 C198.63266,423.137934 277.14146,417.531534 292.84466,383.885934 L308.54546,350.237934 Z" id="Fill-7" fill="#009BA0"/><path d="M442.37138,285.271614 C442.37138,285.271614 331.48898,223.176414 383.23298,138.907614 C383.23298,138.907614 424.62818,87.1612142 468.98258,73.8532142 C468.98258,73.8532142 445.32818,199.522014 468.98258,202.478814 C492.63698,205.435614 485.24498,60.5476142 485.24498,60.5476142 C485.24498,60.5476142 578.38898,16.0270752 651.732872,7.30837358 C651.732872,7.30837358 572.955192,127.096243 614.256682,127.096243 C655.558172,127.096243 704.05538,1.41161425 704.05538,1.41161425 C704.05538,1.41161425 837.352848,-12.9891263 843.02738,50.2012142 C848.701912,113.391555 831.20258,156.646014 813.45938,161.083614 C795.72098,165.518814 681.87938,164.038014 684.83618,178.822014 C687.79298,193.608414 764.67218,217.262814 807.54578,203.957214 C807.54578,203.957214 760.23458,320.753214 698.13938,314.839614 C636.04658,308.926014 616.82498,270.487614 578.38898,267.528414 C539.94818,264.574014 511.85858,274.922814 531.07778,285.271614 C550.29698,295.620414 615.34898,288.662814 646.39538,315.058014 C677.44418,341.450814 702.57698,357.715614 644.91938,369.542814 C587.25938,381.370014 483.76658,373.978014 463.06898,329.623614 L442.37138,285.271614 Z" id="Fill-14" fill="#009BA0"/><path d="M256.80074,554.130334 L587.20074,554.130334 L571.512822,687.477634 C566.772936,727.766667 532.627666,758.130334 492.060774,758.130334 L346.771912,758.130334 C305.015121,758.130334 270.281858,726.014581 267.016842,684.385634 L256.80074,554.130334 L256.80074,554.130334 Z" id="Rectangle" fill="#FFB201"/></g></g></g></g><g transform="translate(1689.000000, 1307.000000) scale(-1, 1) translate(-1689.000000, -1307.000000) translate(1134.000000, 557.000000) scale(1 1)" blush:width="1110" blush:height="1500" id="Master/Character/Sitting" blush:component="Master/Character/Sitting"><g id="Master/Character/Sitting" stroke="none" stroke-width="1" fill="none" fill-rule="evenodd" blush:has-customizable-skin="true"><g id="Sitting" transform="translate(179.000000, 940.000000) scale(1 1)" blush:width="752" blush:height="560" blush:component="Sitting"><g id="Sitting/On Chair 3" stroke="none" stroke-width="1" fill="none" fill-rule="evenodd"><path d="M410.615323,399.49997 C410.615323,399.49997 400.357969,471.949685 396.171539,502.905682 C391.949971,534.125643 467.0487,503.736716 467.0487,503.736716 C467.0487,503.736716 453.509565,484.44329 453.304761,479.157997 C453.100961,473.870697 476.218696,412 476.218696,412 L410.615323,399.49997 Z" id="Fill-3" fill="#757EFF" blush:skin="500"/><path d="M561.035706,7.46069873e-14 C597.897949,16.8477074 635.153618,59.3884812 602.589029,139.128809 C570.024441,218.869137 493.394303,411.87247 481.349448,420.555326 C469.305594,429.239182 405.784608,412 405.784608,412 C405.784608,412 412.732597,330.944505 426.534884,251.242608 C436.641716,192.880271 457.952435,150.325862 457.952435,150.325862 C457.952435,150.325862 286.540837,174.784268 243.98254,146.076381 C188.124727,108.397247 229.480836,6.86053872 261.586066,-5.71064401 C302.858588,-21.8713886 490.854841,-32.0758202 561.035706,7.46069873e-14 Z" id="Fill-5" fill="#F67A49"/><path d="M559.105053,537.550495 C553.718837,520.869499 514.662001,509.852921 486.4598,501.514412 C476.966506,498.70607 463.702961,484.835405 457.545853,485.001479 C448.581857,485.24512 457.367415,503.898122 427.362791,502.274176 C419.4193,501.844571 418.851908,493.484184 401.591555,491.580796 C398.786673,491.272515 394.499152,490.727553 390.796066,497.394383 C388.732001,501.110663 380.282268,534.66359 388.577622,548.345309 C446.664152,549.845942 506.41276,548.363209 558.020392,547.881892 C563.059757,547.834159 560.482433,541.818697 559.105053,537.550495" id="Fill-17" fill="#FF0057"/><path d="M654.970564,412 C654.970564,412 665.530533,466.509706 672.596211,475.377601 C679.662889,484.243493 716.32892,494.221378 717.974942,499.698195 C719.618961,505.175012 639.820958,518 639.820958,518 L591,416.698422 L654.970564,412 Z" id="Fill-1" fill="#757EFF" blush:skin="500"/><path d="M790.105053,534.5497 C784.718837,517.869641 745.662001,506.853025 717.4598,498.513492 C707.966506,495.706135 694.702961,481.834427 688.545853,482.001496 C679.581857,482.244144 688.367415,500.898205 658.362791,499.274253 C650.420302,498.844647 649.85291,490.483237 632.591555,488.580837 C629.786673,488.27156 625.499152,487.727591 621.796066,494.393449 C619.732001,498.109742 611.282268,531.662786 619.577622,545.345546 C677.664152,546.846185 737.41276,545.362452 789.020392,544.881134 C794.059757,544.8334 791.482433,538.817918 790.105053,534.5497" id="Fill-10" fill="#FF0057"/><path d="M722.704751,510.429527 C726.392384,503.004274 728.005104,501.713139 726.433049,500.543939 C722.673012,497.748284 703.571309,506.385021 702.069675,511.523009 C700.944937,515.373796 713.664197,504.228541 723.820563,502.565701 C719.658833,506.366337 715.778784,518.019983 719.874061,515.696334 C739.826756,504.381943 742.973841,507.006496 742.998637,506.585624 C743.116665,504.585496 735.565843,502.966906 722.704751,510.429527" id="Fill-15" fill="#FFB201"/><path d="M180.126096,77 C192.090433,138.955221 247.290014,161.21191 295.189049,159.361921 C368.355288,156.536045 442.938988,124.042498 468.151215,113.183029 C465.930109,129.164147 477.804596,220.024734 497.628146,262.074146 C517.451696,304.123559 582.008895,430.623213 582.008895,430.623213 C582.008895,430.623213 654.850327,431.050084 657.965073,413.369038 C660.014248,401.737852 591.630112,76.8494703 569.008895,20.5961921 C556.018259,-11.7082512 513.975789,-25.6487365 427.5,-33 C340.646127,-40.3834042 214.030282,-26.7715765 214.030282,-26.7715765 C214.030282,-26.7715765 168.16176,15.0447792 180.126096,77 Z" id="Fill-7" fill="#FFB201"/><path d="M491.704751,514.429893 C495.392384,507.004835 497.005104,505.713735 495.432058,504.543583 C491.67202,501.748984 472.571309,510.385493 471.069675,515.522362 C469.944937,519.373048 482.664197,508.228087 492.820563,506.566274 C488.658833,510.36681 484.777792,522.019165 488.874061,519.69656 C508.826756,508.381485 511.973841,511.005969 511.998637,510.585107 C512.116665,508.585032 504.565843,506.966486 491.704751,514.429893" id="Fill-22" fill="#FFB201"/><path d="M546.8316,554.3915 L407.0166,556.8575 C397.6626,557.2315 383.6706,554.0145 382.3176,546.2435 C381.3066,540.4375 383.5546,527.7955 384.0206,526.9545 C387.2776,521.0945 415.0326,526.0385 423.1176,545.8275 C474.1316,549.6495 561.0086,545.9125 561.0086,545.9125 C561.0086,545.9125 562.3126,553.5935 546.8316,554.3915" id="Fill-19" fill="#090E2B"/><path d="M777.7223,550.7851 L637.9073,553.2511 C628.5543,553.6251 614.5613,550.4091 613.2083,542.6381 C612.1983,536.8321 614.4453,524.1901 614.9123,523.3491 C618.1683,517.4891 645.9233,522.4331 654.0083,542.2221 C705.0223,546.0441 791.9003,542.3071 791.9003,542.3071 C791.9003,542.3071 793.2033,549.9881 777.7223,550.7851" id="Fill-12" fill="#090E2B"/></g></g><g id="Upper Body/Sitting" transform="translate(243.000000, 170.000000) scale(1 1.0010526315789474)" blush:width="600" blush:height="951" blush:component="Upper Body/Sitting"><g id="Upper Body/Sitting/Talking 1" stroke="none" stroke-width="1" fill="none" fill-rule="evenodd"><path d="M362.489116,617 C362.489116,617 384.102925,664.92587 396.434951,673.59818 C405.517356,679.985243 523.763082,668.405945 542.122663,665.044916 C585.761968,657.056011 592.886918,666.284763 593.503151,668.041652 C595.37886,673.395601 581.112738,670.761394 581.112738,670.761394 C581.112738,670.761394 604.120118,679.047766 615.710501,687.36919 C627.300883,695.690615 617.037328,701.072759 611.480227,701.790585 C576.263911,706.337475 569.899161,691.506177 543.185428,691.506177 C517.572865,691.506177 396.434951,752.867755 355.238374,722.61953 C312.407059,691.171014 304,624.652181 304,624.652181 L362.489116,617 Z" id="hand-2" fill="#757EFF" blush:skin="500"/><path d="M263.650757,454.264565 C268.847536,464.273819 299.508931,477.962858 299.508931,477.962858 L305,507.345184 L191.160014,519 C177.987275,516.085547 141.022481,488.786399 149.157032,477.962858 C157.291584,467.139316 192.987022,460.552071 198.227995,452.109448 C208.291104,435.900611 210.130165,402.951401 209.852949,390.505277 C209.852949,387.413978 263.860677,399.517402 263.860677,399.517402 C263.860677,399.517402 257.12415,441.694548 263.650757,454.264565 Z" id="neck" fill="#757EFF" blush:skin="500"/><path d="M311.870684,484 C315.29908,486.750952 338.904578,496.688494 346.234702,532.19952 C348.873546,544.980776 365.93347,592.818223 381,631.516085 C366.805079,656.259696 347.035261,671.348041 326.111637,678 L288,592.130984 C288,592.130984 310.683854,494.905063 311.870684,484" id="Cloth-2" fill="#FF0057"/><path d="M259.137851,495.59731 C273.53729,494.042344 285.307178,469.467074 285.758788,468.917732 C286.211399,468.370392 317.260313,484.922677 326.982438,494.282493 C336.767647,668.265604 329.760759,667.297575 326.678027,684.211512 C325.250369,692.0446 317.264589,712.582173 323.042388,735.676523 C323.855641,738.92532 294.611906,743.441732 262.740259,753.477622 C208.080422,770.689163 136.867273,793.552245 132.509178,777.614891 C129.926136,768.168823 134.049995,759.163444 137.984508,753.477622 C142.50237,746.948796 174.642142,688.300416 149.321605,625.75819 C134.807011,607.440808 100.172256,590.084023 93.4051212,538.931237 C90.0816347,513.812629 108.113977,496.361785 114.391452,491.17056 C135.363763,473.827783 168.544555,463.572411 170.779572,464.013685 C184.219716,466.673338 230.649393,498.675223 259.137851,495.59731 Z" id="Cloth-1" fill="#FF0057"/><path d="M322.558668,525.141401 C327.170572,538.984546 333.684607,552.507497 337.401391,566.627943 C339.833474,576.132014 340.305446,586.270486 339.839577,596.025924 C338.872237,617.177667 335.133075,638.217691 330.971782,658.936524 C328.851974,669.486959 327.667974,675.897818 326.990531,677.556641 C326.070998,679.807973 326.345637,673.485891 328.907919,658.576431 C331.465115,641.616134 334.640758,622.505253 336.286559,605.568896 C337.523453,592.868873 337.316965,578.928971 334.53192,566.403509 C332.006256,555.372284 328.062641,545.558992 324.682544,534.719285 C324.488262,533.20809 320.577196,523.737934 322.558668,525.141401" id="Fill-15" fill="#090E2B"/><path d="M234.122367,649.743546 C234.122367,649.743546 201.972257,680.750891 201.384311,686.281574 C225.471805,792.152721 219.592907,851.131414 224.677301,866.937911 C230.70624,885.675089 247.113319,899.974574 248.101702,909.929699 C248.869891,917.673574 251.824081,923.496967 251.355795,924.169435 C248.094728,928.852731 239.646642,916.269684 239.646642,916.269684 C239.646642,916.269684 235.726985,931.006027 235.726985,945.302718 C235.726985,959.597411 223.55951,949.666266 219.642842,945.677422 C200.576612,926.258783 208.709732,893.684753 204.02886,876.78612 C192.199149,834.086897 122.554526,700.028319 125.239261,664.101602 C127.923996,628.174885 204.925426,569.135329 204.925426,569.135329 L234.122367,649.743546 Z" id="hand-1" fill="#757EFF" transform="translate(188.284742, 760.949071) rotate(-40.000000) translate(-188.284742, -760.949071)" blush:skin="500"/><path d="M62,644.1582 C73.1142051,664.702661 128.054813,667 153.930887,667 C153.930887,667 155.508877,653.408806 160.581146,634.375335 C166.977236,610.374284 98.0039349,511 98.0039349,511 C83.5305931,539.849202 71.140835,588.40843 62,644.1582 Z" id="Cloth-3" fill="#FF0057"/><path d="M157.005302,653.762196 C156.966548,653.083438 157.149044,650.362716 157.266503,649.587554 C161.112624,624.205558 163.459289,615.828873 167.97857,590.442515 C167.979564,590.442515 175.257584,548.726862 177,550.029903 C173.936468,577.387463 157.307382,658.964007 157.005302,653.762196 Z" id="Fill-17" fill="#090E2B"/></g></g><g id="Head" transform="translate(341.000000, 346.000000) scale(1 1)" blush:width="300" blush:height="300" blush:component="Head"><g id="Head/Hair Bun Dark" stroke="none" stroke-width="1" fill="none" fill-rule="evenodd"><path d="M199.344059,265.553095 C216.516924,263.335386 241.691505,222.379074 236.024106,172.148465 C230.356708,121.917856 241.691505,121.917856 230.01893,81.5710225 C220.329736,48.0798441 161.708955,79.0941821 138.1545,89.6041 C110.246649,102.056489 86.0355,150.8011 87.6185,184.7161 C87.6185,224.594598 145.237382,272.54045 199.344059,265.553095 Z" id="Fill-1" fill="#757EFF" blush:skin="500"/><path d="M193.5844,33.9056 C150.2074,14.2296 105.6884,35.1006 105.6884,35.1006 C118.5984,-30.0504 38.0714,-33.9034 17.3444,29.3026 C3.2354,65.4986 37.2294,97.3536 54.9914,81.5726 C39.5924,101.0976 42.2994,153.2116 59.4064,183.8516 C66.4564,196.4786 78.6364,205.7256 88.9734,207.6486 C107.8404,211.1596 88.8364,193.3466 86.9744,187.8896 C87.7264,172.1066 106.4474,144.4096 109.9404,178.8516 C111.3964,187.5766 106.8344,222.2976 107.4114,230.4736 C107.8204,236.2766 108.1734,239.4086 111.7514,246.0656 C115.1854,252.4546 113.0344,265.5186 113.4164,266.9406 C113.9394,263.3896 115.1464,256.9646 113.9464,249.5446 C113.4484,246.4556 112.2384,243.3206 110.8584,239.9496 C107.9674,232.8816 114.1684,216.7296 117.1604,179.2596 C119.2104,153.5926 106.2734,140.1506 121.6944,130.4506 C153.1814,110.6466 206.1304,133.4336 236.4844,108.1216 C250.1884,96.6956 237.1654,53.6756 193.5844,33.9056" id="Fill-3" fill="#090E2B"/><path d="M108.016,170.0277 C110.682,180.5817 111.718862,189.325045 102.418862,193.792045 C93.1178621,198.259045 76.839,190.9327 72.126,181.1207 C67.413,171.3077 69.907,156.1527 79.058,151.3867 C93.319,143.9607 104.57649,156.411576 108.016,170.0277 Z" id="Fill-6" fill="#757EFF" blush:skin="500"/><path d="M107.0241,22.7615 C108.7201,24.7845 106.6701,28.7715 105.5911,26.3665 C100.2951,21.6835 83.5781,30.9485 79.3101,35.2825 C64.5022581,48.7512605 56.5310332,63.01493 54.9982454,81.52041 C55.0086551,81.4325177 55.1506358,81.1065033 55.2124,80.9273 C62.9104,58.6643 80.6224,35.9053 105.5624,33.7633 C106.4504,33.6903 106.6934,35.0523 105.8134,35.2673 C81.4394,41.4393 66.3594,61.2143 55.2544,81.0903 C55.1694,81.2413 55.0364,81.5563 55.0014,81.5446334 L54.9974988,81.5294302 C54.9966974,81.539119 54.9958978,81.5488089 54.9951,81.5585 C54.9901,81.6215 54.9741,81.4295 54.9711,81.3665 C53.7271,59.3915 68.2001,37.4115 86.1501,26.2935 C91.8931,22.7355 101.9861,16.7525 107.0241,22.7615 Z" id="Combined-Shape" fill="#FFB201"/><path d="M100.3978,178.1312 C99.8758,174.3442 99.0018,170.9522 96.5408,168.0812 C92.8728,163.9912 87.4958,161.4252 82.0198,161.7142 C81.6068,161.7352 80.6908,162.3182 80.6278,162.7422 C80.5488,163.2702 81.4808,163.7792 82.0058,163.8082 C87.8878,164.5712 93.6318,167.8562 96.4468,173.1822 C93.1198,171.9562 85.4758,175.8292 86.0728,178.4382 C86.4988,180.3022 92.8178,174.3252 97.8648,176.1792 C98.4678,177.6342 99.0788,179.9952 99.5408,182.3572 C99.6238,182.7792 99.8948,183.2822 100.2708,183.0372 C100.8858,182.6372 100.5948,179.5582 100.3978,178.1312" id="Fill-12" fill="#090E2B"/><path d="M132.3031,247.9544 C137.5441,250.6564 146.3971,255.2584 154.0611,258.6254 C156.5331,259.7114 159.0641,260.7364 161.6331,261.6154 C161.8811,261.6984 161.5831,262.6034 159.8031,262.1904 C154.5061,260.9634 149.3321,258.8404 143.9951,256.1334 C139.5371,253.8724 133.7531,250.3594 131.3071,248.4984 C129.3351,246.9994 129.8901,246.7114 132.3031,247.9544" id="Fill-14" fill="#000"/></g></g><g id="Expressions" transform="translate(462.000000, 479.000000) scale(1 1)" blush:width="120" blush:height="120" blush:component="Expressions"><g id="Expressions/Relaxed" stroke="none" stroke-width="1" fill="none" fill-rule="evenodd"><path d="M93.917,85.9779 C78.288,85.3499 67.34,84.9099 56.819,84.4879 C53.549,84.3559 50.673,90.0739 56.294,97.5689 C64.259,108.1889 84.891,111.8759 93.281,99.0539 C97.555,92.5239 97.31,86.1149 93.917,85.9779" id="Fill-1" fill="#FFF"/><path d="M82.7872,55.7084 C86.8282,59.4834 96.9612,74.6464 87.8282,76.8394 C85.9422,77.2914 77.3212,77.5114 78.5922,75.6374 C79.6052,74.1434 85.9772,75.0244 86.8982,72.1854 C88.1082,68.4554 83.7122,61.1524 80.9722,56.1434 C80.5012,55.2804 82.1522,54.9674 82.7872,55.7084" id="nose" fill="#090E2B"/><path d="M63.2787643,47.5005595 C63.8977643,55.1465595 54.2727643,60.0135595 46.1077643,56.1935595 C41.9017643,54.2275595 39.7587643,51.2665595 40.7837643,50.0295595 C41.4397643,49.2375595 43.3107643,50.3635595 43.9337643,50.7335595 C52.2097643,55.6545595 58.7657643,51.2125595 60.7667643,46.8055595 C61.5487643,45.0855595 63.0797643,45.0435595 63.2787643,47.5005595 Z M104.514164,42.1987595 C103.866164,45.3027595 102.660164,46.8727595 101.140164,47.9767595 C96.7091643,51.1937595 89.4801643,47.9737595 88.0981643,45.0087595 C87.0641643,42.7917595 88.5051643,42.7377595 90.1931643,43.7887595 C92.8701643,45.4587595 95.4171643,45.8007595 97.1021643,45.4817595 C100.340164,44.8707595 101.879164,41.6127595 103.045164,40.2707595 C103.679164,39.5417595 105.019164,39.7827595 104.514164,42.1987595 Z" id="eye" fill="#090E2B" transform="translate(72.577838, 48.716394) rotate(3.000000) translate(-72.577838, -48.716394)"/><path d="M62.79355,24.2519929 C66.09155,27.4989929 65.39755,33.0019929 61.13355,31.9079929 C49.32655,25.7259929 38.64055,24.0389929 28.38555,32.9259929 C24.70055,36.1199929 22.78655,33.4669929 23.96555,30.1789929 C24.80555,27.8369929 28.41655,23.5259929 31.44155,21.8919929 C41.35255,16.5349929 55.59955,17.1699929 62.79355,24.2519929 Z M106.56795,16.9292929 C108.41995,18.3412929 109.65195,21.1502929 106.65095,21.9192929 C105.57695,22.1952929 94.27495,18.5422929 86.72495,27.4442929 C85.02995,29.4432929 81.19395,28.9722929 81.57395,25.6042929 C82.55195,16.9622929 97.18895,9.78229286 106.56795,16.9292929 Z" id="eybrow" fill="#090E2B" transform="translate(66.040205, 24.189369) rotate(3.000000) translate(-66.040205, -24.189369)"/></g></g><g id="Facial Accesories" transform="translate(459.000000, 529.000000) scale(1 1)" fill="#000" blush:width="120" blush:height="110" blush:component="Facial Accesories"><g id="Facial Accesories/None" stroke="none" stroke-width="1" fill="none" fill-rule="evenodd" fill-opacity="0"/></g><g id="Glass" transform="translate(462.000000, 484.000000) scale(1 1)" fill="#000" blush:width="120" blush:height="75" blush:component="Glass"><g id="Glass/None" stroke="none" stroke-width="1" fill="none" fill-rule="evenodd" fill-opacity="0"/></g></g></g></g></svg>