<svg viewBox="277.5 330 697.5 1169.9999999999998" xmlns="http://www.w3.org/2000/svg" xmlns:xlink="http://www.w3.org/1999/xlink" xmlns:blush="http://design.blush" overflow="visible" width="596.1538461538463px" height="1000px"><g id="Master/Character/Sitting" stroke="none" stroke-width="1" fill="none" fill-rule="evenodd" blush:has-customizable-skin="true"><g id="Sitting" transform="translate(179.000000, 940.000000) scale(1 1)" blush:width="752" blush:height="560" blush:component="Sitting"><g id="Sitting/On Chair 3" stroke="none" stroke-width="1" fill="none" fill-rule="evenodd"><path d="M410.615323,399.49997 C410.615323,399.49997 400.357969,471.949685 396.171539,502.905682 C391.949971,534.125643 467.0487,503.736716 467.0487,503.736716 C467.0487,503.736716 453.509565,484.44329 453.304761,479.157997 C453.100961,473.870697 476.218696,412 476.218696,412 L410.615323,399.49997 Z" id="Fill-3" fill="#757EFF" blush:skin="500"/><path d="M561.035706,7.46069873e-14 C597.897949,16.8477074 635.153618,59.3884812 602.589029,139.128809 C570.024441,218.869137 493.394303,411.87247 481.349448,420.555326 C469.305594,429.239182 405.784608,412 405.784608,412 C405.784608,412 412.732597,330.944505 426.534884,251.242608 C436.641716,192.880271 457.952435,150.325862 457.952435,150.325862 C457.952435,150.325862 286.540837,174.784268 243.98254,146.076381 C188.124727,108.397247 229.480836,6.86053872 261.586066,-5.71064401 C302.858588,-21.8713886 490.854841,-32.0758202 561.035706,7.46069873e-14 Z" id="Fill-5" fill="#F67A49"/><path d="M559.105053,537.550495 C553.718837,520.869499 514.662001,509.852921 486.4598,501.514412 C476.966506,498.70607 463.702961,484.835405 457.545853,485.001479 C448.581857,485.24512 457.367415,503.898122 427.362791,502.274176 C419.4193,501.844571 418.851908,493.484184 401.591555,491.580796 C398.786673,491.272515 394.499152,490.727553 390.796066,497.394383 C388.732001,501.110663 380.282268,534.66359 388.577622,548.345309 C446.664152,549.845942 506.41276,548.363209 558.020392,547.881892 C563.059757,547.834159 560.482433,541.818697 559.105053,537.550495" id="Fill-17" fill="#FF0057"/><path d="M654.970564,412 C654.970564,412 665.530533,466.509706 672.596211,475.377601 C679.662889,484.243493 716.32892,494.221378 717.974942,499.698195 C719.618961,505.175012 639.820958,518 639.820958,518 L591,416.698422 L654.970564,412 Z" id="Fill-1" fill="#757EFF" blush:skin="500"/><path d="M790.105053,534.5497 C784.718837,517.869641 745.662001,506.853025 717.4598,498.513492 C707.966506,495.706135 694.702961,481.834427 688.545853,482.001496 C679.581857,482.244144 688.367415,500.898205 658.362791,499.274253 C650.420302,498.844647 649.85291,490.483237 632.591555,488.580837 C629.786673,488.27156 625.499152,487.727591 621.796066,494.393449 C619.732001,498.109742 611.282268,531.662786 619.577622,545.345546 C677.664152,546.846185 737.41276,545.362452 789.020392,544.881134 C794.059757,544.8334 791.482433,538.817918 790.105053,534.5497" id="Fill-10" fill="#FF0057"/><path d="M722.704751,510.429527 C726.392384,503.004274 728.005104,501.713139 726.433049,500.543939 C722.673012,497.748284 703.571309,506.385021 702.069675,511.523009 C700.944937,515.373796 713.664197,504.228541 723.820563,502.565701 C719.658833,506.366337 715.778784,518.019983 719.874061,515.696334 C739.826756,504.381943 742.973841,507.006496 742.998637,506.585624 C743.116665,504.585496 735.565843,502.966906 722.704751,510.429527" id="Fill-15" fill="#FFB201"/><path d="M180.126096,77 C192.090433,138.955221 247.290014,161.21191 295.189049,159.361921 C368.355288,156.536045 442.938988,124.042498 468.151215,113.183029 C465.930109,129.164147 477.804596,220.024734 497.628146,262.074146 C517.451696,304.123559 582.008895,430.623213 582.008895,430.623213 C582.008895,430.623213 654.850327,431.050084 657.965073,413.369038 C660.014248,401.737852 591.630112,76.8494703 569.008895,20.5961921 C556.018259,-11.7082512 513.975789,-25.6487365 427.5,-33 C340.646127,-40.3834042 214.030282,-26.7715765 214.030282,-26.7715765 C214.030282,-26.7715765 168.16176,15.0447792 180.126096,77 Z" id="Fill-7" fill="#FFB201"/><path d="M491.704751,514.429893 C495.392384,507.004835 497.005104,505.713735 495.432058,504.543583 C491.67202,501.748984 472.571309,510.385493 471.069675,515.522362 C469.944937,519.373048 482.664197,508.228087 492.820563,506.566274 C488.658833,510.36681 484.777792,522.019165 488.874061,519.69656 C508.826756,508.381485 511.973841,511.005969 511.998637,510.585107 C512.116665,508.585032 504.565843,506.966486 491.704751,514.429893" id="Fill-22" fill="#FFB201"/><path d="M546.8316,554.3915 L407.0166,556.8575 C397.6626,557.2315 383.6706,554.0145 382.3176,546.2435 C381.3066,540.4375 383.5546,527.7955 384.0206,526.9545 C387.2776,521.0945 415.0326,526.0385 423.1176,545.8275 C474.1316,549.6495 561.0086,545.9125 561.0086,545.9125 C561.0086,545.9125 562.3126,553.5935 546.8316,554.3915" id="Fill-19" fill="#090E2B"/><path d="M777.7223,550.7851 L637.9073,553.2511 C628.5543,553.6251 614.5613,550.4091 613.2083,542.6381 C612.1983,536.8321 614.4453,524.1901 614.9123,523.3491 C618.1683,517.4891 645.9233,522.4331 654.0083,542.2221 C705.0223,546.0441 791.9003,542.3071 791.9003,542.3071 C791.9003,542.3071 793.2033,549.9881 777.7223,550.7851" id="Fill-12" fill="#090E2B"/></g></g><g id="Upper Body/Sitting" transform="translate(243.000000, 170.000000) scale(1 1.0010526315789474)" blush:width="600" blush:height="951" blush:component="Upper Body/Sitting"><g id="Upper Body/Sitting/With Laptop 2" stroke="none" stroke-width="1" fill="none" fill-rule="evenodd"><path d="M286,448 C299.897744,455.921341 321.104762,472.380594 333.718296,510.851246 C344.319799,543.182208 368.570426,589.863468 369.354386,594.556818 C381.885714,599.248165 432,624.250335 432,624.250335 C432,624.250335 397.462657,680 394.617544,680 C391.772431,680 374.926316,679.132196 358.611529,677.849007 C305.347368,673.659124 302.614536,637.159298 299.972932,622.270501 C291.423559,574.087849 289.988972,453.178799 286,448" id="Fill-1" fill="#3615F6"/><path d="M203.679151,373 C203.679151,373 215.229331,430.303881 207.463916,436.256492 C203.587205,439.227797 187,443.605246 187,443.605246 C187,443.605246 227.844881,476.129585 252.813137,476.96667 C277.781394,477.804756 294.465542,462.609197 291.701174,457.100632 C287.563617,448.857786 258.31289,441.49803 257.220535,434.162277 C255.97527,425.794418 256.520948,389.17366 256.520948,389.17366 L203.679151,373 Z" id="Fill-3" fill="#757EFF" blush:skin="500"/><path d="M126.184505,468.342476 C125.002186,478.894299 113.435856,610.158935 129.05485,629.825107 C147.759064,653.375262 120.261982,728.82987 108.359845,748.03657 C87.6537852,781.449841 64.3166863,841.502534 140.313976,792.467721 C209.312108,747.948891 301.722567,743.108946 319.78994,737.774737 C325.932837,735.961109 321.713595,730.27781 321.315178,726.364029 C316.679522,680.826473 327.909685,585.790688 328,553.731805 C328.055934,533.118896 305.179977,458.994379 287.180983,448.377871 C283.594436,446.262385 265.900876,438.7287 265.900876,441.674123 C265.900876,456.143958 264.742502,476.667028 257.86395,476.667028 C240.342037,476.667028 195.013598,444.859031 187.990864,441.674123 C171.889149,444.931464 127.535726,456.296121 126.184505,468.342476 Z" id="Fill-8" fill="#3615F6"/><path d="M306.704585,490.534972 C316.374503,509.14719 326.773513,528.760225 327.723884,549.893504 C328.925103,576.556303 325.874129,607.021211 324.942113,633.743058 C324.666791,640.721764 324.410844,647.704473 324.396568,654.681177 C324.408804,655.087509 323.712342,655.122538 323.71744,654.687182 C323.051569,622.181606 327.107979,582.533189 325.629398,549.983577 C324.683106,529.178567 314.437052,509.034097 306.020359,490.084604 C305.874541,489.817386 306.554688,490.242733 306.704585,490.534972" id="Fill-13" fill="#090E2B"/><g id="macbook" transform="translate(272.000000, 506.000000)"><path d="M128.369769,133.885873 L8.73676899,144.014873 C6.69576899,144.183873 0.282768988,146.862873 0.061768988,148.897873 C0.061768988,148.897873 -0.885231012,154.143873 4.63676899,154.143873 L128.369769,154.143873 L128.369769,133.885873 Z" id="Fill-15" fill="#FFF"/><path d="M291.427369,154.143673 L104.125369,154.143673 L155.804369,16.8866731 C158.941369,9.13767308 165.583369,1.39167308 176.064369,1.39167308 L332.657369,1.50967308 C349.488369,1.38767308 351.600369,7.63367308 347.981369,17.4746731 C337.556369,45.8156731 310.743369,125.167673 301.525369,147.401673 C299.831369,151.484673 295.848369,154.143673 291.427369,154.143673" id="Fill-17" fill="#FFF"/><path d="M331.825869,0.472773078 C288.588869,0.368773078 228.596869,0.280773078 185.250869,0.171773078 C170.143869,-0.767226922 160.767869,1.79077308 154.508869,16.7147731 C140.546869,53.9127731 124.393869,97.3387731 110.856869,134.831773 L14.822869,143.498773 C23.939869,142.767773 111.379869,136.466773 111.634869,135.662773 C127.012869,97.3197731 143.173869,52.3277731 158.530869,14.1057731 C164.816869,2.51877308 173.500869,2.15277308 185.250869,2.62477308 L217.823869,2.60777308 C239.133869,2.71277308 294.971869,2.40477308 315.545869,2.55477308 C322.945869,3.41577308 346.266869,-0.690226922 348.296869,8.78777308 C348.671869,17.7947731 343.153869,26.7887731 340.525869,35.4077731 C338.150869,43.1977731 329.799869,66.1667731 329.799869,66.1667731 C321.256869,90.2607731 311.655869,119.224773 302.571869,142.877773 C299.154869,153.682773 294.621869,153.788773 284.461869,153.531773 C279.322869,153.570773 265.939869,154.131773 260.653869,154.177773 C260.017869,154.186773 259.380869,154.620773 260.031869,154.638773 C269.386869,154.517773 283.454869,155.017773 292.670869,154.716773 C298.834869,154.369773 302.237869,148.676773 303.891869,143.396773 C313.711869,118.074773 322.541869,92.3867731 331.558869,66.7807731 C335.051869,56.1947731 343.917869,30.7067731 347.853869,20.7337731 C354.162869,4.75377308 346.736869,-0.0142269223 331.825869,0.472773078" id="Fill-19" fill="#090E2B"/></g><path d="M258.796,651.4745 C258.431,651.5035 258.215,651.5225 258.204,651.5255 L258.796,651.4745 Z" id="Fill-21" fill="#000"/><path d="M471,659.77464 L504.34249,659.77464 C516.166804,659.993091 509.981102,635.808751 522.899595,638.161144 C533.929232,640.168668 533.431062,646.637243 532.285968,659.679573 C534.51925,656.887244 538.763185,655.96793 540.215766,656.916573 C542.293307,658.273801 539.968178,658.675306 536.461017,664.296372 C532.405769,670.794276 520.878959,676.87146 507.139833,678.026418 C503.004717,678.37331 479.248268,682 479.248268,682 L471,659.77464 Z" id="Fill-23" fill="#757EFF" blush:skin="500"/><path d="M276.484788,647.782529 C276.484788,647.782529 285.751639,641.180324 293.699971,642.113704 C304.303446,643.356531 305.148265,638.574721 307.859729,642.742678 C308.45613,643.657915 306.585461,646.596148 301.674452,647.687779 C295.045646,649.160424 297.823489,653.249759 297.823489,653.249759 C297.823489,653.249759 320.845793,658.740173 324.083257,659.318748 C325.871455,659.638274 326.353203,664.726508 312.835105,668.738229 C305.78389,670.830776 295.70742,670.886214 283.829678,671.28537 C280.525835,671.398263 242.530133,683 242.530133,683 L240.187774,664.067295 L239,644.393733 L276.484788,647.782529 Z" id="Fill-25" fill="#757EFF" blush:skin="500"/><path d="M395,680.024576 C395,680.024576 490.408936,683.88086 496.352355,682.813133 C502.294776,681.745407 490.25232,660 490.25232,660 L404.045808,660 L395,680.024576 Z" id="Fill-27" fill="#3615F6"/><g id="blush" transform="translate(471.000000, 571.000000)"><path d="M35.1719616,15.0154 L35.1569616,15.0154 C30.8929616,15.0154 29.0199616,13.2234 28.2829616,12.1544 C27.7349616,11.3584 27.9349616,10.2684 28.7309616,9.7204 C29.5259616,9.1714 30.6169616,9.3734 31.1639616,10.1674 C31.7549616,11.0244 33.2109616,11.5154 35.1579616,11.5154 L35.1709616,11.5154 C38.1609616,11.5154 40.2469616,10.3894 41.2259616,9.7184 C42.0239616,9.1694 43.1119616,9.3744 43.6579616,10.1704 C44.2049616,10.9674 44.0029616,12.0564 43.2059616,12.6034 C40.9419616,14.1594 38.0879616,15.0154 35.1719616,15.0154" id="Fill-29" fill="#090E2B"/><path d="M23.1172616,17.7987 C20.7432616,23.9947 13.8222616,29.0177 7.66026163,29.0177 C1.49826163,29.0177 -1.57173837,23.9947 0.803261628,17.7987 C3.17726163,11.6037 10.0972616,6.5807 16.2602616,6.5807 C22.4222616,6.5807 25.4922616,11.6037 23.1172616,17.7987" id="Fill-31" fill="#FF00A4"/><path d="M66.9864616,17.7987 C64.6114616,23.9947 57.6904616,29.0177 51.5284616,29.0177 C45.3664616,29.0177 42.2964616,23.9947 44.6714616,17.7987 C47.0464616,11.6037 53.9654616,6.5807 60.1284616,6.5807 C66.2914616,6.5807 69.3614616,11.6037 66.9864616,17.7987" id="Fill-33" fill="#FF00A4"/><path d="M26.9229616,2.951 C26.2979616,4.582 24.4769616,5.903 22.8559616,5.903 C21.2339616,5.903 20.4259616,4.582 21.0509616,2.951 C21.6759616,1.321 23.4969616,1.27897692e-13 25.1179616,1.27897692e-13 C26.7389616,1.27897692e-13 27.5479616,1.321 26.9229616,2.951" id="Fill-35" fill="#090E2B"/><path d="M57.8731616,2.951 C57.2481616,4.582 55.4271616,5.903 53.8061616,5.903 C52.1841616,5.903 51.3761616,4.582 52.0011616,2.951 C52.6261616,1.321 54.4461616,1.27897692e-13 56.0681616,1.27897692e-13 C57.6891616,1.27897692e-13 58.4971616,1.321 57.8731616,2.951" id="Fill-37" fill="#090E2B"/></g><path d="M187.019737,561.172044 C178.530191,583.552303 131.3747,633.528851 131.3747,633.528851 C131.3747,633.528851 241.683867,644.975335 257.978722,644.973336 C258.357301,650.702075 253.558644,694.183321 253.558644,694.183321 C205.5531,700.984449 53.1528019,720.653251 41.0842405,680.373183 C15.9392402,596.451959 114.605373,481.936153 127.273267,466.450969 C145.017508,444.759318 198.374094,531.239085 187.019737,561.172044" id="Fill-39" fill="#3615F6"/><path d="M257.714312,644.434477 C215.358945,642.422509 176.7689,635.397047 134.316447,631.664801 C149.269639,615.654672 163.80246,599.172661 176.277466,581.150564 C180.554239,574.793103 184.437665,568.47845 186.982911,561.201119 C187.06098,560.96916 187.670517,559.083625 187.438313,559 C177.526568,579.201314 161.244203,598.575343 145.831606,615.385879 C140.65604,620.973794 135.381386,626.497 130.005644,631.864903 C129.11686,632.701149 127.893781,634.197432 130.974499,634.402511 C163.524215,636.572769 196.11797,640.632544 228.597624,643.661945 C239.483228,644.455383 245.18726,644.960117 256.13592,645 C257.896473,645.006907 258.378898,644.418548 257.714312,644.434477" id="Fill-42" fill="#090E2B"/><path d="M254.944007,679 C254.4264,679 250.564855,694.198599 249.376799,694.362446 C209.234389,699.898561 166.001241,705.665023 125.323956,704.408293 C124.561077,704.330685 125.277147,705.059999 126.113724,705.141586 C155.990477,708.395141 220.893909,701.486064 230.655965,699.595619 C248.854502,696.071433 250.413547,696.344934 251.194352,695.113161 C254.039194,684.371054 255.289079,679 254.944007,679 Z" id="Fill-44" fill="#090E2B"/></g></g><g id="Head" transform="translate(341.000000, 346.000000) scale(1 1)" blush:width="300" blush:height="300" blush:component="Head"><g id="Head/Hair Bun Dark" stroke="none" stroke-width="1" fill="none" fill-rule="evenodd"><path d="M199.344059,265.553095 C216.516924,263.335386 241.691505,222.379074 236.024106,172.148465 C230.356708,121.917856 241.691505,121.917856 230.01893,81.5710225 C220.329736,48.0798441 161.708955,79.0941821 138.1545,89.6041 C110.246649,102.056489 86.0355,150.8011 87.6185,184.7161 C87.6185,224.594598 145.237382,272.54045 199.344059,265.553095 Z" id="Fill-1" fill="#757EFF" blush:skin="500"/><path d="M193.5844,33.9056 C150.2074,14.2296 105.6884,35.1006 105.6884,35.1006 C118.5984,-30.0504 38.0714,-33.9034 17.3444,29.3026 C3.2354,65.4986 37.2294,97.3536 54.9914,81.5726 C39.5924,101.0976 42.2994,153.2116 59.4064,183.8516 C66.4564,196.4786 78.6364,205.7256 88.9734,207.6486 C107.8404,211.1596 88.8364,193.3466 86.9744,187.8896 C87.7264,172.1066 106.4474,144.4096 109.9404,178.8516 C111.3964,187.5766 106.8344,222.2976 107.4114,230.4736 C107.8204,236.2766 108.1734,239.4086 111.7514,246.0656 C115.1854,252.4546 113.0344,265.5186 113.4164,266.9406 C113.9394,263.3896 115.1464,256.9646 113.9464,249.5446 C113.4484,246.4556 112.2384,243.3206 110.8584,239.9496 C107.9674,232.8816 114.1684,216.7296 117.1604,179.2596 C119.2104,153.5926 106.2734,140.1506 121.6944,130.4506 C153.1814,110.6466 206.1304,133.4336 236.4844,108.1216 C250.1884,96.6956 237.1654,53.6756 193.5844,33.9056" id="Fill-3" fill="#090E2B"/><path d="M108.016,170.0277 C110.682,180.5817 111.718862,189.325045 102.418862,193.792045 C93.1178621,198.259045 76.839,190.9327 72.126,181.1207 C67.413,171.3077 69.907,156.1527 79.058,151.3867 C93.319,143.9607 104.57649,156.411576 108.016,170.0277 Z" id="Fill-6" fill="#757EFF" blush:skin="500"/><path d="M107.0241,22.7615 C108.7201,24.7845 106.6701,28.7715 105.5911,26.3665 C100.2951,21.6835 83.5781,30.9485 79.3101,35.2825 C64.5022581,48.7512605 56.5310332,63.01493 54.9982454,81.52041 C55.0086551,81.4325177 55.1506358,81.1065033 55.2124,80.9273 C62.9104,58.6643 80.6224,35.9053 105.5624,33.7633 C106.4504,33.6903 106.6934,35.0523 105.8134,35.2673 C81.4394,41.4393 66.3594,61.2143 55.2544,81.0903 C55.1694,81.2413 55.0364,81.5563 55.0014,81.5446334 L54.9974988,81.5294302 C54.9966974,81.539119 54.9958978,81.5488089 54.9951,81.5585 C54.9901,81.6215 54.9741,81.4295 54.9711,81.3665 C53.7271,59.3915 68.2001,37.4115 86.1501,26.2935 C91.8931,22.7355 101.9861,16.7525 107.0241,22.7615 Z" id="Combined-Shape" fill="#FFB201"/><path d="M100.3978,178.1312 C99.8758,174.3442 99.0018,170.9522 96.5408,168.0812 C92.8728,163.9912 87.4958,161.4252 82.0198,161.7142 C81.6068,161.7352 80.6908,162.3182 80.6278,162.7422 C80.5488,163.2702 81.4808,163.7792 82.0058,163.8082 C87.8878,164.5712 93.6318,167.8562 96.4468,173.1822 C93.1198,171.9562 85.4758,175.8292 86.0728,178.4382 C86.4988,180.3022 92.8178,174.3252 97.8648,176.1792 C98.4678,177.6342 99.0788,179.9952 99.5408,182.3572 C99.6238,182.7792 99.8948,183.2822 100.2708,183.0372 C100.8858,182.6372 100.5948,179.5582 100.3978,178.1312" id="Fill-12" fill="#090E2B"/><path d="M132.3031,247.9544 C137.5441,250.6564 146.3971,255.2584 154.0611,258.6254 C156.5331,259.7114 159.0641,260.7364 161.6331,261.6154 C161.8811,261.6984 161.5831,262.6034 159.8031,262.1904 C154.5061,260.9634 149.3321,258.8404 143.9951,256.1334 C139.5371,253.8724 133.7531,250.3594 131.3071,248.4984 C129.3351,246.9994 129.8901,246.7114 132.3031,247.9544" id="Fill-14" fill="#000"/></g></g><g id="Expressions" transform="translate(462.000000, 479.000000) scale(1 1)" blush:width="120" blush:height="120" blush:component="Expressions"><g id="Expressions/Smile" stroke="none" stroke-width="1" fill="none" fill-rule="evenodd"><g id="eye1" transform="translate(21.027098, 10.213671)"><path d="M0.0487023333,7.96572872 C1.82485498,-0.0171869856 25.1977023,-2.81531309 35.4827023,3.36568691 C39.0387023,5.47868691 45.6427023,11.2837287 39.7957023,14.4437287 C38.2517023,15.1157287 36.7517023,14.4267287 35.4827023,13.6077287 C21.4647023,3.86572872 -1.18942441,13.5304877 0.0487023333,7.96572872 Z" id="Fill-1" fill="#090E2B"/><path d="M19.0113023,22.3973287 C13.7233023,23.8973287 9.19030233,28.1473287 8.76930233,31.6693287 C8.51430233,33.7973287 16.8643023,38.9063287 24.9173023,39.3033287 C35.5113023,39.8243287 40.8513023,34.0853287 40.8324531,32.2513287 C40.1193023,26.7013287 33.7283023,18.2233287 19.0113023,22.3973287 Z" id="Fill-6" fill="#FFF"/><path d="M35.3981023,25.5550287 C27.2551023,19.4010287 14.6431023,23.4110287 8.76910233,31.6690287 C8.43210233,32.0970287 8.52910233,31.0200287 8.76310233,30.5290287 C11.5971023,24.5820287 16.7101023,21.7750287 22.6381023,20.5510287 C26.2051023,19.8140287 29.5311023,19.7540287 33.0101023,21.3120287 C34.3551023,21.9130287 36.7311023,23.7450287 38.5671023,25.8170287 C39.9991023,27.4320287 41.2051023,30.2010287 39.5481023,29.2220287 C38.2511023,28.4550287 36.4781023,26.3720287 35.3981023,25.5550287 Z" id="Fill-8" fill="#090E2B"/><path d="M24.8135023,36.0623287 C29.3405023,36.0623287 33.0105023,32.7143287 33.0105023,28.5833287 C33.0105023,24.4533287 29.3405023,21.1043287 24.8135023,21.1043287 C20.2865023,21.1043287 16.6165023,24.4533287 16.6165023,28.5833287 C16.6165023,32.7143287 20.2865023,36.0623287 24.8135023,36.0623287 Z" id="Fill-10" fill="#090E2B"/></g><g id="eye2" transform="translate(81.203378, 15.000183)"><path d="M23.2557812,1.861246 C26.6096324,3.34897691 31.0744206,8.28711729 27.357522,8.28711729 C23.6406234,8.28711729 15.5900245,7.23270759 10.1930245,9.45970759 C8.30802454,9.94170759 6.87752199,10.8641173 4.98452199,11.0891173 C0.67652199,11.9281173 -1.66408888,6.76839233 1.38185604,3.64904337 C4.82290212,0.125071736 16.4397812,-1.545754 23.2557812,1.861246 Z" id="Fill-4" fill="#090E2B"/><path d="M19.455322,34.2343173 C24.826322,32.9853173 28.843322,28.1153173 28.389322,24.4763173 C27.503322,19.6543173 18.218322,16.5753173 13.017322,19.2083173 C7.86632199,21.8153173 4.64332199,27.6403173 5.05932199,29.9403173 C5.66032199,31.5323173 13.966322,35.5113173 19.455322,34.2343173 Z" id="Fill-12" fill="#FFF"/><path d="M15.011222,31.6060173 C18.549222,31.6060173 21.417222,28.8520173 21.417222,25.4560173 C21.417222,22.0590173 19.396222,18.8490173 15.011222,19.3060173 C11.492222,19.6720173 8.60422199,22.0590173 8.60422199,25.4560173 C8.60422199,28.8520173 11.473222,31.6060173 15.011222,31.6060173 Z" id="Fill-14" fill="#090E2B"/><path d="M5.25072199,26.6376173 C7.27972199,19.0636173 16.440722,15.1686173 23.685722,18.7546173 C24.705722,19.2866173 26.361722,20.4806173 27.601722,21.9226173 C28.742722,23.2526173 28.593722,23.9496173 28.127722,23.8116173 C27.355722,23.5816173 25.722722,22.1166173 24.395722,21.4866173 C17.685722,18.3036173 10.704722,20.0896173 5.59372199,27.5586173 C5.34272199,27.9456173 5.10472199,27.0746173 5.25072199,26.6376173" id="Fill-22" fill="#090E2B"/></g><path d="M86.9879908,70.3386563 C86.0131141,75.2575144 79.9689699,75.7359636 76.0323155,74.6212963 C72.832522,73.7152719 72.0034674,71.851321 73.0853454,71.2537752 C74.8485675,70.2799076 80.4997296,72.9889887 82.5858367,70.4027854 C86.305606,65.7912866 74.8914605,48.8346319 78.5177277,51.5592059 C83.3102149,55.1600121 87.6386051,67.0559034 86.9879908,70.3386563 Z" id="nose" fill="#090E2B"/><path d="M89.6387968,90.5818454 C88.8707672,91.1602445 87.0677709,93.5463983 85.244688,95.0617056 C81.1444698,98.4697185 74.4745751,99.2530639 70.5444286,98.4697185 C63.1559339,96.997065 59.9595527,92.178225 58.0067117,90.8585998 C56.0538707,89.5389745 59.7200172,87.8442758 62.5249361,88.0931395 C65.3298551,88.3420033 67.2123883,89.156182 72.5654423,91.4592717 C76.0199316,92.9455259 83.8310598,90.8585998 86.0381944,89.5389745 C90.2484115,87.021725 91.5113061,89.1716685 89.6387968,90.5818454 Z" id="Fill-18" fill="#090E2B"/></g></g><g id="Facial Accesories" transform="translate(459.000000, 529.000000) scale(1 1)" fill="#000" blush:width="120" blush:height="110" blush:component="Facial Accesories"><g id="Facial Accesories/None" stroke="none" stroke-width="1" fill="none" fill-rule="evenodd" fill-opacity="0"/></g><g id="Glass" transform="translate(462.000000, 484.000000) scale(1 1)" fill="#000" blush:width="120" blush:height="75" blush:component="Glass"><g id="Glass/None" stroke="none" stroke-width="1" fill="none" fill-rule="evenodd" fill-opacity="0"/></g></g></svg>