<svg id="visual" viewBox="0 0 960 540" width="960" height="540" xmlns="http://www.w3.org/2000/svg" xmlns:xlink="http://www.w3.org/1999/xlink" version="1.1"><rect x="0" y="0" width="960" height="540" fill="#fbeeb8"></rect><path d="M0 349L22.8 350.7C45.7 352.3 91.3 355.7 137 358.3C182.7 361 228.3 363 274 365.2C319.7 367.3 365.3 369.7 411.2 368.3C457 367 503 362 548.8 361.8C594.7 361.7 640.3 366.3 686 361.3C731.7 356.3 777.3 341.7 823 334.7C868.7 327.7 914.3 328.3 937.2 328.7L960 329L960 541L937.2 541C914.3 541 868.7 541 823 541C777.3 541 731.7 541 686 541C640.3 541 594.7 541 548.8 541C503 541 457 541 411.2 541C365.3 541 319.7 541 274 541C228.3 541 182.7 541 137 541C91.3 541 45.7 541 22.8 541L0 541Z" fill="#ffb201"></path><path d="M0 397L22.8 402.3C45.7 407.7 91.3 418.3 137 418.3C182.7 418.3 228.3 407.7 274 406.7C319.7 405.7 365.3 414.3 411.2 413.3C457 412.3 503 401.7 548.8 398.5C594.7 395.3 640.3 399.7 686 396.8C731.7 394 777.3 384 823 379.5C868.7 375 914.3 376 937.2 376.5L960 377L960 541L937.2 541C914.3 541 868.7 541 823 541C777.3 541 731.7 541 686 541C640.3 541 594.7 541 548.8 541C503 541 457 541 411.2 541C365.3 541 319.7 541 274 541C228.3 541 182.7 541 137 541C91.3 541 45.7 541 22.8 541L0 541Z" fill="#ffa320"></path><path d="M0 422L22.8 427.2C45.7 432.3 91.3 442.7 137 446.8C182.7 451 228.3 449 274 446.8C319.7 444.7 365.3 442.3 411.2 435.2C457 428 503 416 548.8 418.8C594.7 421.7 640.3 439.3 686 443.5C731.7 447.7 777.3 438.3 823 438C868.7 437.7 914.3 446.3 937.2 450.7L960 455L960 541L937.2 541C914.3 541 868.7 541 823 541C777.3 541 731.7 541 686 541C640.3 541 594.7 541 548.8 541C503 541 457 541 411.2 541C365.3 541 319.7 541 274 541C228.3 541 182.7 541 137 541C91.3 541 45.7 541 22.8 541L0 541Z" fill="#ff9431"></path><path d="M0 478L22.8 475.5C45.7 473 91.3 468 137 460.5C182.7 453 228.3 443 274 440.7C319.7 438.3 365.3 443.7 411.2 452.8C457 462 503 475 548.8 481.2C594.7 487.3 640.3 486.7 686 485.3C731.7 484 777.3 482 823 476C868.7 470 914.3 460 937.2 455L960 450L960 541L937.2 541C914.3 541 868.7 541 823 541C777.3 541 731.7 541 686 541C640.3 541 594.7 541 548.8 541C503 541 457 541 411.2 541C365.3 541 319.7 541 274 541C228.3 541 182.7 541 137 541C91.3 541 45.7 541 22.8 541L0 541Z" fill="#fc863e"></path><path d="M0 473L22.8 474.7C45.7 476.3 91.3 479.7 137 482.3C182.7 485 228.3 487 274 491C319.7 495 365.3 501 411.2 501.3C457 501.7 503 496.3 548.8 495.2C594.7 494 640.3 497 686 498.7C731.7 500.3 777.3 500.7 823 497C868.7 493.3 914.3 485.7 937.2 481.8L960 478L960 541L937.2 541C914.3 541 868.7 541 823 541C777.3 541 731.7 541 686 541C640.3 541 594.7 541 548.8 541C503 541 457 541 411.2 541C365.3 541 319.7 541 274 541C228.3 541 182.7 541 137 541C91.3 541 45.7 541 22.8 541L0 541Z" fill="#f67a49"></path></svg>