<svg viewBox="0 0 3240 2119.9999999999995" xmlns="http://www.w3.org/2000/svg" overflow="visible" xmlns:xlink="http://www.w3.org/1999/xlink" width="3240px" height="2119.9999999999995px"><g id="Master/Scenes/Socializing" stroke="none" stroke-width="1" fill="none" fill-rule="evenodd"><g id="Background"><path d="M1945.4854,371 C1947.14225,371 1948.4854,372.343946 1948.4854,374.0008 C1948.4854,375.598481 1947.23648,376.904461 1945.66167,376.995707 L1945.4854,377.0008 L1865.2034,377 L1865.2034,436.462 L2032.4054,436.4628 C2034.00308,436.4628 2035.30906,437.71172 2035.40031,439.286527 L2035.4054,439.4628 C2035.4054,441.060481 2034.15648,442.366461 2032.58167,442.457707 L2032.4054,442.4628 L1948.4854,442.462 L1948.4854,501.926 L2032.4054,501.9266 C2034.06225,501.9266 2035.4054,503.269746 2035.4054,504.9266 C2035.4054,506.524281 2034.15648,507.830261 2032.58167,507.921507 L2032.4054,507.9266 L1865.2034,507.926 L1865.2034,567.386 L2032.4054,567.3866 C2034.00308,567.3866 2035.30906,568.63552 2035.40031,570.210327 L2035.4054,570.3866 C2035.4054,571.984281 2034.15648,573.290261 2032.58167,573.381507 L2032.4054,573.3866 L1945.5194,573.386 L1945.4852,573.3876 L1778.2824,573.387 L1778.2824,632.849 L1862.2032,632.8496 C1863.80088,632.8496 1865.10686,634.09852 1865.19811,635.673327 L1865.2032,635.8496 C1865.2032,637.447281 1863.95428,638.753261 1862.37947,638.844507 L1862.2032,638.8496 L1775.2832,638.8496 C1773.68552,638.8496 1772.37954,637.60068 1772.28829,636.025873 L1772.2832,635.8496 L1772.2824,573.385 L1725.959,573.3856 C1724.30215,573.3856 1722.959,572.042454 1722.959,570.3856 C1722.959,568.787919 1724.20792,567.481939 1725.78273,567.390693 L1725.959,567.3856 L1859.2024,567.385 L1859.2024,507.925 L1725.959,507.9256 C1724.36132,507.9256 1723.05534,506.67668 1722.96409,505.101873 L1722.959,504.9256 C1722.959,503.327919 1724.20792,502.021939 1725.78273,501.930693 L1725.959,501.9256 L1772.2814,501.925 L1772.2814,442.461 L1692.0004,442.462 C1690.34355,442.462 1689.0004,441.118854 1689.0004,439.462 C1689.0004,437.864319 1690.24932,436.558339 1691.82413,436.467093 L1692.0004,436.462 L1859.2024,436.461 L1859.2024,377 L1800.5304,377 C1798.93272,377 1797.62674,375.75108 1797.53549,374.176273 L1797.5304,374 C1797.5304,372.402319 1798.77932,371.096339 1800.35413,371.005093 L1800.5304,371 L1945.4854,371 Z M1942.4854,442.463 L1778.2814,442.463 L1778.2814,501.925 L1942.4854,501.925 L1942.4854,442.463 Z" id="Bricks" fill-opacity=".08" fill="#0d2f4f" fill-rule="nonzero"/><path d="M2937.4856,858.464 C2939.08328,858.464 2940.38926,859.71292 2940.48051,861.287727 L2940.4856,861.464 L2940.485,923.926 L3024.405,923.9266 C3026.06185,923.9266 3027.405,925.269746 3027.405,926.9266 C3027.405,928.524281 3026.15608,929.830261 3024.58127,929.921507 L3024.405,929.9266 L2857.203,929.926 L2857.203,989.386 L2955.15928,989.3866 C2956.75696,989.3866 2958.06294,990.63552 2958.15419,992.210327 L2958.15928,992.3866 C2958.15928,993.984281 2956.91036,995.290261 2955.33555,995.381507 L2955.15928,995.3866 L2766.84,995.3866 C2765.18315,995.3866 2763.84,994.042454 2763.84,992.3856 C2763.84,990.787919 2765.08892,989.481939 2766.66373,989.390693 L2766.84,989.3856 L2851.202,989.385 L2851.201,929.926 L2766.84,929.9256 C2765.24232,929.9256 2763.93634,928.67668 2763.84509,927.101873 L2763.84,926.9256 C2763.84,926.351785 2764.0011,925.815597 2764.28054,925.359799 L2764.2816,861.464 C2764.2816,859.866319 2765.53052,858.560339 2767.10533,858.469093 L2767.2816,858.464 L2937.4856,858.464 Z M2934.485,864.463 L2770.281,864.463 L2770.281,923.925 L2934.485,923.925 L2934.485,864.463 Z" id="Bricks" fill-opacity=".08" fill="#0d2f4f" fill-rule="nonzero"/><g id="window" transform="translate(1991.000000, 0.000000)"><polygon id="Fill-1" fill="#fcca9f" points="0 1204 785 1204 785 0 0 0"/><polygon id="Fill-2" fill="#f0efd9" points="43 584 374 584 374 49 43 49"/><polygon id="Fill-3" fill="#f0efd9" points="411 584 742 584 742 49 411 49"/><polygon id="Fill-4" fill="#f0efd9" points="43 1156 374 1156 374 621 43 621"/><polygon id="Fill-5" fill="#f0efd9" points="411 1156 742 1156 742 621 411 621"/><polygon id="Fill-6" fill="#f9a486" points="0 1722 186 1722 186 0 0 0"/><polygon id="Fill-7" fill="#f0efd9" points="149.542 268.126475 149.014 454.24705 148.006 826.5 149.002 1198.74705 149.53 1384.87942 151 1571 152.47 1384.87942 152.992 1198.74705 153.994 826.5 152.986 454.24705 152.458 268.126475 151 82"/><polygon id="Fill-8" fill="#f0efd9" points="63.545 291.248525 62.705 457.502951 62.003 790 62.693 1122.49705 63.533 1288.75148 64.997 1455 66.473 1288.75148 67.307 1122.49705 67.997 790 67.301 457.502951 66.461 291.248525 64.997 125"/><polygon id="Fill-9" fill="#f0efd9" points="106.542 359.62205 106.014 554.25 105.006 943.5 106.002 1332.75 106.53 1527.37795 108 1722 109.47 1527.37795 109.992 1332.75 110.994 943.5 109.986 554.25 109.458 359.62205 108 165"/><polygon id="Fill-10" fill="#f0efd9" points="32.545 295.747049 32.011 499.5 31.003 907 32.005 1314.5 32.533 1518.25295 34.003 1722 35.473 1518.25295 35.995 1314.5 36.997 907 35.989 499.5 35.461 295.747049 34.003 92"/><polygon id="Fill-11" fill="#f9a486" points="599 1722 785 1722 785 0 599 0"/><polygon id="Fill-12" fill="#f0efd9" points="632.542 268.126475 632.014 454.24705 631.006 826.5 632.008 1198.74705 632.53 1384.87942 634 1571 635.47 1384.87942 635.998 1198.74705 636.994 826.5 635.992 454.24705 635.458 268.126475 634 82"/><polygon id="Fill-13" fill="#f0efd9" points="718.542 291.248525 717.708 457.502951 717 790 717.696 1122.49705 718.536 1288.75148 720 1455 721.47 1288.75148 722.31 1122.49705 723 790 722.298 457.502951 721.464 291.248525 720 125"/><polygon id="Fill-14" fill="#f0efd9" points="675.542 359.62205 675.014 554.25 674.006 943.5 675.008 1332.75 675.53 1527.37795 677 1722 678.47 1527.37795 678.998 1332.75 679.994 943.5 678.992 554.25 678.458 359.62205 677 165"/><polygon id="Fill-15" fill="#f0efd9" points="749.542 295.747049 749.014 499.5 748.006 907 749.008 1314.5 749.53 1518.25295 751.006 1722 752.47 1518.25295 752.998 1314.5 753.994 907 752.986 499.5 752.458 295.747049 751.006 92"/></g><g id="Group-3" transform="translate(725.000000, 250.000000)"><path d="M299.456,151.596 C299.456,235.32 232.42,303.192 149.724,303.192 C67.036,303.192 -8.52651283e-13,235.32 -8.52651283e-13,151.596 C-8.52651283e-13,67.872 67.036,0 149.724,0 C232.42,0 299.456,67.872 299.456,151.596" id="Fill-1" fill="#f9a486"/><path d="M283.2176,151.596 C283.2176,226.24 223.4536,286.752 149.7256,286.752 C76.0016,286.752 16.2376,226.24 16.2376,151.596 C16.2376,76.952 76.0016,16.44 149.7256,16.44 C223.4536,16.44 283.2176,76.952 283.2176,151.596" id="Fill-3" fill="#f0efd9"/><path d="M160.9052,151.596 C160.9052,157.844 155.9012,162.912 149.7252,162.912 C143.5532,162.912 138.5492,157.844 138.5492,151.596 C138.5492,145.344 143.5532,140.276 149.7252,140.276 C155.9012,140.276 160.9052,145.344 160.9052,151.596" id="Fill-5" fill="#f9a486"/><polygon id="Fill-7" fill="#f9a486" points="147.194 46.1016 152.566 46.1016 152.566 21.3776 147.194 21.3776"/><polygon id="Fill-9" fill="#f9a486" points="147.194 281.9576 152.566 281.9576 152.566 257.2336 147.194 257.2336"/><polygon id="Fill-10" fill="#f9a486" points="254.146 154.3856 278.562 154.3856 278.562 148.9456 254.146 148.9456"/><polygon id="Fill-11" fill="#f9a486" points="21.19 154.3856 45.61 154.3856 45.61 148.9456 21.19 148.9456"/><polygon id="Fill-12" fill="#f9a486" points="146.9248 147.68 149.9288 61.968 152.9368 147.68"/><polygon id="Fill-13" fill="#f9a486" points="146.452 153.1252 88.768 90.3172 150.704 148.8252"/></g><path d="M3094.485,202 C3096.14185,202 3097.485,203.343946 3097.485,205.0008 C3097.485,206.598481 3096.23608,207.904461 3094.66127,207.995707 L3094.485,208.0008 L3014.202,208 L3014.202,267.462 L3141.65059,267.4628 C3143.24828,267.4628 3144.55426,268.71172 3144.6455,270.286527 L3144.65059,270.4628 C3144.65059,272.060481 3143.40167,273.366461 3141.82687,273.457707 L3141.65059,273.4628 L3097.485,273.462 L3097.485,332.926 L3181.405,332.9266 C3183.06185,332.9266 3184.405,334.269746 3184.405,335.9266 C3184.405,337.524281 3183.15608,338.830261 3181.58127,338.921507 L3181.405,338.9266 L3014.202,338.926 L3014.202,398.386 L3112.15928,398.3866 C3113.75696,398.3866 3115.06294,399.63552 3115.15419,401.210327 L3115.15928,401.3866 C3115.15928,402.984281 3113.91036,404.290261 3112.33555,404.381507 L3112.15928,404.3866 L3011.203,404.3866 L3011.167,404.3866 L2923.84,404.3866 C2922.18315,404.3866 2920.84,403.042454 2920.84,401.3856 C2920.84,399.787919 2922.08892,398.481939 2923.66373,398.390693 L2923.84,398.3856 L3008.202,398.385 L3008.201,338.926 L2923.84,338.9256 C2922.24232,338.9256 2920.93634,337.67668 2920.84509,336.101873 L2920.84,335.9256 C2920.84,335.351785 2921.0011,334.815597 2921.28054,334.359799 L2921.28054,272.027801 C2921.0011,271.572003 2920.84,271.035815 2920.84,270.462 C2920.84,268.864319 2922.08892,267.558339 2923.66373,267.467093 L2923.84,267.462 L3008.202,267.461 L3008.202,208 L2949.53,208 C2947.93232,208 2946.62634,206.75108 2946.53509,205.176273 L2946.53,205 C2946.53,203.402319 2947.77892,202.096339 2949.35373,202.005093 L2949.53,202 L3094.485,202 Z M3091.485,273.463 L2927.281,273.463 L2927.281,332.925 L3091.485,332.925 L3091.485,273.463 Z" id="Bricks" fill-opacity=".08" fill="#0d2f4f" fill-rule="nonzero"/><g id="Chair" transform="translate(2324.000000, 1681.000000) scale(-1, 1) translate(-2324.000000, -1681.000000) translate(2024.000000, 1281.000000) scale(0.8571428571428571 1)"><g id="Chair/Tall Chair 1" stroke="none" stroke-width="1" fill="none" fill-rule="evenodd"><g id="Chair" transform="translate(172.000000, 165.000000)"><path d="M277.095317,253.880468 C276.726347,252.021078 275.300483,250.630108 273.593409,250.622411 L273.564156,250.622411 L134.43433,249.99972 L134.422063,249.99972 C132.533807,249.990152 130.823902,251.502075 130.384158,253.737523 L63.9167966,631.630966 C63.6299252,633.095607 64.4046668,634.563547 65.6616168,634.917612 C66.9280033,635.273876 68.2028827,634.367822 68.5095709,632.892185 L137.711648,259.682956 L270.707709,259.088083 L339.488915,632.892185 C339.790885,634.356826 341.051609,635.269478 342.314221,634.928608 C343.584382,634.586639 344.375166,633.111001 344.081689,631.630966 L277.095317,253.880468 Z" id="Fill-4" fill="#303752"/><path d="M228.238174,253.880468 C227.869204,252.021078 226.44334,250.630108 224.736266,250.622411 L224.707013,250.622411 L85.5771874,249.99972 L85.5649198,249.99972 C83.676664,249.990152 81.9667591,251.502075 81.5270153,253.737523 L15.0596538,631.630966 C14.7727823,633.095607 15.547524,634.563547 16.8044739,634.917612 C18.0708604,635.273876 19.3457398,634.367822 19.652428,632.892185 L88.854505,259.682956 L221.850566,259.088083 L290.631772,632.892185 C290.933742,634.356826 292.194467,635.269478 293.457079,634.928608 C294.72724,634.586639 295.518023,633.111001 295.224546,631.630966 L228.238174,253.880468 Z" id="Fill-4-Copy" fill="#303752"/><path d="M50.3075561,41.2196463 C57.2644627,81.4190302 96.4543388,206.924243 117.597957,221.042896 C138.741575,235.160391 262.220185,232.409824 276.704598,233.819837 C291.189012,235.231007 306.881038,245.104572 304.466804,263.44053 C302.05257,281.777645 296.01748,276.135278 253.770861,276.135278 C211.524242,276.135278 112.547581,276.954891 112.547581,276.954891 C112.547581,276.954891 61.2929073,280.665147 40.1958503,220.787056 C20.8740528,165.945883 3.77877187,64.7475273 1.36453784,46.4104117 C-1.04870554,28.0732961 0.695843552,5.58486122 12.6550693,1.0202623 C21.7096853,-2.43531157 43.3506496,1.0202623 50.3075561,41.2196463 Z" id="Fill-1" fill="#fcdcab"/></g></g></g><g id="Medium Plants" transform="translate(2507.000000, 1281.000000) scale(1 1)"><g id="Medium Plants/Plant 2" stroke="none" stroke-width="1" fill="none" fill-rule="evenodd"><g id="Group" transform="translate(151.000000, 136.000000)"><path d="M255.803813,361.180941 C255.803813,361.180941 255.967778,303.988941 233.935778,258.656941 C207.751778,204.780941 110.687778,137.420941 53.2517777,154.604941 C27.7837777,162.224941 74.8037777,229.528941 143.291778,299.444941 C172.127778,328.884941 243.071778,373.648941 255.803813,361.180941 Z" id="Stroke-1" fill="#b46465"/><path d="M270.711778,221.688541 C270.711778,221.688541 288.451778,194.364541 290.959778,132.728541 C292.855778,86.0165406 272.567778,50.1805406 262.055778,33.4925406 C250.247778,14.7445406 227.031778,-16.2634594 213.123778,10.3165406 C199.211778,36.9045406 191.687778,98.1165406 204.835778,139.812541 C217.983778,181.504541 238.707778,211.308541 270.711778,221.688541 Z" id="Stroke-3" fill="#b46465"/><path d="M207.752978,431.895741 C207.752978,431.895741 174.156978,465.051741 102.772978,455.699741 C39.1249777,447.359741 -0.511022309,415.243741 0.00497769134,400.363741 C0.520977691,385.483741 75.8929777,352.563741 137.464978,376.015741 C199.036978,399.471741 207.752978,431.895741 207.752978,431.895741 Z" id="Stroke-5" fill="#b46465"/><path d="M343.289778,373.051741 C343.289778,373.051741 316.393778,339.287741 317.117778,259.231741 C317.837778,179.175741 359.169778,83.8237406 372.621778,82.6437406 C386.081778,81.4677406 406.757778,128.711741 401.589778,233.135741 C398.861778,288.251741 384.213778,345.203741 343.289778,373.051741 Z" id="Stroke-7" fill="#b46465"/><path d="M390.948178,414.731741 C390.948178,414.731741 433.816178,429.307741 470.388178,408.911741 C522.396178,379.903741 546.200178,338.355741 547.268178,312.915741 C548.332178,287.475741 493.836178,305.979741 468.304178,319.935741 C442.580178,333.995741 386.932178,386.179741 390.948178,414.731741 Z" id="Stroke-9" fill="#b46465"/><path d="M368.893378,148.247341 C366.685378,214.139341 361.885378,280.055341 350.533378,345.067341 C344.689378,377.587341 336.417378,409.551341 327.241378,441.227341 C318.061378,472.651341 307.037378,503.979341 307.649378,537.079341 C307.737378,539.627341 303.569378,539.767341 303.649378,537.075341 C303.149378,503.679341 314.429378,471.751341 323.817378,440.223341 C333.101378,408.683341 341.493378,376.811341 347.445378,344.503341 C359.041378,279.767341 364.129378,213.875341 366.617378,148.191341 C366.609378,147.671341 366.941378,141.271341 367.349378,141.131341 C369.349378,140.427341 368.941378,147.287341 368.893378,148.247341" id="Fill-11" fill="#0d2f4f"/><path d="M241.034178,64.8057406 C252.378178,123.057741 264.026178,182.021741 276.574178,240.061741 C294.438178,337.957741 300.862178,437.673741 301.178284,537.073741 C301.202178,539.533741 297.150178,539.769741 297.178178,537.073741 C296.862178,437.933741 290.454178,338.429741 272.642178,240.813741 C260.310178,182.789741 249.022178,123.637741 238.666178,65.2497406 C238.518178,64.5337406 237.230178,55.9057406 238.562178,56.2137406 C239.158178,56.3497406 240.902178,64.0217406 241.034178,64.8057406" id="Fill-13" fill="#0d2f4f"/><path d="M111.547778,190.485341 C239.671778,290.141341 287.099778,378.629341 293.211883,541.541341 C293.235778,544.069341 289.139778,544.249341 289.211778,541.517341 C286.595778,439.465341 259.911778,335.225341 185.315778,261.625341 C162.091778,236.737341 132.631778,210.377341 105.695778,189.581341 C104.747778,188.949341 102.159778,186.405341 104.131778,186.837341 C105.271778,187.081341 110.983778,190.037341 111.547778,190.485341" id="Fill-15" fill="#0d2f4f"/><path d="M44.4229777,401.618141 C94.7429777,397.874141 146.158978,404.266141 193.262978,422.790141 C241.970978,441.422141 272.686978,490.006141 280.614978,540.074141 C281.046978,542.562141 277.154978,543.366141 276.678978,540.782141 C261.426978,453.798141 202.070978,418.202141 119.494978,406.762141 C94.7109777,403.158141 67.2389777,401.422141 42.2069777,403.158141 C41.1149777,403.294141 43.1949777,401.698141 44.4229777,401.618141" id="Fill-17" fill="#0d2f4f"/><path d="M499.692178,337.778541 C421.660178,388.194541 329.632178,447.238541 315.512178,546.870541 C315.188178,549.418541 311.040178,548.838541 311.564178,546.218541 C321.700178,471.770541 378.988178,416.470541 437.732178,375.370541 C457.480178,361.414541 477.616178,348.070541 498.092178,335.210541 C498.884178,334.710541 506.144178,330.642541 506.120237,332.094541 C506.112178,332.854541 500.560178,337.242541 499.692178,337.778541" id="Fill-19" fill="#0d2f4f"/><path d="M333.766578,663.567341 L259.346578,663.567341 C236.854578,663.567341 218.618578,637.331341 218.618578,614.839341 L218.618578,499.695341 L374.494578,499.695341 L374.494578,614.839341 C374.494578,637.331341 356.258578,663.567341 333.766578,663.567341 Z" id="Stroke-21" fill="#f37d6e"/></g></g></g><g id="Medium Plants" transform="translate(111.000000, 537.000000) scale(1 1)"><g id="Medium Plants/Plant 3" stroke="none" stroke-width="1" fill="none" fill-rule="evenodd"><g id="Group" transform="translate(215.000000, 84.000000)"><path d="M112.880533,293.771571 C72.2193038,211.163092 32.755718,181.121219 20.2319955,171.471577 C31.7926281,194.631785 123.101369,458.278287 135.733483,527.310338 C93.3433125,443.747754 71.4872134,425.696285 63.5834793,417.566804 C42.1911559,395.561848 15.4147691,379.927685 0,372.207616 C6.74873695,381.58313 85.7416546,476.436559 113.680146,559.433088 L135.838322,599 L246.627421,599 C246.627421,599 258.188054,560.566979 276.492093,543.592439 C294.796131,526.619679 363.774357,441.65075 374.3719,391.46763 C348.802317,421.08304 267.492695,526.619679 253.027882,543.592439 C288.674647,442.658364 294.026586,433.333145 324.490079,377.359528 C354.953572,321.384132 418.11073,239.428478 421,237.498906 C388.244282,254.870397 291.937958,315.57786 246.266707,435.847441 C227.181252,486.106622 221.197939,518.114609 221.197939,518.114609 C221.197939,518.114609 241.824632,417.660531 240.859765,319.222084 C239.896675,220.783637 246.627421,0 246.627421,0 C246.627421,0 202.715749,77.0946758 186.442858,202.073242 C180.425007,248.291359 175.348107,438.140602 177.274287,484.065846 C177.274287,484.065846 152.358334,373.975203 112.880533,293.771571 Z" id="Fill-1" fill="#b46465"/><path d="M254.50609,716 L126.947716,716 C108.198988,716 93,690.078415 93,671.268722 L93,544 L292,544 L292,667.710997 C292,688.399168 275.127209,716 254.50609,716" id="Fill-4" fill="#9e5d62"/></g></g></g><g id="Bubble-1" transform="translate(1246.000000, 724.999600)"><path d="M232.12,116.08 C232.12,180.16 180.16,232.12 116.04,232.12 C99.88,232.12 84.52,228.8 70.56,222.84 L14.96,248.36 L39.4,203.16 C15.24,181.92 1.30739863e-12,150.8 1.30739863e-12,116.08 C1.30739863e-12,51.96 51.96,-4.26325641e-14 116.04,-4.26325641e-14 C180.16,-4.26325641e-14 232.12,51.96 232.12,116.08" id="Fill-1" fill="#f37d6e"/><rect id="Rectangle" fill="#f0efd9" x="50" y="73" width="132" height="12" rx="6"/><rect id="Rectangle-Copy" fill="#f0efd9" x="50" y="107" width="112" height="12" rx="6"/><rect id="Rectangle-Copy-2" fill="#f0efd9" x="50" y="141" width="79" height="12" rx="6"/></g><g id="Bubble-2" transform="translate(1868.682400, 806.500800)"><path d="M-1.87583282e-12,121.62 C-1.87583282e-12,188.756 54.436,243.196 121.616,243.196 C138.552,243.196 154.64,239.716 169.268,233.472 L227.52,260.208 L201.916,212.856 C227.228,190.6 243.196,157.996 243.196,121.62 C243.196,54.44 188.752,2.84217094e-14 121.616,2.84217094e-14 C54.436,2.84217094e-14 -1.87583282e-12,54.44 -1.87583282e-12,121.62" id="Fill-4" fill="#f37d6e"/><rect id="Rectangle-Copy-3" fill="#f0efd9" x="58.318" y="81.499" width="132" height="12" rx="6"/><rect id="Rectangle-Copy-4" fill="#f0efd9" x="58.318" y="115.499" width="117" height="12" rx="6"/><rect id="Rectangle-Copy-5" fill="#f0efd9" x="58.318" y="149.499" width="79" height="12" rx="6"/></g><g id="Shelf" transform="translate(30.000000, 1336.000000)"><polygon id="Fill-16" fill="#fcdcab" points="25 748 546 748 546 27 25 27"/><polygon id="Fill-17" fill="#f0efd9" points="0 27 571 27 571 0 0 0"/><polygon id="Fill-18" fill="#f7917a" points="571 27 751 27 751 0 571 0"/><polygon id="Fill-19" fill="#f9a486" points="546 748 722 748 722 27 546 27"/><polygon id="Stroke-20" stroke="#f0efd9" stroke-width="6" points="82 360 489 360 489 130 82 130"/><polygon id="Fill-21" fill="#f0efd9" points="248 243 328 243 328 197 248 197"/><polygon id="Stroke-23" stroke="#f0efd9" stroke-width="6" points="82 650 489 650 489 420 82 420"/><polygon id="Fill-24" fill="#f0efd9" points="248 533 328 533 328 487 248 487"/></g><g id="Chair" transform="translate(721.000000, 1281.000000) scale(0.8571428571428571 1)"><g id="Chair/Stool" stroke="none" stroke-width="1" fill="none" fill-rule="evenodd"><g id="Group" transform="translate(249.000000, 425.000000)" fill="#5e4659"><path d="M32,0.639462324 L21.361,173.639462 L181.639,173.639462 L171,0.639462324 L189,0.639462324 L195.476,173.639462 L196,173.639462 L196,186.639462 L195.963,186.639462 L203,374.639462 L194,374.639462 L182.439,186.639462 L20.561,186.639462 L9,374.639462 L0,374.639462 L14,0.639462324 L32,0.639462324 Z" id="Combined-Shape"/></g><path d="M233.392254,403.051901 L352.708336,399.021055 C353.123705,399.007023 353.539436,399.00738 353.95478,399.022127 L466.638699,403.023039 C476.325148,403.366962 484,411.319151 484,421.011704 L484,430.639462 C484,440.580588 475.941125,448.639462 466,448.639462 L234,448.639462 C224.058875,448.639462 216,440.580588 216,430.639462 L216,421.041638 C216,411.337076 223.693225,403.379563 233.392254,403.051901 Z" id="Rectangle" fill="#89555f"/></g></g><path d="M3233.5,2081 C3235.433,2081 3237,2082.567 3237,2084.5 C3237,2086.36856 3235.53572,2087.89513 3233.69204,2087.99482 L3233.5,2088 L19.5,2088 C17.5670034,2088 16,2086.433 16,2084.5 C16,2082.63144 17.4642776,2081.10487 19.3079648,2081.00518 L19.5,2081 L3233.5,2081 Z" id="Floor" fill="#303752" fill-rule="nonzero"/></g><g transform="translate(502.000000, 589.000000) scale(1 1)" id="Master/Character/Sitting"><g id="Master/Character/Sitting" stroke="none" stroke-width="1" fill="none" fill-rule="evenodd"><g id="Sitting" transform="translate(179.000000, 940.000000) scale(1 1)"><g id="Sitting/On Chair 1" stroke="none" stroke-width="1" fill="none" fill-rule="evenodd"><path d="M410.615323,399.49997 C410.615323,399.49997 400.357969,471.949685 396.171539,502.905682 C391.949971,534.125643 467.0487,503.736716 467.0487,503.736716 C467.0487,503.736716 453.509565,484.44329 453.304761,479.157997 C453.100961,473.870697 476.218696,412 476.218696,412 L410.615323,399.49997 Z" id="Fill-3" fill="#df746b"/><path d="M561.035706,7.46069873e-14 C597.897949,16.8477074 635.153618,59.3884812 602.589029,139.128809 C570.024441,218.869137 493.394303,411.87247 481.349448,420.555326 C469.305594,429.239182 405.784608,412 405.784608,412 C405.784608,412 412.732597,330.944505 426.534884,251.242608 C436.641716,192.880271 457.952435,150.325862 457.952435,150.325862 C457.952435,150.325862 286.540837,174.784268 243.98254,146.076381 C188.124727,108.397247 229.480836,6.86053872 261.586066,-5.71064401 C302.858588,-21.8713886 490.854841,-32.0758202 561.035706,7.46069873e-14 Z" id="Fill-5" fill="#303752"/><path d="M559.105053,537.550495 C553.718837,520.869499 514.662001,509.852921 486.4598,501.514412 C476.966506,498.70607 463.702961,484.835405 457.545853,485.001479 C448.581857,485.24512 457.367415,503.898122 427.362791,502.274176 C419.4193,501.844571 418.851908,493.484184 401.591555,491.580796 C398.786673,491.272515 394.499152,490.727553 390.796066,497.394383 C388.732001,501.110663 380.282268,534.66359 388.577622,548.345309 C446.664152,549.845942 506.41276,548.363209 558.020392,547.881892 C563.059757,547.834159 560.482433,541.818697 559.105053,537.550495" id="Fill-17" fill="#89555f"/><path d="M654.970564,412 C654.970564,412 665.530533,466.509706 672.596211,475.377601 C679.662889,484.243493 716.32892,494.221378 717.974942,499.698195 C719.618961,505.175012 639.820958,518 639.820958,518 L591,416.698422 L654.970564,412 Z" id="Fill-1" fill="#df746b"/><path d="M790.105053,534.5497 C784.718837,517.869641 745.662001,506.853025 717.4598,498.513492 C707.966506,495.706135 694.702961,481.834427 688.545853,482.001496 C679.581857,482.244144 688.367415,500.898205 658.362791,499.274253 C650.420302,498.844647 649.85291,490.483237 632.591555,488.580837 C629.786673,488.27156 625.499152,487.727591 621.796066,494.393449 C619.732001,498.109742 611.282268,531.662786 619.577622,545.345546 C677.664152,546.846185 737.41276,545.362452 789.020392,544.881134 C794.059757,544.8334 791.482433,538.817918 790.105053,534.5497" id="Fill-10" fill="#89555f"/><path d="M722.704751,510.429527 C726.392384,503.004274 728.005104,501.713139 726.433049,500.543939 C722.673012,497.748284 703.571309,506.385021 702.069675,511.523009 C700.944937,515.373796 713.664197,504.228541 723.820563,502.565701 C719.658833,506.366337 715.778784,518.019983 719.874061,515.696334 C739.826756,504.381943 742.973841,507.006496 742.998637,506.585624 C743.116665,504.585496 735.565843,502.966906 722.704751,510.429527" id="Fill-15" fill="#f37d6e"/><path d="M180.126096,77 C192.090433,138.955221 247.290014,161.21191 295.189049,159.361921 C368.355288,156.536045 442.938988,124.042498 468.151215,113.183029 C465.930109,129.164147 477.804596,220.024734 497.628146,262.074146 C517.451696,304.123559 582.008895,430.623213 582.008895,430.623213 C582.008895,430.623213 654.850327,431.050084 657.965073,413.369038 C660.014248,401.737852 591.630112,76.8494703 569.008895,20.5961921 C556.018259,-11.7082512 513.975789,-25.6487365 427.5,-33 C340.646127,-40.3834042 214.030282,-26.7715765 214.030282,-26.7715765 C214.030282,-26.7715765 168.16176,15.0447792 180.126096,77 Z" id="Fill-7" fill="#483e56"/><path d="M491.704751,514.429893 C495.392384,507.004835 497.005104,505.713735 495.432058,504.543583 C491.67202,501.748984 472.571309,510.385493 471.069675,515.522362 C469.944937,519.373048 482.664197,508.228087 492.820563,506.566274 C488.658833,510.36681 484.777792,522.019165 488.874061,519.69656 C508.826756,508.381485 511.973841,511.005969 511.998637,510.585107 C512.116665,508.585032 504.565843,506.966486 491.704751,514.429893" id="Fill-22" fill="#f37d6e"/><path d="M546.8316,554.3915 L407.0166,556.8575 C397.6626,557.2315 383.6706,554.0145 382.3176,546.2435 C381.3066,540.4375 383.5546,527.7955 384.0206,526.9545 C387.2776,521.0945 415.0326,526.0385 423.1176,545.8275 C474.1316,549.6495 561.0086,545.9125 561.0086,545.9125 C561.0086,545.9125 562.3126,553.5935 546.8316,554.3915" id="Fill-19" fill="#303752"/><path d="M777.7223,550.7851 L637.9073,553.2511 C628.5543,553.6251 614.5613,550.4091 613.2083,542.6381 C612.1983,536.8321 614.4453,524.1901 614.9123,523.3491 C618.1683,517.4891 645.9233,522.4331 654.0083,542.2221 C705.0223,546.0441 791.9003,542.3071 791.9003,542.3071 C791.9003,542.3071 793.2033,549.9881 777.7223,550.7851" id="Fill-12" fill="#303752"/></g></g><g id="Upper Body/Sitting" transform="translate(243.000000, 170.000000) scale(1 1.0010526315789474)"><g id="Upper Body/Sitting/Talking 2" stroke="none" stroke-width="1" fill="none" fill-rule="evenodd"><path d="M362.489116,617 C362.489116,617 384.102925,664.92587 396.434951,673.59818 C405.517356,679.985243 523.763082,668.405945 542.122663,665.044916 C585.761968,657.056011 592.886918,666.284763 593.503151,668.041652 C595.37886,673.395601 581.112738,670.761394 581.112738,670.761394 C581.112738,670.761394 604.120118,679.047766 615.710501,687.36919 C627.300883,695.690615 617.037328,701.072759 611.480227,701.790585 C576.263911,706.337475 569.899161,691.506177 543.185428,691.506177 C517.572865,691.506177 396.434951,752.867755 355.238374,722.61953 C312.407059,691.171014 304,624.652181 304,624.652181 L362.489116,617 Z" id="hand-2" fill="#df746b"/><path d="M263.650757,454.264565 C268.847536,464.273819 299.508931,477.962858 299.508931,477.962858 L305,507.345184 L191.160014,519 C177.987275,516.085547 141.022481,488.786399 149.157032,477.962858 C157.291584,467.139316 192.987022,460.552071 198.227995,452.109448 C208.291104,435.900611 210.130165,402.951401 209.852949,390.505277 C209.852949,387.413978 263.860677,399.517402 263.860677,399.517402 C263.860677,399.517402 257.12415,441.694548 263.650757,454.264565 Z" id="neck" fill="#df746b"/><path d="M311.870684,484 C315.29908,486.750952 338.904578,496.688494 346.234702,532.19952 C348.873546,544.980776 365.93347,592.818223 381,631.516085 C366.805079,656.259696 347.035261,671.348041 326.111637,678 L288,592.130984 C288,592.130984 310.683854,494.905063 311.870684,484" id="Cloth-2" fill="#744d5c"/><path d="M259.137851,495.59731 C273.53729,494.042344 285.307178,469.467074 285.758788,468.917732 C286.211399,468.370392 317.260313,484.922677 326.982438,494.282493 C336.767647,668.265604 329.760759,667.297575 326.678027,684.211512 C325.250369,692.0446 317.264589,712.582173 323.042388,735.676523 C323.855641,738.92532 294.611906,743.441732 262.740259,753.477622 C208.080422,770.689163 136.867273,793.552245 132.509178,777.614891 C129.926136,768.168823 134.049995,759.163444 137.984508,753.477622 C142.50237,746.948796 174.642142,688.300416 149.321605,625.75819 C134.807011,607.440808 100.172256,590.084023 93.4051212,538.931237 C90.0816347,513.812629 108.113977,496.361785 114.391452,491.17056 C135.363763,473.827783 168.544555,463.572411 170.779572,464.013685 C184.219716,466.673338 230.649393,498.675223 259.137851,495.59731 Z" id="Cloth-1" fill="#744d5c"/><path d="M322.558668,525.141401 C327.170572,538.984546 333.684607,552.507497 337.401391,566.627943 C339.833474,576.132014 340.305446,586.270486 339.839577,596.025924 C338.872237,617.177667 335.133075,638.217691 330.971782,658.936524 C328.851974,669.486959 327.667974,675.897818 326.990531,677.556641 C326.070998,679.807973 326.345637,673.485891 328.907919,658.576431 C331.465115,641.616134 334.640758,622.505253 336.286559,605.568896 C337.523453,592.868873 337.316965,578.928971 334.53192,566.403509 C332.006256,555.372284 328.062641,545.558992 324.682544,534.719285 C324.488262,533.20809 320.577196,523.737934 322.558668,525.141401" id="Fill-15" fill="#303752"/><path d="M234.122367,649.743546 C234.122367,649.743546 201.972257,680.750891 201.384311,686.281574 C225.471805,792.152721 219.592907,851.131414 224.677301,866.937911 C230.70624,885.675089 247.113319,899.974574 248.101702,909.929699 C248.869891,917.673574 251.824081,923.496967 251.355795,924.169435 C248.094728,928.852731 239.646642,916.269684 239.646642,916.269684 C239.646642,916.269684 235.726985,931.006027 235.726985,945.302718 C235.726985,959.597411 223.55951,949.666266 219.642842,945.677422 C200.576612,926.258783 208.709732,893.684753 204.02886,876.78612 C192.199149,834.086897 122.554526,700.028319 125.239261,664.101602 C127.923996,628.174885 204.925426,569.135329 204.925426,569.135329 L234.122367,649.743546 Z" id="hand-1" fill="#df746b" transform="translate(188.284742, 760.949071) rotate(-40.000000) translate(-188.284742, -760.949071)"/><path d="M62,644.1582 C73.1142051,664.702661 128.054813,667 153.930887,667 C153.930887,667 155.508877,653.408806 160.581146,634.375335 C166.977236,610.374284 98.0039349,511 98.0039349,511 C83.5305931,539.849202 71.140835,588.40843 62,644.1582 Z" id="Cloth-3" fill="#744d5c"/><path d="M157.005302,653.762196 C156.966548,653.083438 157.149044,650.362716 157.266503,649.587554 C161.112624,624.205558 163.459289,615.828873 167.97857,590.442515 C167.979564,590.442515 175.257584,548.726862 177,550.029903 C173.936468,577.387463 157.307382,658.964007 157.005302,653.762196 Z" id="Fill-17" fill="#303752"/></g></g><g id="Head" transform="translate(341.000000, 346.000000) scale(1 1)"><g id="Head/Curls Gray" stroke="none" stroke-width="1" fill="none" fill-rule="evenodd"><path d="M209.1303,107.5764 C209.1303,107.5764 211.1113,98.2314 225.6773,99.2914 C249.2283,101.0044 253.4783,123.9904 248.0753,146.5114 C244.2703,162.3754 239.1843,174.8744 240.7863,183.6624 C243.8583,200.4974 252.5503,201.2874 259.2603,219.7534 C269.9143,249.0734 243.1013,251.2114 242.8423,256.4734 C241.5893,281.9704 233.2363,293.7004 218.5563,299.2784 C196.9123,307.5034 174.1923,296.7264 162.7063,276.6714 C153.0903,259.8794 162.7063,241.4594 162.7063,241.4594 L215.4033,190.6814 L209.1303,107.5764 Z" id="Fill-1" fill="#fbb792"/><path d="M205.767,97.1399 C205.767,97.1399 221.196,104.7289 228.478,125.9879 C232.573,137.9419 231.011,152.6219 233.289,173.3079 C238.947,224.6639 223.805,264.7349 195.664,263.7749 C162.246,262.6339 133.329,242.6749 117.287,231.0709 C101.244,219.4649 98.301,204.9709 98.138,182.0229 C97.976,159.0749 98.811,109.7529 113.625,108.3019 C128.44,106.8519 175.746,74.3719 205.767,97.1399" id="Fill-4" fill="#df746b"/><path d="M107.0614,192.6107 C107.0854,200.5017 138.5724,221.4117 121.8314,250.8917 C133.1984,262.7107 129.9914,309.2527 81.1124,302.6407 C59.6644,331.3287 14.1904,319.5797 19.4464,288.8517 C6.0124,286.2407 -0.5626,264.2947 1.3144,251.8917 C6.1784,219.7527 36.7984,215.7527 36.7984,215.7527 C32.9554,178.8287 66.6264,187.5857 61.9484,162.1677 C57.3234,137.0357 62.3714,102.1827 88.8184,98.0927 C92.4274,61.9707 139.0684,45.6877 171.8234,62.8627 C179.5574,55.7807 232.3524,47.4767 231.2474,95.8587 C230.8724,112.2877 218.1174,134.2907 199.5354,138.0467 C186.4244,140.6987 163.1734,136.0767 155.2004,145.8617 C144.2934,159.2467 142.4374,162.5327 125.8774,170.9817 C119.4584,174.2557 114.9164,170.9817 114.9164,170.9817 C114.9164,170.9817 107.0014,173.2507 107.0614,192.6107 Z" id="Fill-6" fill="#fbb792"/><path d="M114.6781,200.632 C107.5681,204.795 97.8471,199.587 92.2141,195.791 C80.0061,187.565 80.4821,174.231 90.2831,167.039 C97.4451,161.785 107.4351,162.844 116.5011,170.503 C124.3141,177.104 122.7091,195.929 114.6781,200.632" id="Fill-9" fill="#df746b"/><path d="M96.016,174.1125 C101.095,173.1825 106.796,173.8515 110.409,179.1885 C112.059,181.6275 112.088,184.4065 112.941,187.2005 C113.034,187.5055 112.054,188.2285 110.665,184.8685 C108.859,180.5015 105.591,177.7485 102.748,176.5525 C99.045,174.9965 94.592,176.0475 93.924,175.3995 C93.228,174.7245 95.448,174.2165 96.016,174.1125" id="Fill-11" fill="#0d2f4f"/><path d="M109.8988,183.5432 C107.3298,182.2192 102.4328,184.5862 102.2328,184.0792 C101.6118,182.5102 108.2128,179.7712 110.3798,181.5362 C111.9708,182.8322 111.7248,184.4842 109.8988,183.5432" id="Fill-13" fill="#0d2f4f"/><path d="M133.434,241.6965 C134.317,242.0805 139.01,244.7875 141.079,245.8885 C144.872,247.9095 148.686,249.9045 152.55,251.7265 C154.541,252.6705 159.332,254.3425 158.687,254.9035 C157.447,255.9795 146.676,251.9555 139.861,247.4625 C136.238,245.0745 131.925,241.0425 133.434,241.6965" id="Fill-15" fill="#303752"/></g></g><g id="Expressions" transform="translate(462.000000, 479.000000) scale(1 1)"><g id="Expressions/Relaxed" stroke="none" stroke-width="1" fill="none" fill-rule="evenodd"><path d="M93.917,85.9779 C78.288,85.3499 67.34,84.9099 56.819,84.4879 C53.549,84.3559 50.673,90.0739 56.294,97.5689 C64.259,108.1889 84.891,111.8759 93.281,99.0539 C97.555,92.5239 97.31,86.1149 93.917,85.9779" id="Fill-1" fill="#f0efd9"/><path d="M82.7872,55.7084 C86.8282,59.4834 96.9612,74.6464 87.8282,76.8394 C85.9422,77.2914 77.3212,77.5114 78.5922,75.6374 C79.6052,74.1434 85.9772,75.0244 86.8982,72.1854 C88.1082,68.4554 83.7122,61.1524 80.9722,56.1434 C80.5012,55.2804 82.1522,54.9674 82.7872,55.7084" id="nose" fill="#303752"/><path d="M63.2787643,47.5005595 C63.8977643,55.1465595 54.2727643,60.0135595 46.1077643,56.1935595 C41.9017643,54.2275595 39.7587643,51.2665595 40.7837643,50.0295595 C41.4397643,49.2375595 43.3107643,50.3635595 43.9337643,50.7335595 C52.2097643,55.6545595 58.7657643,51.2125595 60.7667643,46.8055595 C61.5487643,45.0855595 63.0797643,45.0435595 63.2787643,47.5005595 Z M104.514164,42.1987595 C103.866164,45.3027595 102.660164,46.8727595 101.140164,47.9767595 C96.7091643,51.1937595 89.4801643,47.9737595 88.0981643,45.0087595 C87.0641643,42.7917595 88.5051643,42.7377595 90.1931643,43.7887595 C92.8701643,45.4587595 95.4171643,45.8007595 97.1021643,45.4817595 C100.340164,44.8707595 101.879164,41.6127595 103.045164,40.2707595 C103.679164,39.5417595 105.019164,39.7827595 104.514164,42.1987595 Z" id="eye" fill="#303752" transform="translate(72.577838, 48.716394) rotate(3.000000) translate(-72.577838, -48.716394)"/><path d="M62.79355,24.2519929 C66.09155,27.4989929 65.39755,33.0019929 61.13355,31.9079929 C49.32655,25.7259929 38.64055,24.0389929 28.38555,32.9259929 C24.70055,36.1199929 22.78655,33.4669929 23.96555,30.1789929 C24.80555,27.8369929 28.41655,23.5259929 31.44155,21.8919929 C41.35255,16.5349929 55.59955,17.1699929 62.79355,24.2519929 Z M106.56795,16.9292929 C108.41995,18.3412929 109.65195,21.1502929 106.65095,21.9192929 C105.57695,22.1952929 94.27495,18.5422929 86.72495,27.4442929 C85.02995,29.4432929 81.19395,28.9722929 81.57395,25.6042929 C82.55195,16.9622929 97.18895,9.78229286 106.56795,16.9292929 Z" id="eybrow" fill="#303752" transform="translate(66.040205, 24.189369) rotate(3.000000) translate(-66.040205, -24.189369)"/></g></g><g id="Facial Accesories" transform="translate(459.000000, 529.000000) scale(1 1)" fill="#0d2f4f"><g id="Facial Accesories/None" stroke="none" stroke-width="1" fill="none" fill-rule="evenodd" fill-opacity="0"/></g><g id="Glass" transform="translate(462.000000, 484.000000) scale(1 1)" fill="#0d2f4f"><g id="Glass/None" stroke="none" stroke-width="1" fill="none" fill-rule="evenodd" fill-opacity="0"/></g></g></g><g transform="translate(2277.000000, 1339.000000) scale(-1, 1) translate(-2277.000000, -1339.000000) translate(1722.000000, 589.000000) scale(1 1)" id="Master/Character/Sitting"><g id="Master/Character/Sitting" stroke="none" stroke-width="1" fill="none" fill-rule="evenodd"><g id="Sitting" transform="translate(179.000000, 940.000000) scale(1 1)"><g id="Sitting/On Chair 3" stroke="none" stroke-width="1" fill="none" fill-rule="evenodd"><path d="M410.615323,399.49997 C410.615323,399.49997 400.357969,471.949685 396.171539,502.905682 C391.949971,534.125643 467.0487,503.736716 467.0487,503.736716 C467.0487,503.736716 453.509565,484.44329 453.304761,479.157997 C453.100961,473.870697 476.218696,412 476.218696,412 L410.615323,399.49997 Z" id="Fill-3" fill="#df746b"/><path d="M561.035706,7.46069873e-14 C597.897949,16.8477074 635.153618,59.3884812 602.589029,139.128809 C570.024441,218.869137 493.394303,411.87247 481.349448,420.555326 C469.305594,429.239182 405.784608,412 405.784608,412 C405.784608,412 412.732597,330.944505 426.534884,251.242608 C436.641716,192.880271 457.952435,150.325862 457.952435,150.325862 C457.952435,150.325862 286.540837,174.784268 243.98254,146.076381 C188.124727,108.397247 229.480836,6.86053872 261.586066,-5.71064401 C302.858588,-21.8713886 490.854841,-32.0758202 561.035706,7.46069873e-14 Z" id="Fill-5" fill="#ca6c68"/><path d="M559.105053,537.550495 C553.718837,520.869499 514.662001,509.852921 486.4598,501.514412 C476.966506,498.70607 463.702961,484.835405 457.545853,485.001479 C448.581857,485.24512 457.367415,503.898122 427.362791,502.274176 C419.4193,501.844571 418.851908,493.484184 401.591555,491.580796 C398.786673,491.272515 394.499152,490.727553 390.796066,497.394383 C388.732001,501.110663 380.282268,534.66359 388.577622,548.345309 C446.664152,549.845942 506.41276,548.363209 558.020392,547.881892 C563.059757,547.834159 560.482433,541.818697 559.105053,537.550495" id="Fill-17" fill="#89555f"/><path d="M654.970564,412 C654.970564,412 665.530533,466.509706 672.596211,475.377601 C679.662889,484.243493 716.32892,494.221378 717.974942,499.698195 C719.618961,505.175012 639.820958,518 639.820958,518 L591,416.698422 L654.970564,412 Z" id="Fill-1" fill="#df746b"/><path d="M790.105053,534.5497 C784.718837,517.869641 745.662001,506.853025 717.4598,498.513492 C707.966506,495.706135 694.702961,481.834427 688.545853,482.001496 C679.581857,482.244144 688.367415,500.898205 658.362791,499.274253 C650.420302,498.844647 649.85291,490.483237 632.591555,488.580837 C629.786673,488.27156 625.499152,487.727591 621.796066,494.393449 C619.732001,498.109742 611.282268,531.662786 619.577622,545.345546 C677.664152,546.846185 737.41276,545.362452 789.020392,544.881134 C794.059757,544.8334 791.482433,538.817918 790.105053,534.5497" id="Fill-10" fill="#89555f"/><path d="M722.704751,510.429527 C726.392384,503.004274 728.005104,501.713139 726.433049,500.543939 C722.673012,497.748284 703.571309,506.385021 702.069675,511.523009 C700.944937,515.373796 713.664197,504.228541 723.820563,502.565701 C719.658833,506.366337 715.778784,518.019983 719.874061,515.696334 C739.826756,504.381943 742.973841,507.006496 742.998637,506.585624 C743.116665,504.585496 735.565843,502.966906 722.704751,510.429527" id="Fill-15" fill="#f37d6e"/><path d="M180.126096,77 C192.090433,138.955221 247.290014,161.21191 295.189049,159.361921 C368.355288,156.536045 442.938988,124.042498 468.151215,113.183029 C465.930109,129.164147 477.804596,220.024734 497.628146,262.074146 C517.451696,304.123559 582.008895,430.623213 582.008895,430.623213 C582.008895,430.623213 654.850327,431.050084 657.965073,413.369038 C660.014248,401.737852 591.630112,76.8494703 569.008895,20.5961921 C556.018259,-11.7082512 513.975789,-25.6487365 427.5,-33 C340.646127,-40.3834042 214.030282,-26.7715765 214.030282,-26.7715765 C214.030282,-26.7715765 168.16176,15.0447792 180.126096,77 Z" id="Fill-7" fill="#f37d6e"/><path d="M491.704751,514.429893 C495.392384,507.004835 497.005104,505.713735 495.432058,504.543583 C491.67202,501.748984 472.571309,510.385493 471.069675,515.522362 C469.944937,519.373048 482.664197,508.228087 492.820563,506.566274 C488.658833,510.36681 484.777792,522.019165 488.874061,519.69656 C508.826756,508.381485 511.973841,511.005969 511.998637,510.585107 C512.116665,508.585032 504.565843,506.966486 491.704751,514.429893" id="Fill-22" fill="#f37d6e"/><path d="M546.8316,554.3915 L407.0166,556.8575 C397.6626,557.2315 383.6706,554.0145 382.3176,546.2435 C381.3066,540.4375 383.5546,527.7955 384.0206,526.9545 C387.2776,521.0945 415.0326,526.0385 423.1176,545.8275 C474.1316,549.6495 561.0086,545.9125 561.0086,545.9125 C561.0086,545.9125 562.3126,553.5935 546.8316,554.3915" id="Fill-19" fill="#303752"/><path d="M777.7223,550.7851 L637.9073,553.2511 C628.5543,553.6251 614.5613,550.4091 613.2083,542.6381 C612.1983,536.8321 614.4453,524.1901 614.9123,523.3491 C618.1683,517.4891 645.9233,522.4331 654.0083,542.2221 C705.0223,546.0441 791.9003,542.3071 791.9003,542.3071 C791.9003,542.3071 793.2033,549.9881 777.7223,550.7851" id="Fill-12" fill="#303752"/></g></g><g id="Upper Body/Sitting" transform="translate(243.000000, 170.000000) scale(1 1.0010526315789474)"><g id="Upper Body/Sitting/Hands Up 2" stroke="none" stroke-width="1" fill="none" fill-rule="evenodd"><path d="M386.80649,167.842661 C386.80649,167.842661 419.924998,96.8221466 423.08097,89.7424957 C435.567632,61.7317223 426.329949,63.8038774 429.60891,47.8882704 C433.301614,29.9733458 427.673114,20.8264885 429.60891,19.6944412 C440.610069,13.2648517 442.988589,38.7833778 444.437688,34.071343 C449.296667,18.2826292 458.094195,13.1489492 463.278971,7.36781402 C470.159692,-0.303730375 481.969348,12.81523 485.00446,16.3552511 C491.906168,24.4044777 488.490292,40.3627117 485.00446,53.5216384 C477.531108,81.7309004 463.826209,77.6120707 452.204436,100.552766 C447.9291,108.99167 438.017059,159.425678 423.08097,209.763492 C397.412354,296.272216 361.897039,398.031571 350.694898,398.031571 C338.243741,398.031571 300.809412,400.210537 297.566876,398.031571 C292.43225,394.581131 322.178789,317.851495 386.80649,167.842661 Z" id="hand-2" fill="#df746b"/><path d="M267.588011,480.133487 C263.343107,471.907325 245.913227,454.395032 252.450913,442.212308 C258.988599,430.030576 280.58439,438.589588 283.792507,444.037042 C302.005408,474.959445 275.077567,494.648145 267.588011,480.133487" id="t-4" fill="#89555f"/><path d="M61.8588561,226.851213 C61.8588561,226.851213 53.9575274,101.190291 48.4357774,83.7300706 C42.9130263,66.2708496 40.9614628,68.3836502 25.7125835,55.6677724 C8.06120231,40.9460181 8.84176992,32.9800579 11.5762911,31.9429763 C19.3864408,35.1211392 -7.73304049,5.26888534 12.9545726,0.232184711 C40.2432882,-6.41165045 43.21434,15.7951213 56.6253055,19.6529605 C58.9317072,20.3155893 52.8914172,9.61058524 58.0608003,4.3375387 C63.4904545,-1.20135894 63.8268047,7.65068299 66.052122,11.2006946 C72.7310771,21.8487306 77.6522017,40.7531422 77.6522017,52.4695797 C77.6522017,68.0928291 116.453607,193.336679 116.453607,193.336679 C143.583733,321.1908 155.183934,387.405409 151.254211,391.980509 C135.549054,410.264918 108.96651,415.514299 101.75982,418.965904 C98.1495126,420.69504 84.8491912,356.65681 61.8588561,226.851213 Z" id="hand-1" fill="#df746b"/><path d="M214.712995,398 C214.712995,398 213.881817,427.599337 208.193919,443.472803 C205.002024,452.380564 189.321889,446.288429 197.178278,464.198077 C211.5211,496.894385 270.541109,538.913797 281.692563,528.334893 C292.841653,517.759062 310.629214,512.779291 297.172344,480.008121 C295.434745,475.778389 265.862778,460.511381 264.490937,455.918414 C255.920186,427.238888 266.61233,398 266.61233,398 L214.712995,398 Z" id="neck" fill="#df746b"/><g id="tshirt" transform="translate(52.000000, 151.000000)" fill="#744d5c"><path d="M280.213721,105.528538 C295.457321,67.6228011 328.287344,25.9722546 325.304393,14.5177703 C322.321443,3.06328592 327.306872,-0.0397483352 331.532193,1 C339.916957,3.06328592 370.7207,17.0958236 381.0077,22.2388236 C391.2947,27.3828236 386.1517,33.3838236 386.1517,33.3838236 C386.1517,33.3838236 355.205809,120.226593 346.479399,147.882824 C325.304393,214.991844 307.488611,264.097331 295.155027,292.312036 C280.836988,325.066443 280.213721,364.017529 280.213721,364.017529 C280.213721,364.017529 234.592728,362.268392 237.299269,336 C240.435735,305.558968 209.246583,301.068667 209.246583,284.293633 C209.246583,265.700454 264.970121,143.434275 280.213721,105.528538 Z" id="t-3"/><path d="M218.057498,356.726098 C236.35046,354.646966 229.144391,316.111887 229.144391,316.111887 C229.144391,316.111887 253.732874,330.203285 269.710874,333.757285 C269.710874,356.444285 305.313652,384.127106 302.376,431.569461 C299.438348,479.011817 270.783107,533.587824 290.141688,565.369688 C294.238519,572.095643 295.90195,581.449733 290.141688,584.392928 C269.710874,594.832014 189.682788,603.988175 116.802634,638.236461 C106.337797,643.154161 60.8744197,671.161113 57.1046045,662 C44.3459889,630.995 100.559,623.973424 106.367,484.705424 C108.708,428.583424 77.211,381.492424 76.017,365.969424 C74.823,350.447424 78.405,347.461424 96.315,327.163424 C114.227,306.864424 122.897,246.884424 133.699,267.138424 C144.501,287.391424 161.449,289.995424 167.958,328.357424 C167.958,328.357424 209.509083,357.69769 218.057498,356.726098 Z" id="t-2"/><path d="M0,52.6924236 C0,52.6924236 25.846,27.8874236 51.775,23.9984236 C77.706,20.1084236 69.85,28.7884236 69.85,28.7884236 C69.85,28.7884236 95.402,202.823424 116.146,236.533424 C136.891,270.242424 143.151,283.340424 143.151,283.340424 L79.775,377.169424 C79.775,377.169424 33.77,300.302424 31.176,249.738424 C28.583,199.173424 25.315,181.545424 20.129,163.393424 C14.943,145.243424 2.593,78.6234236 0,52.6924236" id="t-1"/></g></g></g><g id="Head" transform="translate(341.000000, 346.000000) scale(1 1)"><g id="Head/Ponytail Blue" stroke="none" stroke-width="1" fill="none" fill-rule="evenodd"><path d="M186.9964,62.8355 C217.2344,59.0265 198.7284,80.4845 209.6584,91.4535 C220.2254,102.0605 236.9284,103.5395 237.5074,152.7225 C237.7864,176.3945 249.110317,198.629791 229.121449,243.279848 C221.151174,261.083419 203.0324,276.4905 190.8944,276.4905 C159.5154,276.4905 114.5994,224.9675 114.5994,224.9675 C111.678535,222.113515 109.230749,218.089598 107.213306,213.593181 C99.2318415,214.610508 84.28954,210.476592 79.7281,197.7576 C76.4331,188.5696 78.6431,175.6606 85.5011,173.7346 C91.6130979,172.016106 96.5055762,174.28179 100.299595,177.50238 C107.532681,158.534519 158.929296,66.3728944 186.9964,62.8355 Z" id="Combined-Shape" fill="#df746b"/><path d="M102.4979,192.4939 C99.6249,186.7259 92.7039,183.1519 86.7259,187.1879 C85.3729,188.1009 87.2409,188.1409 87.8109,188.0779 C94.9129,187.1489 97.6879,189.6729 100.0209,193.7109 C97.7899,194.2579 95.5609,196.2429 95.2749,198.4849 C95.1019,199.8609 95.8059,204.2659 96.2729,202.6739 C96.5259,201.8099 95.9119,195.5269 101.2009,196.0799 C101.2809,196.0979 103.1299,199.2849 103.6499,199.5149 C104.5389,199.9079 103.8099,195.1309 102.4979,192.4939" id="Fill-10" fill="#303752"/><path d="M138.080287,248.001974 C138.792924,248.108023 144.270382,252.072286 145.939382,253.386286 C152.268382,258.363286 157.59636,262.084659 165.385454,267.257016 C166.885041,268.252818 170.414336,270.174143 170.322336,270.650143 C170.189336,271.322143 165.46035,270.219413 164.070319,269.514911 C155.808854,265.327792 147.737728,257.41647 141.985788,252.274316 C140.105418,250.593292 137.509424,247.917023 138.080287,248.001974 Z" id="Fill-12" fill="#303752"/><path d="M150.6438,159.4289 C163.984666,146.458309 179.2618,130.0339 179.2618,124.3129 C176.5508,140.2049 176.4468,144.5609 170.5558,158.0789 C179.5208,154.1709 199.725465,124.3129 201.3348,106.377934 C213.9648,132.779934 228.478637,120.306515 237.1438,152.9279 C246.6318,140.8489 240.4388,89.8279 220.3338,70.9229 C211.6178,62.7269 205.1038,63.8029 201.3348,64.9799 C195.935366,37.9444845 157.374931,41.3367027 147.9268,45.1285 C149.2828,21.6085 130.4668,-22.9851 111.4908,-23.6201 C92.5158,-24.2561 52.2558,-29.6931 26.6028,33.8829 C16.2298,59.5889 16.2568,72.5719 39.1068,138.3549 C48.9488,166.6939 7.8818,175.9439 11.1898,178.9579 C18.8538,185.9379 59.6718,185.0439 65.5088,154.3809 C71.4848,122.9839 70.1318,121.3729 71.5848,111.8539 C70.3138,128.9209 72.127286,151.126397 90.373286,171.901397 C97.223286,177.556397 100.6148,174.0549 110.0338,188.1449 C111.8428,190.8499 117.6018,205.7239 119.8378,200.8289 C122.5318,194.9299 115.5928,174.7089 117.4608,174.5329 C124.2378,173.8969 140.347601,169.439329 150.6438,159.4289 Z" id="Fill-3" fill="#483e56"/><path d="M122.036418,49.6342397 C130.50821,45.6673042 140.939866,43.6629013 147.9268,45.1285 C151.0178,37.6225 147.8908,35.6535 147.8908,35.6535 C147.8908,35.6535 140.5188,28.6145 126.1018,34.7965 C111.6838,40.9785 106.434868,52.0960291 106.661062,54.6087238 C106.811407,56.2788379 107.62493,57.5814173 109.9168,57.7575 C109.9168,57.7575 115.59775,52.6491608 122.036418,49.6342397 Z" id="Fill-6" fill="#9e5d62"/></g></g><g id="Expressions" transform="translate(462.000000, 479.000000) scale(1 1)"><g id="Expressions/Smile" stroke="none" stroke-width="1" fill="none" fill-rule="evenodd"><g id="eye1" transform="translate(21.027098, 10.213671)"><path d="M0.0487023333,7.96572872 C1.82485498,-0.0171869856 25.1977023,-2.81531309 35.4827023,3.36568691 C39.0387023,5.47868691 45.6427023,11.2837287 39.7957023,14.4437287 C38.2517023,15.1157287 36.7517023,14.4267287 35.4827023,13.6077287 C21.4647023,3.86572872 -1.18942441,13.5304877 0.0487023333,7.96572872 Z" id="Fill-1" fill="#303752"/><path d="M19.0113023,22.3973287 C13.7233023,23.8973287 9.19030233,28.1473287 8.76930233,31.6693287 C8.51430233,33.7973287 16.8643023,38.9063287 24.9173023,39.3033287 C35.5113023,39.8243287 40.8513023,34.0853287 40.8324531,32.2513287 C40.1193023,26.7013287 33.7283023,18.2233287 19.0113023,22.3973287 Z" id="Fill-6" fill="#f0efd9"/><path d="M35.3981023,25.5550287 C27.2551023,19.4010287 14.6431023,23.4110287 8.76910233,31.6690287 C8.43210233,32.0970287 8.52910233,31.0200287 8.76310233,30.5290287 C11.5971023,24.5820287 16.7101023,21.7750287 22.6381023,20.5510287 C26.2051023,19.8140287 29.5311023,19.7540287 33.0101023,21.3120287 C34.3551023,21.9130287 36.7311023,23.7450287 38.5671023,25.8170287 C39.9991023,27.4320287 41.2051023,30.2010287 39.5481023,29.2220287 C38.2511023,28.4550287 36.4781023,26.3720287 35.3981023,25.5550287 Z" id="Fill-8" fill="#303752"/><path d="M24.8135023,36.0623287 C29.3405023,36.0623287 33.0105023,32.7143287 33.0105023,28.5833287 C33.0105023,24.4533287 29.3405023,21.1043287 24.8135023,21.1043287 C20.2865023,21.1043287 16.6165023,24.4533287 16.6165023,28.5833287 C16.6165023,32.7143287 20.2865023,36.0623287 24.8135023,36.0623287 Z" id="Fill-10" fill="#303752"/></g><g id="eye2" transform="translate(81.203378, 15.000183)"><path d="M23.2557812,1.861246 C26.6096324,3.34897691 31.0744206,8.28711729 27.357522,8.28711729 C23.6406234,8.28711729 15.5900245,7.23270759 10.1930245,9.45970759 C8.30802454,9.94170759 6.87752199,10.8641173 4.98452199,11.0891173 C0.67652199,11.9281173 -1.66408888,6.76839233 1.38185604,3.64904337 C4.82290212,0.125071736 16.4397812,-1.545754 23.2557812,1.861246 Z" id="Fill-4" fill="#303752"/><path d="M19.455322,34.2343173 C24.826322,32.9853173 28.843322,28.1153173 28.389322,24.4763173 C27.503322,19.6543173 18.218322,16.5753173 13.017322,19.2083173 C7.86632199,21.8153173 4.64332199,27.6403173 5.05932199,29.9403173 C5.66032199,31.5323173 13.966322,35.5113173 19.455322,34.2343173 Z" id="Fill-12" fill="#f0efd9"/><path d="M15.011222,31.6060173 C18.549222,31.6060173 21.417222,28.8520173 21.417222,25.4560173 C21.417222,22.0590173 19.396222,18.8490173 15.011222,19.3060173 C11.492222,19.6720173 8.60422199,22.0590173 8.60422199,25.4560173 C8.60422199,28.8520173 11.473222,31.6060173 15.011222,31.6060173 Z" id="Fill-14" fill="#303752"/><path d="M5.25072199,26.6376173 C7.27972199,19.0636173 16.440722,15.1686173 23.685722,18.7546173 C24.705722,19.2866173 26.361722,20.4806173 27.601722,21.9226173 C28.742722,23.2526173 28.593722,23.9496173 28.127722,23.8116173 C27.355722,23.5816173 25.722722,22.1166173 24.395722,21.4866173 C17.685722,18.3036173 10.704722,20.0896173 5.59372199,27.5586173 C5.34272199,27.9456173 5.10472199,27.0746173 5.25072199,26.6376173" id="Fill-22" fill="#303752"/></g><path d="M86.9879908,70.3386563 C86.0131141,75.2575144 79.9689699,75.7359636 76.0323155,74.6212963 C72.832522,73.7152719 72.0034674,71.851321 73.0853454,71.2537752 C74.8485675,70.2799076 80.4997296,72.9889887 82.5858367,70.4027854 C86.305606,65.7912866 74.8914605,48.8346319 78.5177277,51.5592059 C83.3102149,55.1600121 87.6386051,67.0559034 86.9879908,70.3386563 Z" id="nose" fill="#303752"/><path d="M89.6387968,90.5818454 C88.8707672,91.1602445 87.0677709,93.5463983 85.244688,95.0617056 C81.1444698,98.4697185 74.4745751,99.2530639 70.5444286,98.4697185 C63.1559339,96.997065 59.9595527,92.178225 58.0067117,90.8585998 C56.0538707,89.5389745 59.7200172,87.8442758 62.5249361,88.0931395 C65.3298551,88.3420033 67.2123883,89.156182 72.5654423,91.4592717 C76.0199316,92.9455259 83.8310598,90.8585998 86.0381944,89.5389745 C90.2484115,87.021725 91.5113061,89.1716685 89.6387968,90.5818454 Z" id="Fill-18" fill="#303752"/></g></g><g id="Facial Accesories" transform="translate(459.000000, 529.000000) scale(1 1)" fill="#0d2f4f"><g id="Facial Accesories/None" stroke="none" stroke-width="1" fill="none" fill-rule="evenodd" fill-opacity="0"/></g><g id="Glass" transform="translate(462.000000, 484.000000) scale(1 1)" fill="#0d2f4f"><g id="Glass/None" stroke="none" stroke-width="1" fill="none" fill-rule="evenodd" fill-opacity="0"/></g></g></g></g></svg>