<svg viewBox="190.10000000000014 -18.98795180722891 1568.3250000000003 1613.9759036144578" fill="none" xmlns="http://www.w3.org/2000/svg" xmlns:xlink="http://www.w3.org/1999/xlink" overflow="visible" width="1568.3250000000003px" height="1613.9759036144578px"><g id="Master/Compositions/Rock n Rollin"><g id="Location Comp" transform="translate(195 121) scale(1 1)"><g id="Location Comp/Tree"><g id="Cloud"><g id="Group 3"><path id="Fill 1" fill-rule="evenodd" clip-rule="evenodd" d="M968.481 353.693C938.089 323.31 899.496 304.373 856.872 298.929L855.759 298.786L855.95 297.681C863.416 254.279 849.322 209.821 818.248 178.756C794.224 154.738 762.313 140.69 728.396 139.2C694.693 137.714 661.886 148.704 636.013 170.133L635.306 170.719L634.617 170.111C559.93 104.299 463.829 69.6852 364.009 72.6297C263.759 75.5943 169.473 116.291 98.5192 187.225L97 185.706C168.342 114.384 263.145 73.4625 363.946 70.4829C464.002 67.5148 560.352 102.114 635.351 167.896C661.524 146.511 694.547 135.554 728.49 137.053C762.946 138.567 795.362 152.838 819.768 177.237C851.07 208.531 865.411 253.205 858.252 296.942C900.915 302.632 939.531 321.714 970 352.174L968.481 353.693Z" fill="black"/></g><g id="Group 6"><path id="Fill 4" fill-rule="evenodd" clip-rule="evenodd" d="M30.1586 647.693C-8.47978 554.649 -10.0408 451.575 25.7608 357.461C61.4075 263.755 130.547 187.917 220.441 143.921L221.387 145.847C131.985 189.603 63.2228 265.026 27.7702 358.223C-7.83647 451.823 -6.28337 554.334 32.1436 646.872L30.1586 647.693Z" fill="black"/></g><path id="Fill 7" fill-rule="evenodd" clip-rule="evenodd" d="M934.308 576L933.047 574.254C960.518 554.665 979.592 525.717 986.755 492.743C993.964 459.556 988.431 425.123 971.177 395.789C948.861 357.848 909.169 332.933 865 329.14L865.186 327C910.054 330.852 950.375 356.163 973.044 394.704C990.572 424.505 996.192 459.482 988.869 493.195C981.594 526.692 962.216 556.1 934.308 576" fill="black"/></g><g id="Tree"><path id="Rectangle" fill-rule="evenodd" clip-rule="evenodd" d="M1155 1459V659H991V1459H1155ZM994 662H1152V1456H994V662Z" fill="black"/><path id="Fill 188" fill-rule="evenodd" clip-rule="evenodd" d="M1032 1459C1030.9 1459 1030 1458.11 1030 1457.01V503.988C1030 502.89 1030.9 502 1032 502C1033.1 502 1034 502.89 1034 503.988V1457.01C1034 1458.11 1033.1 1459 1032 1459" fill="black"/><path id="Fill 189" fill-rule="evenodd" clip-rule="evenodd" d="M1071 1459C1069.9 1459 1069 1458.11 1069 1457.01V503.988C1069 502.89 1069.9 502 1071 502C1072.1 502 1073 502.89 1073 503.988V1457.01C1073 1458.11 1072.1 1459 1071 1459" fill="black"/><path id="Fill 191" fill-rule="evenodd" clip-rule="evenodd" d="M1114 1459C1112.9 1459 1112 1458.11 1112 1457.01V503.988C1112 502.89 1112.9 502 1114 502C1115.1 502 1116 502.89 1116 503.988V1457.01C1116 1458.11 1115.1 1459 1114 1459" fill="black"/><path id="Fill 192" fill-rule="evenodd" clip-rule="evenodd" d="M1427.34 299.072C1427.44 295.394 1427.5 291.704 1427.5 288C1427.5 83.1017 1261.42 -83 1056.54 -83C851.656 -83 685.567 83.1017 685.567 288C685.567 301.339 685 478.432 685 478.432C685 578.156 765.837 659 865.554 659H1378.45C1478.16 659 1559 578.156 1559 478.432V472.937C1559 390.157 1503.3 320.393 1427.34 299.072" fill="white"/><path id="Fill 193" fill-rule="evenodd" clip-rule="evenodd" d="M1056.54 -81.0015C1006.72 -81.0015 958.403 -71.2453 912.916 -52.0047C868.979 -33.4189 829.52 -6.81318 795.633 27.0767C761.747 60.9657 735.143 100.428 716.559 144.368C697.319 189.859 687.564 238.184 687.564 288C687.564 301.189 687.003 476.666 686.998 478.438C686.998 576.895 767.098 657.002 865.553 657.002H1378.45C1476.9 657.002 1557 576.895 1557 478.432V472.937C1557 433.201 1544.23 395.592 1520.07 364.176C1496.67 333.748 1463.54 311.311 1426.8 300.997L1425.29 300.574L1425.34 299.014C1425.45 295.223 1425.51 291.518 1425.51 288C1425.51 238.184 1415.75 189.859 1396.51 144.368C1377.93 100.428 1351.32 60.9657 1317.44 27.0767C1283.55 -6.81318 1244.09 -33.4189 1200.16 -52.0047C1154.67 -71.2453 1106.35 -81.0015 1056.54 -81.0015M1378.45 661H865.553C764.893 661 683 579.1 683 478.431C683.005 476.654 683.566 301.184 683.566 288C683.566 237.646 693.428 188.797 712.877 142.811C731.662 98.3942 758.554 58.5046 792.806 24.2498C827.059 -10.006 866.945 -36.9006 911.358 -55.6873C957.341 -75.1378 1006.19 -85 1056.54 -85C1106.89 -85 1155.73 -75.1378 1201.71 -55.6873C1246.13 -36.9006 1286.01 -10.006 1320.27 24.2498C1354.52 58.5046 1381.41 98.3942 1400.19 142.811C1419.64 188.797 1429.51 237.646 1429.51 288C1429.51 291.073 1429.46 294.288 1429.38 297.575C1466.35 308.306 1499.63 331.046 1523.24 361.739C1547.94 393.859 1561 432.311 1561 472.937V478.431C1561 579.1 1479.11 661 1378.45 661" fill="black"/><path id="Fill 194" fill-rule="evenodd" clip-rule="evenodd" d="M1290.49 432C1288 431.992 1285.99 429.972 1286 427.486C1286.01 425.001 1288.03 422.991 1290.51 423C1293 423.008 1295.01 425.028 1295 427.514C1294.99 429.999 1292.97 432.009 1290.49 432" fill="black"/><path id="Fill 195" fill-rule="evenodd" clip-rule="evenodd" d="M1327.49 518C1325 517.992 1322.99 515.972 1323 513.486C1323.01 511.001 1325.03 508.991 1327.51 509C1330 509.008 1332.01 511.028 1332 513.514C1331.99 515.999 1329.97 518.009 1327.49 518" fill="black"/><path id="Fill 196" fill-rule="evenodd" clip-rule="evenodd" d="M1293.49 558C1291 557.991 1288.99 555.971 1289 553.486C1289.01 551 1291.03 548.992 1293.51 549C1296 549.009 1298.01 551.029 1298 553.514C1297.99 556 1295.97 558.008 1293.49 558" fill="black"/><path id="Fill 197" fill-rule="evenodd" clip-rule="evenodd" d="M1233.49 558C1231 557.991 1228.99 555.971 1229 553.486C1229.01 551 1231.03 548.992 1233.51 549C1236 549.009 1238.01 551.029 1238 553.514C1237.99 556 1235.97 558.008 1233.49 558" fill="black"/><path id="Fill 198" fill-rule="evenodd" clip-rule="evenodd" d="M1254.49 597C1252 596.992 1249.99 594.972 1250 592.486C1250.01 590.001 1252.03 587.992 1254.51 588C1257 588.008 1259.01 590.028 1259 592.514C1258.99 594.999 1256.97 597.009 1254.49 597" fill="black"/><path id="Fill 199" fill-rule="evenodd" clip-rule="evenodd" d="M1318.49 604C1316 603.991 1313.99 601.971 1314 599.486C1314.01 597 1316.03 594.992 1318.51 595C1321 595.009 1323.01 597.029 1323 599.514C1322.99 602 1320.97 604.008 1318.49 604" fill="black"/><path id="Fill 200" fill-rule="evenodd" clip-rule="evenodd" d="M1461.49 433C1459 432.991 1456.99 430.971 1457 428.486C1457.01 426 1459.03 423.992 1461.51 424C1464 424.009 1466.01 426.029 1466 428.514C1465.99 431 1463.97 433.008 1461.49 433" fill="black"/><path id="Fill 201" fill-rule="evenodd" clip-rule="evenodd" d="M1363.49 466C1361 465.992 1358.99 463.972 1359 461.486C1359.01 459.001 1361.03 456.991 1363.51 457C1366 457.008 1368.01 459.028 1368 461.514C1367.99 463.999 1365.97 466.009 1363.49 466" fill="black"/><path id="Fill 202" fill-rule="evenodd" clip-rule="evenodd" d="M1427.49 472C1425 471.992 1422.99 469.972 1423 467.486C1423.01 465.001 1425.03 462.991 1427.51 463C1430 463.008 1432.01 465.028 1432 467.514C1431.99 469.999 1429.97 472.009 1427.49 472" fill="black"/><path id="Fill 203" fill-rule="evenodd" clip-rule="evenodd" d="M1388.49 512C1386 511.992 1383.99 509.971 1384 507.486C1384.01 505 1386.03 502.992 1388.51 503C1391 503.009 1393.01 505.029 1393 507.514C1392.99 510 1390.97 512.008 1388.49 512" fill="black"/><path id="Fill 204" fill-rule="evenodd" clip-rule="evenodd" d="M1452.49 518C1450 517.992 1447.99 515.972 1448 513.486C1448.01 511.001 1450.03 508.991 1452.51 509C1455 509.008 1457.01 511.028 1457 513.514C1456.99 515.999 1454.97 518.009 1452.49 518" fill="black"/><path id="Fill 205" fill-rule="evenodd" clip-rule="evenodd" d="M1355.49 552C1353 551.991 1350.99 549.971 1351 547.486C1351.01 545 1353.03 542.992 1355.51 543C1358 543.008 1360.01 545.029 1360 547.514C1359.99 550 1357.97 552.008 1355.49 552" fill="black"/><path id="Fill 206" fill-rule="evenodd" clip-rule="evenodd" d="M1419.49 558C1417 557.991 1414.99 555.971 1415 553.486C1415.01 551 1417.03 548.992 1419.51 549C1422 549.009 1424.01 551.029 1424 553.514C1423.99 556 1421.97 558.008 1419.49 558" fill="black"/><path id="Fill 207" fill-rule="evenodd" clip-rule="evenodd" d="M1380.49 597C1378 596.992 1375.99 594.972 1376 592.486C1376.01 590.001 1378.03 587.992 1380.51 588C1383 588.008 1385.01 590.028 1385 592.514C1384.99 594.999 1382.97 597.009 1380.49 597" fill="black"/><path id="Fill 208" fill-rule="evenodd" clip-rule="evenodd" d="M1444.49 604C1442 603.991 1439.99 601.971 1440 599.486C1440.01 597 1442.03 594.992 1444.51 595C1447 595.009 1449.01 597.029 1449 599.514C1448.99 602 1446.97 604.008 1444.49 604" fill="black"/><path id="Fill 209" fill-rule="evenodd" clip-rule="evenodd" d="M1489.49 466C1487 465.992 1484.99 463.972 1485 461.486C1485.01 459.001 1487.03 456.991 1489.51 457C1492 457.008 1494.01 459.028 1494 461.514C1493.99 463.999 1491.97 466.009 1489.49 466" fill="black"/><path id="Fill 210" fill-rule="evenodd" clip-rule="evenodd" d="M1514.49 512C1512 511.992 1509.99 509.971 1510 507.486C1510.01 505 1512.03 502.992 1514.51 503C1517 503.009 1519.01 505.029 1519 507.514C1518.99 510 1516.97 512.008 1514.49 512" fill="black"/><path id="Fill 211" fill-rule="evenodd" clip-rule="evenodd" d="M1480.49 552C1478 551.991 1475.99 549.971 1476 547.486C1476.01 545 1478.03 542.992 1480.51 543C1483 543.008 1485.01 545.029 1485 547.514C1484.99 550 1482.97 552.008 1480.49 552" fill="black"/><path id="Fill 212" fill-rule="evenodd" clip-rule="evenodd" d="M1171.49 170C1169 169.992 1166.99 167.971 1167 165.486C1167.01 163 1169.03 160.992 1171.51 161C1174 161.009 1176.01 163.029 1176 165.514C1175.99 168 1173.97 170.008 1171.49 170" fill="black"/><path id="Fill 213" fill-rule="evenodd" clip-rule="evenodd" d="M1207.49 256C1205 255.992 1202.99 253.972 1203 251.486C1203.01 249.001 1205.03 246.991 1207.51 247C1210 247.008 1212.01 249.028 1212 251.514C1211.99 253.999 1209.97 256.008 1207.49 256" fill="black"/><path id="Fill 214" fill-rule="evenodd" clip-rule="evenodd" d="M1173.49 296C1171 295.991 1168.99 293.971 1169 291.486C1169.01 289 1171.03 286.992 1173.51 287C1176 287.009 1178.01 289.029 1178 291.514C1177.99 294 1175.97 296.008 1173.49 296" fill="black"/><path id="Fill 215" fill-rule="evenodd" clip-rule="evenodd" d="M1114.49 296C1112 295.991 1109.99 293.971 1110 291.486C1110.01 289 1112.03 286.992 1114.51 287C1117 287.009 1119.01 289.029 1119 291.514C1118.99 294 1116.97 296.008 1114.49 296" fill="black"/><path id="Fill 216" fill-rule="evenodd" clip-rule="evenodd" d="M1134.49 335C1132 334.992 1129.99 332.972 1130 330.486C1130.01 328.001 1132.03 325.991 1134.51 326C1137 326.008 1139.01 328.028 1139 330.514C1138.99 332.999 1136.97 335.009 1134.49 335" fill="black"/><path id="Fill 217" fill-rule="evenodd" clip-rule="evenodd" d="M1198.49 341C1196 340.991 1193.99 338.971 1194 336.486C1194.01 334 1196.03 331.992 1198.51 332C1201 332.008 1203.01 334.029 1203 336.514C1202.99 339 1200.97 341.008 1198.49 341" fill="black"/><path id="Fill 218" fill-rule="evenodd" clip-rule="evenodd" d="M1341.49 170C1339 169.992 1336.99 167.971 1337 165.486C1337.01 163 1339.03 160.992 1341.51 161C1344 161.009 1346.01 163.029 1346 165.514C1345.99 168 1343.97 170.008 1341.49 170" fill="black"/><path id="Fill 219" fill-rule="evenodd" clip-rule="evenodd" d="M1244.49 204C1242 203.991 1239.99 201.971 1240 199.486C1240.01 197 1242.03 194.992 1244.51 195C1247 195.009 1249.01 197.029 1249 199.514C1248.99 202 1246.97 204.008 1244.49 204" fill="black"/><path id="Fill 220" fill-rule="evenodd" clip-rule="evenodd" d="M1308.49 210C1306 209.992 1303.99 207.972 1304 205.486C1304.01 203.001 1306.03 200.991 1308.51 201C1311 201.008 1313.01 203.028 1313 205.514C1312.99 207.999 1310.97 210.009 1308.49 210" fill="black"/><path id="Fill 221" fill-rule="evenodd" clip-rule="evenodd" d="M1268.49 250C1266 249.991 1263.99 247.971 1264 245.486C1264.01 243 1266.03 240.992 1268.51 241C1271 241.009 1273.01 243.029 1273 245.514C1272.99 248 1270.97 250.008 1268.49 250" fill="black"/><path id="Fill 222" fill-rule="evenodd" clip-rule="evenodd" d="M1333.49 256C1331 255.992 1328.99 253.972 1329 251.486C1329.01 249.001 1331.03 246.991 1333.51 247C1336 247.008 1338.01 249.028 1338 251.514C1337.99 253.999 1335.97 256.008 1333.49 256" fill="black"/><path id="Fill 223" fill-rule="evenodd" clip-rule="evenodd" d="M1235.49 289C1233 288.992 1230.99 286.972 1231 284.486C1231.01 282.001 1233.03 279.991 1235.51 280C1238 280.008 1240.01 282.028 1240 284.514C1239.99 286.999 1237.97 289.009 1235.49 289" fill="black"/><path id="Fill 224" fill-rule="evenodd" clip-rule="evenodd" d="M1299.49 296C1297 295.991 1294.99 293.971 1295 291.486C1295.01 289 1297.03 286.992 1299.51 287C1302 287.009 1304.01 289.029 1304 291.514C1303.99 294 1301.97 296.008 1299.49 296" fill="black"/><path id="Fill 225" fill-rule="evenodd" clip-rule="evenodd" d="M1260.49 335C1258 334.992 1255.99 332.972 1256 330.486C1256.01 328.001 1258.03 325.991 1260.51 326C1263 326.008 1265.01 328.028 1265 330.514C1264.99 332.999 1262.97 335.009 1260.49 335" fill="black"/><path id="Fill 226" fill-rule="evenodd" clip-rule="evenodd" d="M1324.49 341C1322 340.991 1319.99 338.971 1320 336.486C1320.01 334 1322.03 331.992 1324.51 332C1327 332.008 1329.01 334.029 1329 336.514C1328.99 339 1326.97 341.008 1324.49 341" fill="black"/><path id="Fill 227" fill-rule="evenodd" clip-rule="evenodd" d="M1369.49 204C1367 203.991 1364.99 201.971 1365 199.486C1365.01 197 1367.03 194.992 1369.51 195C1372 195.009 1374.01 197.029 1374 199.514C1373.99 202 1371.97 204.008 1369.49 204" fill="black"/><path id="Fill 228" fill-rule="evenodd" clip-rule="evenodd" d="M1394.49 250C1392 249.991 1389.99 247.971 1390 245.486C1390.01 243 1392.03 240.992 1394.51 241C1397 241.009 1399.01 243.029 1399 245.514C1398.99 248 1396.97 250.008 1394.49 250" fill="black"/><path id="Fill 229" fill-rule="evenodd" clip-rule="evenodd" d="M1361.49 289C1359 288.992 1356.99 286.972 1357 284.486C1357.01 282.001 1359.03 279.991 1361.51 280C1364 280.008 1366.01 282.028 1366 284.514C1365.99 286.999 1363.97 289.009 1361.49 289" fill="black"/></g><g id="Group"><path id="Fill 37" fill-rule="evenodd" clip-rule="evenodd" d="M348.914 279.217C333.48 294.638 308.457 294.638 293.024 279.217C277.59 263.796 277.59 238.794 293.024 223.372C308.457 207.951 333.48 207.951 348.914 223.372C364.347 238.794 364.347 263.796 348.914 279.217" fill="white"/><path id="Fill 37 Copy" fill-rule="evenodd" clip-rule="evenodd" d="M291.963 280.278C307.822 296.124 333.436 296.282 349.49 280.753L349.974 280.278L350.45 279.795C365.992 263.753 365.833 238.158 349.974 222.311C333.954 206.305 307.983 206.305 291.963 222.311C275.943 238.318 275.943 264.271 291.963 280.278ZM347.853 224.434C362.552 239.12 362.699 262.841 348.294 277.708L347.853 278.156L347.405 278.596C332.525 292.99 308.783 292.843 294.084 278.156C279.236 263.321 279.236 239.269 294.084 224.434C308.932 209.598 333.005 209.598 347.853 224.434Z" fill="black"/><path id="Fill 95" fill-rule="evenodd" clip-rule="evenodd" d="M336.713 261.766C337.291 261.064 338.329 260.964 339.031 261.542C339.733 262.12 339.833 263.157 339.254 263.858C338.676 264.559 337.638 264.659 336.936 264.082C336.235 263.504 336.134 262.467 336.713 261.766" fill="black"/><path id="Fill 97" fill-rule="evenodd" clip-rule="evenodd" d="M318.051 280.412C318.629 279.711 319.667 279.611 320.369 280.189C321.071 280.767 321.17 281.804 320.592 282.505C320.014 283.206 318.976 283.306 318.274 282.729C317.573 282.151 317.472 281.114 318.051 280.412" fill="black"/><path id="Fill 99" fill-rule="evenodd" clip-rule="evenodd" d="M315.856 257.378C316.434 256.677 317.472 256.577 318.173 257.154C318.875 257.732 318.975 258.769 318.397 259.47C317.819 260.172 316.781 260.272 316.079 259.694C315.377 259.116 315.277 258.079 315.856 257.378" fill="black"/><path id="Fill 101" fill-rule="evenodd" clip-rule="evenodd" d="M297.193 276.025C297.772 275.323 298.809 275.224 299.511 275.801C300.213 276.379 300.313 277.416 299.735 278.118C299.157 278.819 298.119 278.919 297.417 278.341C296.715 277.763 296.615 276.726 297.193 276.025" fill="black"/><path id="Fill 103" fill-rule="evenodd" clip-rule="evenodd" d="M293.899 255.184C294.478 254.483 295.516 254.383 296.217 254.96C296.919 255.539 297.019 256.575 296.441 257.277C295.863 257.978 294.825 258.078 294.123 257.5C293.421 256.922 293.321 255.885 293.899 255.184" fill="black"/><path id="Fill 105" fill-rule="evenodd" clip-rule="evenodd" d="M290.606 233.246C291.185 232.545 292.222 232.445 292.924 233.023C293.626 233.601 293.726 234.638 293.148 235.339C292.57 236.04 291.532 236.14 290.83 235.563C290.128 234.984 290.028 233.948 290.606 233.246" fill="black"/></g></g></g><g id="Character"><g id="Full Body"><g id="left"><g id="Group 62"><path id="Combined Shape" fill-rule="evenodd" clip-rule="evenodd" d="M1233.25 3.02405C1238.87 3.02232 1243.5 8.52265 1243.44 15.4273L1243.39 22.5489C1243.38 22.8869 1243.38 23.2093 1243.38 23.5517L1243.33 26.2519L1242.8 47.8959L1242.54 54.5805L1302.72 56.7243L1303 49.8161L1303.56 26.3766C1303.58 25.6186 1303.59 24.8661 1303.6 23.9803L1303.66 16.0375C1303.72 8.85039 1308.45 3.12824 1314.08 3.12565C1319.68 3.12393 1324.32 8.93477 1324.27 16.2486L1324.19 25.0135L1324 33.767L1323.57 51.3183L1323.39 55.8135C1323.48 55.0924 1324.09 54.5437 1324.81 54.5137L1324.96 54.5146C1325.73 54.5566 1326.34 55.1852 1326.37 55.9487L1326.37 56.0933L1326.29 57.6133C1331.54 58.1622 1335.64 60.651 1338.45 64.7985C1339.92 66.97 1341.02 69.5747 1341.71 72.5169C1342.06 73.9732 1342.3 75.5096 1342.44 77.1098C1342.55 78.6432 1342.56 80.289 1342.46 82.034L1342.4 83.2494C1342.38 83.7331 1342.36 84.2453 1342.34 84.8414L1342.19 91.0513C1342.15 92.0959 1342.12 92.9028 1342.07 93.8271C1341.81 98.338 1341.26 101.821 1340.2 104.78C1337.56 112.172 1332.11 115.705 1321.99 115.01L1320.05 114.865L1319.38 123.652L1318.7 130.924L1317.33 145.517L1315.72 160.091L1314.82 168.028C1314.77 168.461 1314.71 168.908 1314.65 169.396L1313.96 174.661L1312.03 189.257L1309.85 203.827L1308.73 211.121L1305.64 229.092C1305.4 230.492 1305.18 231.685 1304.94 232.944L1302.55 245.308C1301.33 251.589 1300.54 255.397 1299.54 259.881L1299.12 261.911C1298.23 266.142 1297.32 270.156 1295.81 276.542L1293.37 286.791C1288.72 305.324 1283.7 323.059 1278.21 340.199C1266.04 377.643 1251.66 412.135 1234.48 444.189C1225.27 461.383 1215.26 477.796 1204.45 493.387L1203.83 494.301C1202.91 495.652 1201.98 496.957 1200.64 498.802L1195.95 505.24L1195.23 506.226C1195.03 506.504 1194.81 506.793 1194.56 507.117L1188.18 515.394L1187.05 516.829L1182.41 522.525L1180.08 525.372L1177.7 528.148L1172.87 533.747L1167.91 539.21L1165.41 541.949L1162.86 544.611L1157.7 549.967L1152.2 555.391C1150.11 557.44 1148.69 558.793 1147.03 560.316L1145.71 561.559C1144.33 562.854 1142.91 564.143 1140.9 565.932L1135.89 570.365L1130.79 574.663C1128.13 576.882 1126.38 578.306 1124.31 579.916C1107.99 592.856 1091.03 604.022 1073.33 613.335C1065.64 617.393 1057.28 619.794 1049 620.398C1040.98 620.989 1033.14 619.888 1026.2 617.239C1019.36 614.638 1013.49 610.569 1009.12 605.422C1004.81 600.384 1001.95 594.204 1000.63 587.242C999.402 580.754 999.25 574.034 1000.03 567.021C1000.76 560.622 1002.28 554.504 1004.51 548.879C1009.16 537.292 1016.3 528.751 1026.07 523.589C1038.03 517.308 1049.87 509.511 1061.3 500.436L1062.1 499.811C1063.15 498.98 1064.2 498.125 1065.66 496.903L1069.62 493.587L1073.78 489.889C1075.47 488.385 1076.53 487.41 1077.73 486.255L1078.77 485.29C1079.53 484.586 1080.31 483.836 1081.33 482.837L1084.46 479.746L1085.57 478.656L1091.31 472.694L1093.19 470.617L1096.91 466.538L1100.55 462.298L1102.36 460.201L1107.68 453.685L1108.27 452.932L1109.87 450.864L1111.81 448.332L1113.27 446.465C1113.71 445.89 1114.03 445.46 1114.35 445.006L1115.51 443.403L1118.44 439.39C1119.6 437.795 1120.34 436.74 1121.17 435.488C1129.7 423.186 1137.69 410.072 1145.1 396.25C1159.23 369.89 1171.37 340.772 1181.7 309.006C1186.45 294.169 1190.83 278.689 1194.91 262.424L1198.01 249.336C1199.01 245.04 1199.66 242.049 1200.37 238.59L1200.93 236.091C1201.6 232.996 1202.23 229.867 1203.15 225.143L1205.19 214.558C1213.51 169.522 1218.72 121.606 1221.28 69.7444L1221.41 67.0773L1221.58 63.2232C1222.3 45.9953 1222.72 30.3072 1222.84 15.2103C1222.89 8.54659 1227.46 3.19533 1232.98 3.02808L1233.25 3.02405Z" fill="white"/><path id="Combined Shape Copy" fill-rule="evenodd" clip-rule="evenodd" d="M1233.25 0.0240479C1225.85 0.0263174 1219.9 6.85883 1219.84 15.1873L1219.81 18.5443C1219.65 33.137 1219.21 48.3459 1218.5 65.0194L1218.41 66.9708C1215.9 119.711 1210.67 168.356 1202.25 213.998L1200.01 225.589C1198.97 230.926 1198.29 234.168 1197.44 237.96L1196.83 240.889C1196.16 244.001 1195.45 247.15 1194.35 251.788L1192 261.715C1187.94 277.899 1183.57 293.317 1178.84 308.085C1168.57 339.682 1156.5 368.637 1142.46 394.833C1135.1 408.555 1127.17 421.572 1118.69 433.803L1118.15 434.603C1117.52 435.522 1116.89 436.421 1116 437.643L1112.7 442.157L1111.61 443.686C1111.46 443.879 1111.31 444.08 1111.14 444.302L1108.93 447.158C1108.87 447.239 1108.81 447.32 1108.75 447.404L1106.04 450.92C1105.8 451.23 1105.58 451.505 1105.34 451.799L1100.06 458.272L1098.28 460.34L1094.66 464.551L1090.97 468.6L1089.12 470.646L1087.24 472.59L1083.44 476.546L1078.58 481.329C1077.46 482.417 1076.63 483.203 1075.68 484.064L1074.75 484.944C1073.77 485.87 1072.75 486.797 1071.22 488.148L1067.65 491.318L1062.98 495.234C1061.59 496.386 1060.58 497.196 1059.45 498.075C1048.14 507.048 1036.46 514.742 1024.67 520.935C1014.24 526.45 1006.63 535.548 1001.73 547.766C999.392 553.644 997.809 560.021 997.05 566.685C996.237 573.985 996.396 581.002 997.683 587.8C999.096 595.263 1002.18 601.925 1006.83 607.367C1011.53 612.904 1017.83 617.265 1025.13 620.042C1032.48 622.849 1040.77 624.013 1049.22 623.391C1057.91 622.756 1066.67 620.239 1074.73 615.989C1092.06 606.873 1108.68 596.001 1124.67 583.455L1127.63 581.121C1129.48 579.656 1131.3 578.151 1134.05 575.838L1137.86 572.635L1141.54 569.372C1145.05 566.266 1146.91 564.577 1149.08 562.507L1150.56 561.129C1151.83 559.947 1153.11 558.706 1154.86 556.99L1159.83 552.077L1165.02 546.69L1167.6 543.997L1170.13 541.229L1175.12 535.735L1179.97 530.105L1182.38 527.3L1184.74 524.422L1189.39 518.706L1191.2 516.398L1196.96 508.919C1197.27 508.521 1197.53 508.173 1197.78 507.835L1203.45 500.044C1204.89 498.05 1205.85 496.677 1206.92 495.079C1217.79 479.411 1227.86 462.9 1237.13 445.606C1254.39 413.388 1268.84 378.733 1281.06 341.12C1286.58 323.911 1291.62 306.115 1296.29 287.501L1299.51 273.908C1300.79 268.439 1301.6 264.77 1302.47 260.511L1303.07 257.802C1303.89 254.009 1304.66 250.235 1305.79 244.394L1307.89 233.508L1308.28 231.385C1308.45 230.462 1308.62 229.495 1308.81 228.382L1311.7 211.601L1312.81 204.276L1315.01 189.676L1317.58 170.148C1317.68 169.371 1317.76 168.701 1317.84 168.048L1318.7 160.425L1320.32 145.823L1321.69 131.204L1322.37 123.905L1322.82 118.059L1323.16 118.073C1333.78 118.426 1340.06 114.096 1343.03 105.789C1344.15 102.653 1344.74 99.0928 1345.02 94.6121L1345.1 93.3535C1345.17 91.9517 1345.2 90.6475 1345.26 88.1263L1345.32 85.4741C1345.36 84.108 1345.4 83.1979 1345.46 82.2106C1345.56 80.3306 1345.56 78.553 1345.43 76.8653C1345.27 75.107 1345.01 73.4272 1344.63 71.8275C1343.86 68.5438 1342.61 65.6023 1340.93 63.1163L1340.7 62.78C1337.41 58.1145 1332.62 55.277 1326.67 54.6365L1326.44 54.614L1326.57 51.4159L1327 33.837L1327.19 25.0593L1327.27 16.2728C1327.34 7.41854 1321.51 0.123368 1314.08 0.125648C1306.76 0.129016 1300.88 7.10986 1300.67 15.6699L1300.64 18.505L1300.59 24.6993C1300.58 25.5925 1300.56 26.3738 1300.54 27.2268L1300 49.7203L1299.84 53.619L1245.66 51.689L1245.8 47.9916L1246.33 26.3145L1246.38 23.5965L1246.4 20.9634L1246.44 15.4565C1246.51 7.09203 1240.81 0.205161 1233.54 0.0275612L1233.25 0.0240479ZM1233.25 3.02405C1238.87 3.02232 1243.5 8.52264 1243.44 15.4273L1243.39 22.5489C1243.38 22.8869 1243.38 23.2093 1243.38 23.5517L1243.33 26.2519L1242.8 47.8959L1242.54 54.5805L1302.72 56.7243L1303 49.8161L1303.56 26.3766C1303.58 25.6186 1303.59 24.8661 1303.6 23.9803L1303.66 16.0375C1303.72 8.85039 1308.45 3.12824 1314.08 3.12565C1319.68 3.12393 1324.32 8.93477 1324.27 16.2486L1324.19 25.0135L1324 33.767L1323.57 51.3183L1323.39 55.8135C1323.38 55.8524 1323.38 55.8918 1323.38 55.9316L1321.99 81.6759L1321.99 81.8205C1322.02 82.5839 1322.63 83.2125 1323.4 83.2545C1324.23 83.2992 1324.94 82.6647 1324.98 81.8375L1326.29 57.6133C1331.54 58.1622 1335.64 60.651 1338.45 64.7985C1339.92 66.97 1341.02 69.5747 1341.71 72.5169C1342.06 73.9732 1342.3 75.5096 1342.44 77.1098C1342.55 78.6432 1342.56 80.289 1342.46 82.034L1342.4 83.2494C1342.38 83.7331 1342.36 84.2453 1342.34 84.8414L1342.19 91.0513C1342.15 92.0959 1342.12 92.9028 1342.07 93.8271C1341.81 98.338 1341.26 101.821 1340.2 104.78C1337.56 112.172 1332.11 115.705 1321.99 115.01L1320.05 114.865L1319.38 123.652L1318.7 130.924L1317.33 145.517L1315.72 160.091L1314.82 168.028C1314.77 168.461 1314.71 168.908 1314.65 169.396L1313.96 174.661L1312.03 189.257L1309.85 203.827L1308.73 211.121L1305.64 229.092C1305.4 230.492 1305.18 231.685 1304.94 232.944L1302.56 245.308C1301.33 251.589 1300.54 255.397 1299.54 259.881L1299.12 261.911C1298.23 266.142 1297.32 270.156 1295.81 276.542L1293.37 286.791C1288.73 305.324 1283.7 323.059 1278.21 340.199C1266.04 377.643 1251.66 412.135 1234.48 444.189C1225.27 461.383 1215.26 477.796 1204.45 493.387L1203.83 494.301C1202.91 495.652 1201.98 496.957 1200.64 498.802L1195.95 505.24L1195.23 506.226C1195.14 506.358 1195.04 506.492 1194.93 506.632C1194.82 506.786 1194.69 506.947 1194.56 507.117L1188.18 515.394L1187.05 516.829L1182.41 522.525L1180.08 525.372L1177.7 528.148L1172.87 533.747L1167.91 539.21L1165.41 541.949L1162.86 544.611L1157.7 549.967L1152.2 555.391C1150.11 557.44 1148.69 558.793 1147.03 560.316L1145.71 561.559C1144.33 562.854 1142.91 564.143 1140.9 565.932L1135.89 570.365L1130.79 574.663C1128.13 576.882 1126.38 578.306 1124.31 579.916C1107.99 592.856 1091.03 604.022 1073.33 613.335C1065.64 617.393 1057.28 619.794 1049 620.398C1040.98 620.989 1033.14 619.888 1026.2 617.239C1019.36 614.638 1013.49 610.569 1009.12 605.422C1004.81 600.384 1001.95 594.204 1000.63 587.242C999.402 580.754 999.25 574.034 1000.03 567.021C1000.76 560.622 1002.28 554.504 1004.51 548.879C1009.16 537.292 1016.3 528.751 1026.07 523.589C1038.03 517.308 1049.87 509.511 1061.3 500.436L1062.1 499.811C1063.15 498.98 1064.2 498.125 1065.66 496.903L1069.62 493.587L1073.78 489.889C1075.47 488.385 1076.53 487.41 1077.73 486.255L1078.77 485.29C1079.53 484.586 1080.31 483.836 1081.33 482.837L1084.46 479.746L1085.57 478.656L1091.31 472.694L1093.19 470.617L1096.91 466.538L1100.55 462.298L1102.36 460.201L1107.68 453.685L1108.27 452.932L1109.87 450.864L1111.81 448.332L1113.27 446.465C1113.71 445.89 1114.03 445.46 1114.35 445.006L1115.51 443.403L1118.44 439.39C1119.6 437.795 1120.34 436.74 1121.17 435.488C1129.7 423.186 1137.69 410.072 1145.1 396.25C1159.23 369.89 1171.37 340.772 1181.7 309.006C1186.45 294.169 1190.83 278.689 1194.91 262.424L1198.01 249.336C1199.01 245.04 1199.66 242.049 1200.37 238.59L1200.93 236.091C1201.6 232.996 1202.23 229.867 1203.15 225.143L1205.19 214.558C1213.51 169.522 1218.72 121.606 1221.28 69.7444L1221.41 67.0773L1221.58 63.2232C1222.3 45.9953 1222.72 30.3072 1222.84 15.2103C1222.89 8.54659 1227.46 3.19533 1232.98 3.02808L1233.25 3.02405Z" fill="black"/></g><path id="Fill 71" fill-rule="evenodd" clip-rule="evenodd" d="M1175.08 563.258C1163.39 561.469 1151.91 559.259 1140.64 556.575C1135.91 555.458 1132.63 551.754 1131.8 546.997C1129.89 535.786 1127.47 524.78 1124.64 514.038C1113.4 511.108 1102.42 507.737 1091.73 503.872C1087.41 502.32 1084.18 498.555 1083.05 494.136C1080.51 484.158 1077.53 474.362 1074.2 464.819C1067.33 471.851 1060.2 478.437 1052.81 484.46C1045.41 490.469 1037.77 495.947 1029.99 500.831C1023.53 504.837 1018.31 509.905 1014 515.931C1009.7 521.97 1006.3 528.874 1003.7 536.575C1001.1 544.277 999.326 552.661 998.494 561.572C997.701 570.471 997.737 579.884 999.531 589.453C1000.45 594.228 1001.89 598.798 1003.94 603.05C1005.98 607.304 1008.65 611.25 1011.85 614.788C1018.25 621.867 1026.91 627.343 1036.92 630.548C1046.92 633.762 1058.35 634.764 1070.01 633.112C1081.67 631.486 1093.6 627.26 1104.52 620.469C1117.66 612.244 1130.11 603.272 1141.88 593.699C1153.64 584.114 1164.69 573.907 1175.08 563.258" fill="black"/></g><g id="legs"><g id="blue"><g id="shoe"><path id="Fill 1" fill-rule="evenodd" clip-rule="evenodd" d="M1250.24 1574.1C1250.27 1573.7 1250.29 1573.29 1250.3 1572.89C1250.42 1563.04 1242.48 1554.94 1232.63 1554.84C1222.77 1554.74 1214.68 1562.67 1214.55 1572.42C1214.55 1572.82 1214.56 1573.22 1214.58 1573.62L1194.09 1573.35C1194.44 1545.35 1194.65 1516.99 1194.83 1488.75L1195.24 1403.9L1195.34 1369.42L1283.08 1369.66L1282.97 1404.21C1282.82 1445.12 1282.63 1486.03 1282.3 1526.98C1282.29 1527.51 1282.5 1528.03 1282.88 1528.41C1283.25 1528.78 1283.76 1528.99 1284.28 1528.99H1284.46C1285.85 1529.01 1298.43 1529.28 1310.47 1535.5C1325.4 1543.25 1333.16 1556.46 1333.45 1575.22L1250.24 1574.1Z" fill="white"/><path id="Fill 3" fill-rule="evenodd" clip-rule="evenodd" d="M1285.08 1367.83L1284.97 1404.21C1284.82 1445.13 1284.63 1486.04 1284.3 1526.99C1284.3 1526.99 1284.36 1526.99 1284.47 1526.99C1286.11 1527.01 1298.98 1527.31 1311.39 1533.72C1317.59 1536.93 1323.68 1541.65 1328.19 1548.65C1330.43 1552.15 1332.29 1556.2 1333.57 1560.94C1334.2 1563.31 1334.7 1565.83 1335.02 1568.55C1335.34 1571.29 1335.49 1574.11 1335.45 1577.36L1283.79 1576.59L1257.49 1576.2L1247.93 1576.06C1248.16 1575.03 1248.28 1573.96 1248.3 1572.86C1248.41 1564.1 1241.37 1556.92 1232.61 1556.84C1223.84 1556.74 1216.66 1563.77 1216.55 1572.45C1216.54 1573.54 1216.64 1574.61 1216.84 1575.6L1192.07 1575.23L1192.51 1532.61L1192.83 1489.74L1193.24 1403.89L1193.35 1367.59L1285.08 1367.83ZM1281.07 1371.48L1197.34 1371.26L1197.24 1403.9L1196.84 1487.77C1196.66 1515.69 1196.46 1543.68 1196.12 1571.41L1212.58 1571.62C1213.13 1561.13 1221.95 1552.73 1232.65 1552.85C1243.34 1552.95 1252.01 1561.53 1252.29 1572.13L1257.55 1572.19L1283.85 1572.53L1331.38 1573.14C1330.57 1556.33 1323.22 1544.37 1309.56 1537.29C1297.93 1531.28 1285.79 1531.01 1284.44 1531L1284.33 1531H1284.27C1283.22 1530.99 1282.21 1530.57 1281.47 1529.82C1280.71 1529.06 1280.29 1528.03 1280.3 1526.96C1280.63 1486.02 1280.82 1445.11 1280.97 1404.2L1281.07 1371.48V1371.48Z" fill="black"/><path id="Stroke 5 (Stroke)" fill-rule="evenodd" clip-rule="evenodd" d="M1329.36 1558.83L1194.24 1557.45L1194.28 1553.45L1329.4 1554.83L1329.36 1558.83Z" fill="black"/><path id="Stroke 7 (Stroke)" fill-rule="evenodd" clip-rule="evenodd" d="M1271.32 1504.53C1271.38 1496.16 1278.19 1489.43 1286.54 1489.48ZM1286.54 1489.48L1286.56 1485.48ZM1286.56 1485.48C1276 1485.42 1267.4 1493.93 1267.32 1504.5ZM1267.32 1504.5L1267.32 1504.5ZM1271.32 1504.53C1271.26 1512.88 1277.98 1519.71 1286.33 1519.78L1286.3 1523.78C1275.74 1523.69 1267.25 1515.06 1267.32 1504.5" fill="black"/></g><path id="Fill 9" fill-rule="evenodd" clip-rule="evenodd" d="M1311.72 1484.76L1174.35 1483.93L1174.72 1403.83L1174.99 1271.39L1175.01 1238.27L1175.01 1229.99V1227.92L1175.01 1226.88L1174.99 1226.12L1174.93 1223.25L1174.89 1220.38C1174.86 1219.42 1174.78 1218.47 1174.73 1217.52C1174.61 1215.61 1174.58 1213.7 1174.36 1211.81C1173.14 1196.61 1169.86 1181.68 1164.69 1166.92C1159.52 1152.17 1152.39 1137.6 1143.48 1123.39C1134.58 1109.17 1123.92 1095.33 1111.86 1082.07C1087.76 1055.55 1058.15 1031.34 1026.09 1010.56C1013.53 1002.43 1005.82 989.101 1002.9 973.422C1000.05 957.76 1001.99 939.714 1010.04 922.539V922.539C1014.09 913.967 1019.55 906.543 1026.21 900.678C1032.85 894.805 1040.63 890.465 1048.98 887.903C1065.65 882.748 1084.69 884.842 1100.74 895.232C1121.11 908.431 1140.77 922.773 1159.67 938.419C1178.54 954.094 1196.62 971.085 1213.52 989.672C1230.41 1008.26 1246.12 1028.46 1259.9 1050.45C1273.67 1072.42 1285.48 1096.22 1294.33 1121.48C1303.2 1146.72 1309.08 1173.4 1311.26 1200.36C1311.6 1203.73 1311.73 1207.1 1311.93 1210.48C1312.02 1212.16 1312.12 1213.85 1312.18 1215.53L1312.28 1220.59L1312.37 1225.65L1312.39 1226.88V1227.92L1312.39 1230L1312.38 1238.3L1312.37 1271.49L1312.1 1404.31L1311.72 1484.76Z" fill="#ff2a67"/><g id="stripes"><path id="Stroke 21 (Stroke)" fill-rule="evenodd" clip-rule="evenodd" d="M1166.56 942.364C1167.4 943.076 1167.51 944.338 1166.8 945.182L1078.41 1049.9C1077.69 1050.74 1076.43 1050.85 1075.59 1050.13C1074.74 1049.42 1074.64 1048.16 1075.35 1047.32L1163.74 942.602C1164.45 941.758 1165.72 941.651 1166.56 942.364Z" fill="black"/><path id="Stroke 23 (Stroke)" fill-rule="evenodd" clip-rule="evenodd" d="M1228.28 1003.74C1229 1004.58 1228.89 1005.84 1228.04 1006.55L1123.27 1094.87C1122.42 1095.58 1121.16 1095.48 1120.45 1094.63C1119.74 1093.79 1119.85 1092.52 1120.69 1091.81L1225.47 1003.5C1226.31 1002.78 1227.57 1002.89 1228.28 1003.74Z" fill="black"/><path id="Stroke 25 (Stroke)" fill-rule="evenodd" clip-rule="evenodd" d="M1278.67 1078.47C1279.18 1079.45 1278.79 1080.66 1277.81 1081.16L1156.09 1144.11C1155.11 1144.62 1153.91 1144.24 1153.4 1143.25C1152.89 1142.27 1153.27 1141.07 1154.26 1140.56L1275.97 1077.61C1276.96 1077.1 1278.16 1077.49 1278.67 1078.47Z" fill="black"/><path id="Stroke 27 (Stroke)" fill-rule="evenodd" clip-rule="evenodd" d="M1309.84 1166.47C1310.06 1167.55 1309.36 1168.6 1308.27 1168.82L1173.91 1195.72C1172.82 1195.94 1171.77 1195.24 1171.55 1194.15C1171.34 1193.07 1172.04 1192.02 1173.12 1191.8L1307.49 1164.9C1308.57 1164.68 1309.63 1165.38 1309.84 1166.47Z" fill="black"/><path id="Stroke 29 (Stroke)" fill-rule="evenodd" clip-rule="evenodd" d="M1175 1254.36C1175 1253.26 1175.9 1252.37 1177 1252.37L1314.04 1252.42C1315.14 1252.42 1316.04 1253.32 1316.03 1254.42C1316.03 1255.53 1315.14 1256.42 1314.03 1256.42L1177 1256.37C1175.9 1256.37 1175 1255.47 1175 1254.36Z" fill="black"/><path id="Stroke 31 (Stroke)" fill-rule="evenodd" clip-rule="evenodd" d="M1174.92 1331.49C1174.92 1330.38 1175.82 1329.49 1176.92 1329.49L1313.95 1329.74C1315.06 1329.75 1315.95 1330.64 1315.95 1331.75C1315.95 1332.85 1315.05 1333.75 1313.95 1333.74L1176.91 1333.49C1175.81 1333.49 1174.92 1332.59 1174.92 1331.49Z" fill="black"/><path id="Stroke 33 (Stroke)" fill-rule="evenodd" clip-rule="evenodd" d="M1174.71 1408.89C1174.71 1407.78 1175.61 1406.89 1176.72 1406.89L1313.75 1407.39C1314.85 1407.39 1315.75 1408.29 1315.74 1409.4C1315.74 1410.5 1314.84 1411.39 1313.74 1411.39L1176.7 1410.89C1175.6 1410.89 1174.71 1409.99 1174.71 1408.89Z" fill="black"/><path id="Stroke 11 (Stroke)" fill-rule="evenodd" clip-rule="evenodd" d="M1001.97 976.459C1002.49 975.486 1003.7 975.122 1004.68 975.645C1013.93 980.62 1023.22 986.063 1032.31 991.764M1001.97 976.459C1001.44 977.431 1001.81 978.644 1002.78 979.167ZM1002.78 979.167C1011.94 984.096 1021.16 989.495 1030.19 995.154ZM1056.75 1012.96C1048.11 1006.76 1039.23 1000.81 1030.19 995.154L1030.19 995.154M1192.82 1228.66L1192.79 1226.97L1192.78 1226.94C1192.71 1217.89 1192.01 1208.92 1190.69 1200.02L1190.69 1200.02C1188.04 1182.24 1182.85 1164.75 1175.29 1147.71L1175.29 1147.71C1160.21 1113.62 1135.64 1081.45 1105.5 1052.99L1105.5 1052.99C1097.99 1045.85 1090.13 1038.94 1081.98 1032.28L1081.97 1032.28C1073.83 1025.6 1065.41 1019.15 1056.76 1012.96L1056.75 1012.96" fill="black"/><path id="Stroke 13 (Stroke)" fill-rule="evenodd" clip-rule="evenodd" d="M1002.96 938.998C1003.44 938.001 1004.63 937.578 1005.63 938.053C1008.07 939.215 1010.66 940.505 1013.23 941.821L1013.23 941.822C1015.79 943.142 1018.37 944.492 1020.95 945.885C1026.1 948.657 1031.22 951.554 1036.31 954.528M1002.96 938.998C1002.49 939.995 1002.91 941.189 1003.91 941.664ZM1003.91 941.664C1006.3 942.806 1008.86 944.078 1011.4 945.379ZM1011.4 945.379C1013.95 946.69 1016.5 948.028 1019.05 949.405L1019.05 949.407C1024.15 952.152 1029.24 955.026 1034.29 957.981L1034.29 957.981C1044.38 963.881 1054.31 970.161 1064.04 976.709C1083.46 989.844 1102.05 1004.15 1119.35 1019.64L1119.35 1019.64C1136.68 1035.1 1152.65 1051.81 1166.85 1069.64C1180.99 1087.48 1193.23 1106.52 1202.86 1126.53C1207.68 1136.53 1211.84 1146.78 1215.26 1157.21C1218.67 1167.65 1221.35 1178.28 1223.24 1189.02C1225.14 1199.77 1226.26 1210.64 1226.61 1221.55C1226.61 1221.56 1226.61 1221.56 1226.61 1221.57L1226.68 1225.67L1226.68 1225.68L1226.72 1227.75L1226.72 1227.75L1226.74 1228.74L1226.73 1257.71L1226.45 1406L1226.08 1486.23C1226.07 1487.34 1226.96 1488.24 1228.07 1488.24C1229.17 1488.25 1230.07 1487.36 1230.08 1486.25L1230.45 1406.02L1230.73 1257.71L1230.74 1228.74C1230.74 1228.73 1230.74 1228.71 1230.74 1228.7L1230.72 1227.67L1230.72 1227.67L1230.68 1225.6L1230.68 1225.6L1230.61 1221.47L1230.61 1221.44C1230.26 1210.33 1229.12 1199.27 1227.18 1188.33C1225.25 1177.39 1222.53 1166.58 1219.06 1155.97L1219.06 1155.96C1215.58 1145.36 1211.35 1134.95 1206.47 1124.8C1196.69 1104.49 1184.29 1085.2 1169.98 1067.15L1169.98 1067.15C1155.63 1049.13 1139.5 1032.25 1122.02 1016.66C1104.57 1001.03 1085.83 986.619 1066.27 973.394L1066.27 973.391C1056.48 966.801 1046.48 960.475 1036.31 954.528" fill="black"/><path id="Stroke 15 (Stroke)" fill-rule="evenodd" clip-rule="evenodd" d="M1017.51 908.356C1017.99 907.36 1019.19 906.941 1020.18 907.419C1031.63 912.92 1042.61 918.935 1053.44 925.257L1053.44 925.258C1064.26 931.586 1074.86 938.286 1085.24 945.281L1085.25 945.283C1106 959.314 1125.92 974.63 1144.63 991.385C1163.37 1008.11 1180.84 1026.34 1196.55 1046.07L1196.56 1046.08C1212.22 1065.84 1226.02 1087.23 1237.03 1110.1C1242.53 1121.53 1247.33 1133.32 1251.3 1145.41L1251.3 1145.41C1255.24 1157.5 1258.36 1169.88 1260.58 1182.42C1260.58 1182.42 1260.58 1182.42 1260.58 1182.42C1262.8 1194.96 1264.11 1207.66 1264.5 1220.38L1264.51 1220.42C1264.52 1221.46 1264.54 1222.51 1264.56 1223.57C1264.61 1225.68 1264.65 1227.81 1264.66 1229.89L1264.66 1229.9L1264.65 1257.73L1264.37 1406.14L1263.99 1486.46C1263.99 1487.56 1263.09 1488.45 1261.98 1488.45C1260.88 1488.44 1259.99 1487.54 1259.99 1486.44L1260.37 1406.12L1262.37 1406.13L1260.37 1406.12L1260.65 1257.72L1262.65 1257.72L1260.65 1257.72L1260.66 1229.91L1262.66 1229.9L1260.66 1229.9V1229.9C1260.65 1227.85 1260.61 1225.78 1260.57 1223.69C1260.54 1222.63 1260.52 1221.56 1260.51 1220.5C1260.51 1220.5 1260.51 1220.51 1260.51 1220.51L1262.51 1220.45L1260.51 1220.48C1260.51 1220.48 1260.51 1220.49 1260.51 1220.5C1260.11 1207.97 1258.82 1195.46 1256.64 1183.11C1254.46 1170.76 1251.39 1158.57 1247.49 1146.66C1247.49 1146.66 1247.49 1146.66 1247.49 1146.66L1249.39 1146.03L1247.49 1146.65C1247.49 1146.66 1247.49 1146.66 1247.49 1146.66C1243.59 1134.75 1238.86 1123.12 1233.43 1111.84C1233.43 1111.84 1233.43 1111.84 1233.43 1111.84C1222.56 1089.27 1208.93 1068.12 1193.42 1048.56C1193.42 1048.56 1193.42 1048.56 1193.43 1048.57L1194.99 1047.32L1193.42 1048.56C1193.42 1048.56 1193.42 1048.56 1193.42 1048.56C1177.86 1029.02 1160.55 1010.95 1141.97 994.368L1141.97 994.366C1123.4 977.743 1103.63 962.538 1083.01 948.598C1083.01 948.598 1083.01 948.598 1083.01 948.599L1084.13 946.94L1083.01 948.596C1083.01 948.597 1083.01 948.597 1083.01 948.598C1072.68 941.646 1062.17 934.992 1051.42 928.712L1052.43 926.985L1051.42 928.711C1040.65 922.424 1029.78 916.465 1018.45 911.024C1017.46 910.546 1017.04 909.351 1017.51 908.356ZM1144.63 991.385C1144.63 991.385 1144.63 991.385 1144.64 991.386L1143.3 992.876L1144.63 991.383C1144.63 991.384 1144.63 991.384 1144.63 991.385Z" fill="black"/><path id="Stroke 17 (Stroke)" fill-rule="evenodd" clip-rule="evenodd" d="M1050.2 886.871C1050.73 885.899 1051.94 885.535 1052.91 886.058C1064.37 892.225 1075.44 898.717 1086.33 905.538C1097.21 912.354 1107.88 919.491 1118.32 926.985C1128.78 934.462 1139.01 942.299 1149.01 950.493C1159.02 958.676 1168.77 967.246 1178.23 976.218M1050.2 886.871C1049.68 887.844 1050.04 889.057 1051.02 889.58ZM1051.02 889.58C1062.39 895.701 1073.39 902.149 1084.21 908.928ZM1084.21 908.928C1095.02 915.702 1105.62 922.793 1115.99 930.236ZM1146.48 953.587C1136.55 945.448 1126.38 937.664 1116 930.238L1115.99 930.236M1175.47 979.12C1166.09 970.217 1156.41 961.711 1146.48 953.588L1146.48 953.587M1227.66 1037.49C1211.89 1016.26 1194.25 996.912 1175.48 979.121L1175.47 979.12M1230.87 1035.1C1214.95 1013.67 1197.14 994.143 1178.23 976.218ZM1268.33 1106.53C1257.35 1081.74 1243.43 1058.68 1227.66 1037.49L1227.66 1037.49M1271.99 1104.9C1260.88 1079.82 1246.8 1056.5 1230.87 1035.1ZM1271.99 1104.9C1283.11 1129.96 1291.18 1156.82 1295.27 1184.38C1297.33 1198.15 1298.41 1212.07 1298.53 1225.96C1298.53 1225.96 1298.53 1225.96 1298.53 1225.97L1298.57 1228.54L1298.57 1228.57L1298.57 1230.84L1298.56 1262.33L1298.28 1406.26L1297.91 1486.66C1297.9 1487.77 1297 1488.66 1295.9 1488.65C1294.79 1488.65 1293.9 1487.75 1293.91 1486.64L1294.28 1406.24L1294.56 1262.32L1294.57 1230.84L1294.57 1228.6L1294.57 1228.57L1294.53 1226.02L1294.53 1226C1294.41 1212.3 1293.34 1198.56 1291.31 1184.97L1291.31 1184.97C1287.28 1157.79 1279.32 1131.28 1268.33 1106.53L1268.33 1106.53" fill="black"/></g></g><g id="black"><g id="shoe_2"><path id="Fill 41" fill-rule="evenodd" clip-rule="evenodd" d="M620.243 1573.17C620.216 1572.76 620.203 1572.36 620.204 1571.95C620.219 1562.1 628.249 1554.12 638.105 1554.17C647.961 1554.22 655.967 1562.29 655.951 1572.15C655.951 1572.56 655.937 1572.96 655.909 1573.37L676.395 1573.48L676.654 1405.27L676.71 1368.82L588.975 1368.62L588.92 1405.02L588.734 1525.61C588.733 1526.15 588.517 1526.66 588.135 1527.03C587.759 1527.4 587.254 1527.6 586.73 1527.6C586.72 1527.6 586.557 1527.6 586.557 1527.6C585.162 1527.59 572.584 1527.71 560.477 1533.74C545.467 1541.22 537.586 1554.32 537.031 1572.71L620.243 1573.17Z" fill="white"/><path id="Fill 43" fill-rule="evenodd" clip-rule="evenodd" d="M586.978 1366.78L586.919 1405.02L586.734 1525.6C586.734 1525.6 586.675 1525.6 586.56 1525.6C583.282 1525.58 535.074 1526.19 535 1574.69L586.658 1574.98L612.961 1575.13L622.525 1575.18C622.313 1574.14 622.202 1573.07 622.204 1571.97C622.217 1563.2 629.335 1556.13 638.102 1556.17C646.869 1556.22 653.965 1563.37 653.951 1572.14C653.95 1573.24 653.835 1574.32 653.62 1575.35L678.391 1575.49L678.653 1405.28L678.712 1366.99L586.978 1366.78ZM590.972 1370.46L674.707 1370.65L674.653 1405.27L674.397 1571.47L657.937 1571.38C657.539 1560.77 648.803 1552.23 638.108 1552.17C627.413 1552.12 618.651 1560.56 618.22 1571.16L612.967 1571.13L586.665 1570.98L539.126 1570.72C540.167 1554.2 547.638 1542.37 561.373 1535.53C573.067 1529.7 585.208 1529.59 586.554 1529.6L586.667 1529.6H586.722C587.772 1529.61 588.785 1529.2 589.535 1528.46C590.299 1527.71 590.732 1526.69 590.734 1525.62L590.919 1405.03L590.972 1370.46V1370.46Z" fill="black"/><path id="Stroke 45 (Stroke)" fill-rule="evenodd" clip-rule="evenodd" d="M541.402 1552.52L676.523 1553.23L676.502 1557.23L541.381 1556.52L541.402 1552.52Z" fill="black"/><path id="Stroke 47 (Stroke)" fill-rule="evenodd" clip-rule="evenodd" d="M586.853 1484.17C597.412 1484.22 605.957 1492.81 605.942 1503.37V1503.37C605.925 1513.93 597.346 1522.45 586.783 1522.4L586.802 1518.4C595.151 1518.44 601.928 1511.71 601.942 1503.36C601.954 1495.01 595.191 1488.21 586.836 1488.17L586.853 1484.17Z" fill="black"/></g><path id="Fill 53" fill-rule="evenodd" clip-rule="evenodd" d="M559.424 1483.18L696.8 1483.74L696.921 1405.33L697.126 1271.82L697.177 1238.44L697.19 1230.1L697.193 1228.01L697.195 1226.97L697.21 1226.18L697.272 1223.31L697.313 1220.43C697.344 1219.48 697.423 1218.53 697.47 1217.57C697.594 1215.67 697.622 1213.75 697.848 1211.86C699.066 1196.67 702.349 1181.74 707.549 1166.97C712.745 1152.21 719.914 1137.63 728.875 1123.4C737.829 1109.17 748.56 1095.31 760.688 1082.03C784.937 1055.48 814.728 1031.24 846.967 1010.49C859.552 1002.39 867.29 989.102 870.226 973.449C873.12 957.807 871.142 939.833 863.127 922.645C855.524 905.262 841.188 892.92 824.477 887.757C807.803 882.552 788.736 884.591 772.662 894.943C752.171 908.126 732.399 922.464 713.405 938.118C694.424 953.774 676.251 970.791 659.255 989.386C642.274 1007.98 626.476 1028.2 612.616 1050.21C598.763 1072.21 586.875 1096.04 577.966 1121.35C569.044 1146.63 563.138 1173.38 560.95 1200.41C560.6 1203.78 560.472 1207.16 560.273 1210.54C560.188 1212.23 560.077 1213.92 560.02 1215.61L559.92 1220.68L559.833 1225.75L559.816 1228.01L559.813 1230.09L559.8 1238.42L559.749 1271.72L559.544 1404.94L559.424 1483.18Z" fill="black"/></g></g><g id="torso"><path id="Fill 35" fill-rule="evenodd" clip-rule="evenodd" d="M802.244 856.296C802.244 793.713 861.793 742.98 935.25 742.98C1008.71 742.98 1068.26 793.713 1068.26 856.296C1068.26 918.878 1008.71 969.611 935.25 969.611C861.793 969.611 802.244 918.878 802.244 856.296" fill="black"/><path id="Fill 73" fill-rule="evenodd" clip-rule="evenodd" d="M1088.39 835.433C1089.41 846.356 1080.82 855.79 1069.85 855.79H774.111C764.448 855.79 756.277 848.636 755 839.057L770.307 571.313C766.03 539.231 790.989 510.725 823.354 510.725H1016.78C1019.24 510.725 1021.8 510.891 1024.43 511.213C1063.36 515.983 1091.29 551.178 1088.3 590.285L1088.39 835.433Z" fill="#ff2a67"/><path id="Fill 75" fill-rule="evenodd" clip-rule="evenodd" d="M901.877 856.296H986.2V534.249H901.877V856.296Z" fill="black"/><path id="Fill 77" fill-rule="evenodd" clip-rule="evenodd" d="M996.262 506.477C996.262 531.594 976.927 551.955 944.835 551.955C912.743 551.955 880.045 531.594 880.045 506.477C880.045 481.361 906.061 461 938.154 461C970.246 461 996.262 481.361 996.262 506.477" fill="black"/><path id="Stroke 78 (Stroke)" fill-rule="evenodd" clip-rule="evenodd" d="M882.102 511.164C883.192 510.987 884.22 511.728 884.396 512.818C886.129 523.502 894.196 533.278 905.793 540.443C917.356 547.587 932.166 551.955 946.835 551.955C975.679 551.955 993.473 535.123 995.96 513.747C996.087 512.65 997.08 511.864 998.177 511.992C999.274 512.119 1000.06 513.112 999.933 514.209C997.18 537.877 977.42 555.955 946.835 555.955C931.422 555.955 915.884 551.379 903.691 543.846C891.531 536.334 882.433 525.702 880.448 513.458C880.271 512.368 881.012 511.341 882.102 511.164Z" fill="#ff2a67"/><path id="Stroke 79 (Stroke)" fill-rule="evenodd" clip-rule="evenodd" d="M1018.93 737.593C1015.88 737.593 1013.4 740.066 1013.4 743.117V758.954C1013.4 762.005 1015.88 764.479 1018.93 764.479H1075.62C1078.67 764.479 1081.14 762.005 1081.14 758.954V743.117C1081.14 740.065 1078.67 737.593 1075.62 737.593H1018.93ZM1010.4 743.117C1010.4 738.408 1014.22 734.593 1018.93 734.593H1075.62C1080.32 734.593 1084.14 738.408 1084.14 743.117V758.954C1084.14 763.662 1080.32 767.479 1075.62 767.479H1018.93C1014.22 767.479 1010.4 763.662 1010.4 758.954V743.117Z" fill="black"/><path id="Stroke 80 (Stroke)" fill-rule="evenodd" clip-rule="evenodd" d="M812.66 743.117C812.66 738.408 816.477 734.593 821.185 734.593H877.872C882.579 734.593 886.397 738.408 886.397 743.117V758.954C886.397 763.662 882.579 767.479 877.872 767.479H821.185C816.477 767.479 812.66 763.662 812.66 758.954V743.117ZM821.185 737.593C818.133 737.593 815.66 740.065 815.66 743.117V758.954C815.66 762.005 818.134 764.479 821.185 764.479H877.872C880.923 764.479 883.397 762.005 883.397 758.954V743.117C883.397 740.066 880.923 737.593 877.872 737.593H821.185Z" fill="black"/><path id="Fill 81" fill-rule="evenodd" clip-rule="evenodd" d="M971.572 635.384C971.572 650.59 959.245 662.917 944.038 662.917C928.832 662.917 916.504 650.59 916.504 635.384C916.504 620.177 928.832 607.85 944.038 607.85C959.245 607.85 971.572 620.177 971.572 635.384" fill="white"/><path id="Fill 82" fill-rule="evenodd" clip-rule="evenodd" d="M931.78 641.718C929.206 641.966 926.919 640.081 926.671 637.508C926.422 634.934 928.307 632.647 930.881 632.399C933.455 632.15 935.742 634.035 935.99 636.609C936.238 639.182 934.353 641.47 931.78 641.718" fill="black"/><path id="Fill 83" fill-rule="evenodd" clip-rule="evenodd" d="M957.197 641.718C954.623 641.966 952.336 640.081 952.088 637.508C951.839 634.934 953.724 632.647 956.298 632.399C958.872 632.15 961.159 634.035 961.407 636.609C961.655 639.182 959.77 641.47 957.197 641.718" fill="black"/><path id="Fill 84" fill-rule="evenodd" clip-rule="evenodd" d="M954.622 675.875H933.456C929.025 675.875 925.432 672.282 925.432 667.851V650.465H962.646V667.851C962.646 672.282 959.054 675.875 954.622 675.875" fill="white"/><path id="Fill 85" fill-rule="evenodd" clip-rule="evenodd" d="M932.925 655.676C932.925 659.815 929.57 663.169 925.432 663.169C921.294 663.169 917.939 659.815 917.939 655.676C917.939 651.538 921.294 648.184 925.432 648.184C929.57 648.184 932.925 651.538 932.925 655.676" fill="white"/><path id="Fill 86" fill-rule="evenodd" clip-rule="evenodd" d="M970.138 655.676C970.138 659.815 966.783 663.169 962.645 663.169C958.507 663.169 955.152 659.815 955.152 655.676C955.152 651.538 958.507 648.184 962.645 648.184C966.783 648.184 970.138 651.538 970.138 655.676" fill="white"/></g><g id="guitar"><g id="Group 11"><path id="Fill 87" fill-rule="evenodd" clip-rule="evenodd" d="M1437.69 623.72L1451.13 639.416Z" fill="white"/><path id="Fill 88" fill-rule="evenodd" clip-rule="evenodd" d="M1449.61 640.717L1436.17 625.021L1439.21 622.42L1452.64 638.116L1449.61 640.717Z" fill="black"/><path id="Fill 89" fill-rule="evenodd" clip-rule="evenodd" d="M1420.77 638.205L1434.2 653.901Z" fill="white"/><path id="Fill 90" fill-rule="evenodd" clip-rule="evenodd" d="M1432.68 655.202L1419.25 639.506L1422.29 636.905L1435.72 652.601L1432.68 655.202Z" fill="black"/><path id="Fill 91" fill-rule="evenodd" clip-rule="evenodd" d="M1403.84 652.69L1417.27 668.386Z" fill="white"/><path id="Fill 92" fill-rule="evenodd" clip-rule="evenodd" d="M1415.75 669.688L1402.32 653.992L1405.36 651.391L1418.79 667.087L1415.75 669.688Z" fill="black"/><path id="Fill 93" fill-rule="evenodd" clip-rule="evenodd" d="M1386.91 667.176L1400.34 682.872Z" fill="white"/><path id="Fill 94" fill-rule="evenodd" clip-rule="evenodd" d="M1398.82 684.173L1385.39 668.476L1388.43 665.875L1401.86 681.572L1398.82 684.173Z" fill="black"/><path id="Fill 95" fill-rule="evenodd" clip-rule="evenodd" d="M1056.19 932.727L1023.29 894.28L1336.78 626.014L1369.68 664.462L1056.19 932.727Z" fill="white"/><path id="Fill 96" fill-rule="evenodd" clip-rule="evenodd" d="M1026.11 894.499L1056.41 929.907L1366.86 664.243L1336.56 628.834L1026.11 894.499ZM1055.97 935.547L1020.47 894.061L1337 623.194L1372.5 664.682L1055.97 935.547Z" fill="black"/><path id="Fill 99" fill-rule="evenodd" clip-rule="evenodd" d="M1365.53 674.942L1325.78 628.496C1322.28 624.406 1322.76 618.253 1326.85 614.753L1346.97 597.536C1376.59 572.184 1421.16 575.648 1446.51 605.274H1446.52C1450.11 609.48 1449.62 615.807 1445.42 619.407L1379.27 676.01C1375.18 679.51 1369.03 679.032 1365.53 674.942" fill="white"/><path id="Fill 100" fill-rule="evenodd" clip-rule="evenodd" d="M1367.05 673.642C1369.82 676.887 1374.72 677.27 1377.97 674.492L1444.12 617.888C1445.74 616.495 1446.73 614.55 1446.9 612.413C1447.06 610.277 1446.39 608.204 1445 606.576C1420.4 577.835 1377.01 574.462 1348.27 599.056L1328.15 616.273C1324.9 619.05 1324.52 623.951 1327.3 627.197L1367.05 673.642ZM1372.94 680.347C1369.63 680.347 1366.33 678.954 1364.01 676.243L1324.26 629.797C1320.05 624.875 1320.63 617.445 1325.55 613.234L1345.67 596.017C1376.08 569.991 1422.01 573.558 1448.03 603.975C1450.12 606.414 1451.14 609.522 1450.89 612.724C1450.64 615.925 1449.16 618.839 1446.72 620.927L1380.57 677.531C1378.36 679.421 1375.65 680.347 1372.94 680.347V680.347Z" fill="black"/><path id="Fill 103" fill-rule="evenodd" clip-rule="evenodd" d="M1447.38 647.476L1445.17 644.894C1442.88 642.215 1443.19 638.184 1445.87 635.892L1448.45 633.682C1451.13 631.39 1455.16 631.703 1457.46 634.382L1459.67 636.964C1461.96 639.643 1461.64 643.673 1458.97 645.966L1456.38 648.175C1453.7 650.468 1449.67 650.155 1447.38 647.476" fill="white"/><path id="Fill 104" fill-rule="evenodd" clip-rule="evenodd" d="M1452.6 634.15C1451.59 634.15 1450.58 634.496 1449.75 635.202L1447.17 637.411C1445.34 638.983 1445.12 641.756 1446.69 643.593L1448.9 646.175C1449.66 647.065 1450.73 647.605 1451.89 647.696C1453.06 647.791 1454.19 647.417 1455.08 646.656L1457.67 644.446C1458.56 643.684 1459.1 642.623 1459.19 641.455C1459.28 640.287 1458.91 639.154 1458.15 638.263L1455.94 635.682C1455.07 634.671 1453.84 634.15 1452.6 634.15M1452.25 651.71C1452.03 651.71 1451.81 651.701 1451.58 651.683C1449.35 651.51 1447.32 650.477 1445.86 648.776L1443.65 646.194C1442.2 644.492 1441.49 642.326 1441.66 640.092C1441.84 637.86 1442.87 635.828 1444.57 634.372L1447.15 632.163C1450.67 629.157 1455.97 629.569 1458.98 633.082L1461.19 635.663C1462.64 637.365 1463.35 639.532 1463.17 641.764C1463 643.998 1461.97 646.029 1460.27 647.485L1457.69 649.695C1456.15 651.006 1454.24 651.71 1452.25 651.71" fill="black"/><path id="Fill 105" fill-rule="evenodd" clip-rule="evenodd" d="M1430.46 661.961L1428.25 659.379C1425.95 656.7 1426.27 652.669 1428.95 650.376L1431.53 648.167C1434.21 645.874 1438.24 646.188 1440.53 648.867L1442.74 651.448C1445.03 654.128 1444.72 658.158 1442.04 660.451L1439.46 662.66C1436.78 664.953 1432.75 664.64 1430.46 661.961" fill="white"/><path id="Fill 106" fill-rule="evenodd" clip-rule="evenodd" d="M1435.67 648.633C1434.63 648.633 1433.63 649.001 1432.83 649.687L1430.25 651.897C1429.36 652.658 1428.82 653.721 1428.72 654.888C1428.63 656.056 1429 657.19 1429.76 658.079L1431.97 660.66C1433.55 662.498 1436.32 662.712 1438.16 661.142L1440.74 658.932C1442.58 657.36 1442.79 654.586 1441.22 652.749L1439.01 650.167C1438.25 649.278 1437.19 648.737 1436.02 648.647C1435.9 648.638 1435.79 648.633 1435.67 648.633M1435.31 666.191C1432.94 666.191 1430.59 665.196 1428.94 663.261L1426.73 660.68C1425.27 658.978 1424.56 656.811 1424.74 654.578C1424.91 652.345 1425.94 650.314 1427.65 648.858L1430.23 646.648C1431.93 645.192 1434.09 644.482 1436.33 644.659C1438.56 644.832 1440.59 645.865 1442.05 647.567L1444.26 650.149C1447.26 653.661 1446.85 658.965 1443.34 661.971L1440.76 664.181C1439.18 665.53 1437.24 666.191 1435.31 666.191" fill="black"/><path id="Fill 107" fill-rule="evenodd" clip-rule="evenodd" d="M1413.53 676.446L1411.32 673.864C1409.03 671.184 1409.34 667.154 1412.02 664.861L1414.6 662.652C1417.28 660.359 1421.31 660.673 1423.6 663.352L1425.81 665.933C1428.11 668.613 1427.79 672.643 1425.11 674.936L1422.53 677.145C1419.85 679.438 1415.82 679.125 1413.53 676.446" fill="white"/><path id="Fill 108" fill-rule="evenodd" clip-rule="evenodd" d="M1415.05 675.146C1415.81 676.036 1416.87 676.577 1418.04 676.667C1419.21 676.761 1420.34 676.388 1421.23 675.626L1423.81 673.417C1424.7 672.656 1425.24 671.593 1425.33 670.425C1425.42 669.258 1425.05 668.125 1424.29 667.235L1422.08 664.653C1421.32 663.763 1420.26 663.223 1419.09 663.132C1417.92 663.039 1416.79 663.412 1415.9 664.172L1413.32 666.381C1412.43 667.143 1411.89 668.206 1411.8 669.374C1411.71 670.542 1412.08 671.674 1412.84 672.565L1415.05 675.146ZM1418.39 680.676C1416.02 680.676 1413.67 679.682 1412.01 677.747L1409.8 675.166C1406.79 671.653 1407.21 666.349 1410.72 663.342L1413.3 661.133C1416.81 658.127 1422.12 658.54 1425.12 662.052L1427.33 664.634C1430.34 668.147 1429.93 673.451 1426.41 676.457L1423.83 678.666C1422.25 680.016 1420.32 680.676 1418.39 680.676V680.676Z" fill="black"/><path id="Fill 109" fill-rule="evenodd" clip-rule="evenodd" d="M1396.6 690.931L1394.39 688.35C1392.1 685.67 1392.41 681.64 1395.09 679.347L1397.67 677.138C1400.35 674.845 1404.38 675.159 1406.68 677.838L1408.88 680.419C1411.18 683.099 1410.86 687.129 1408.18 689.422L1405.6 691.631C1402.92 693.924 1398.89 693.611 1396.6 690.931" fill="white"/><path id="Fill 110" fill-rule="evenodd" clip-rule="evenodd" d="M1401.82 677.603C1400.77 677.603 1399.78 677.971 1398.97 678.657L1396.39 680.866C1394.55 682.438 1394.34 685.211 1395.91 687.048L1398.12 689.63C1398.88 690.52 1399.94 691.06 1401.11 691.151C1402.28 691.246 1403.41 690.873 1404.3 690.111L1406.88 687.902C1407.77 687.14 1408.31 686.078 1408.41 684.91C1408.5 683.742 1408.13 682.609 1407.37 681.719L1405.16 679.137C1404.39 678.248 1403.33 677.707 1402.16 677.617C1402.05 677.608 1401.93 677.603 1401.82 677.603M1401.46 695.165C1401.24 695.165 1401.02 695.157 1400.8 695.139C1398.57 694.965 1396.54 693.933 1395.08 692.231L1392.87 689.649C1389.87 686.136 1390.28 680.833 1393.79 677.827L1396.37 675.618C1398.07 674.162 1400.24 673.456 1402.47 673.628C1404.71 673.802 1406.74 674.835 1408.19 676.537L1410.4 679.119C1411.86 680.82 1412.57 682.987 1412.39 685.22C1412.22 687.453 1411.19 689.485 1409.48 690.941L1406.9 693.15C1405.37 694.461 1403.46 695.165 1401.46 695.165" fill="black"/><path id="Fill 111" fill-rule="evenodd" clip-rule="evenodd" d="M1336.05 640.835L937.738 981.69Z" fill="white"/><path id="Fill 112" fill-rule="evenodd" clip-rule="evenodd" d="M939.039 983.21L936.438 980.171L1334.75 639.315L1337.35 642.355L939.039 983.21Z" fill="black"/><path id="Fill 113" fill-rule="evenodd" clip-rule="evenodd" d="M1345.65 651.72L947.34 992.574Z" fill="white"/><path id="Fill 114" fill-rule="evenodd" clip-rule="evenodd" d="M948.64 994.094L946.039 991.055L1344.35 650.2L1346.95 653.24L948.64 994.094Z" fill="black"/><path id="Fill 115" fill-rule="evenodd" clip-rule="evenodd" d="M1355.26 662.604L956.943 1003.46Z" fill="white"/><path id="Fill 116" fill-rule="evenodd" clip-rule="evenodd" d="M958.244 1004.98L955.643 1001.94L1353.96 661.083L1356.56 664.123L958.244 1004.98Z" fill="black"/><path id="Fill 137" fill-rule="evenodd" clip-rule="evenodd" d="M1005.45 512.244L1216.74 728.739L1235.05 713.067L1044.1 518.142C1038.37 512.295 1030.53 509 1022.34 509L1005.45 512.244Z" fill="white"/><path id="Stroke 138 (Stroke)" fill-rule="evenodd" clip-rule="evenodd" d="M1026.06 510.725H1026.16C1034.89 510.725 1043.75 514.517 1049.84 520.739C1049.85 520.74 1049.85 520.741 1049.85 520.742L1242.31 715.188L1220.93 733.479L1006.26 512.71L1026.06 510.725ZM1026.26 514.725L1014.9 515.864L1221.18 727.999L1236.44 714.946L1047 523.549L1046.99 523.542C1041.66 518.095 1033.87 514.754 1026.26 514.725Z" fill="black"/></g><path id="Fill 97" fill-rule="evenodd" clip-rule="evenodd" d="M882.613 1163.07L896.491 1036.09L768.888 1030.18C751.573 1024.24 748.749 1001.15 763.653 991.108C764.296 990.675 764.978 990.315 765.677 989.976C784.286 980.959 1044.77 855.518 1071.29 886.506C1097.8 917.493 933.618 1155.46 921.833 1172.46C921.39 1173.09 920.929 1173.71 920.401 1174.28C908.173 1187.45 885.805 1181.1 882.613 1163.07" fill="white"/><path id="Fill 98" fill-rule="evenodd" clip-rule="evenodd" d="M884.633 1163C886.064 1170.51 891.279 1176.28 898.633 1178.44C905.983 1180.61 913.763 1178.49 918.935 1172.92C919.323 1172.5 919.71 1172.01 920.189 1171.32C925.153 1164.16 969.817 1099.5 1009.21 1033.7C1037.71 986.091 1083.48 903.827 1069.77 887.807C1056.06 871.786 967.71 904.291 916.266 925.094C845.178 953.84 774.386 987.978 766.549 991.776C765.792 992.144 765.244 992.449 764.771 992.768C758.467 997.017 755.175 1004.38 756.178 1011.97C757.182 1019.57 762.069 1025.62 769.273 1028.19L898.71 1034.19L884.633 1163ZM904.397 1183.28C902.106 1183.28 899.787 1182.95 897.502 1182.28C888.704 1179.69 882.245 1172.46 880.644 1163.42L880.594 1163.14L880.625 1162.85L894.271 1037.99L768.509 1032.16L768.239 1032.07C759.554 1029.09 753.413 1021.59 752.213 1012.5C751.009 1003.39 754.964 994.554 762.535 989.45C763.351 988.901 764.176 988.481 764.804 988.177C772.654 984.373 843.557 950.181 914.767 921.386C1009.25 883.179 1060.95 871.345 1072.81 885.206C1084.67 899.066 1064.99 948.312 1012.64 1035.76C973.182 1101.67 928.447 1166.43 923.476 1173.6C923.077 1174.17 922.534 1174.92 921.866 1175.64C917.265 1180.6 910.947 1183.28 904.397 1183.28V1183.28Z" fill="black"/><path id="Fill 101" fill-rule="evenodd" clip-rule="evenodd" d="M974.579 1002.57L941.678 964.118L967.513 942.009L1000.41 980.458L974.579 1002.57Z" fill="white"/><path id="Fill 102" fill-rule="evenodd" clip-rule="evenodd" d="M944.497 964.337L974.798 999.746L997.594 980.238L967.293 944.83L944.497 964.337ZM974.359 1005.39L938.857 963.899L967.731 939.191L1003.23 980.677L974.359 1005.39Z" fill="black"/><path id="Fill 117" fill-rule="evenodd" clip-rule="evenodd" d="M957.829 1016.9L924.928 978.452L934.374 970.368L967.276 1008.82L957.829 1016.9Z" fill="white"/><path id="Fill 118" fill-rule="evenodd" clip-rule="evenodd" d="M927.747 978.672L958.048 1014.08L964.455 1008.6L934.155 973.189L927.747 978.672ZM957.609 1019.72L922.107 978.234L934.593 967.549L970.095 1009.03L957.609 1019.72Z" fill="black"/></g><g id="right"><path id="Fill 119" fill-rule="evenodd" clip-rule="evenodd" d="M869.071 1148.29L954.09 1097.85C958.644 1095.15 961.986 1091.35 963.748 1087.48C965.506 1083.6 965.659 1079.66 963.901 1076.35C952.811 1056.31 943.143 1034.99 934.592 1012.95C930.316 1001.93 926.406 990.666 922.655 979.313C919.011 967.9 915.544 956.384 912.379 944.714C896.914 887.673 887.287 827.934 881.626 767.509C878.808 737.279 877.015 706.836 876.135 676.324C875.264 645.818 875.275 615.217 876.23 584.775C876.706 569.483 870.81 555.452 860.781 544.754C850.751 534.09 836.588 526.699 820.353 525.267V525.267C804.12 523.835 788.827 529.32 777.483 539.512C766.143 549.668 758.77 564.471 758.255 581.049C757.222 614 757.212 646.849 758.151 679.739C759.1 712.622 761.032 745.524 764.1 778.445C770.288 844.263 780.763 910.247 798.48 975.685C806.515 1005.09 815.976 1034.38 827.566 1063.27C830.404 1070.51 833.517 1077.69 836.594 1084.87C839.832 1092.02 843.028 1099.18 846.528 1106.27L849.102 1111.59L851.809 1116.88L854.524 1122.16L855.883 1124.81L857.31 1127.43L863.038 1137.91L869.071 1148.29Z" fill="white"/><path id="Fill 136" fill-rule="evenodd" clip-rule="evenodd" d="M746.322 664.45C755.807 658.709 765.36 653.064 774.9 647.516C778.928 645.181 783.877 645.159 787.929 647.41C797.538 652.727 807.13 657.95 816.786 663.076C826.748 657.526 836.779 652.077 846.795 646.729C850.87 644.56 855.826 644.625 859.839 646.849C868.968 651.89 878.077 656.843 887.249 661.702C886.812 639.74 886.861 617.742 887.386 595.82C887.822 577.679 879.561 511.124 820.353 511.269C761.146 511.413 746.95 572.496 746.473 592.422C745.898 616.461 745.846 626.447 746.322 650.45" fill="black"/><path id="Stroke 120 (Stroke)" fill-rule="evenodd" clip-rule="evenodd" d="M778.148 540.023C789.893 529.471 805.729 523.792 822.529 525.274C839.268 526.751 853.882 534.373 864.238 545.383L864.24 545.386C874.601 556.438 880.723 570.973 880.229 586.837C879.275 617.237 879.264 647.799 880.134 678.266C881.013 708.738 882.804 739.138 885.617 769.322C891.27 829.662 900.881 889.285 916.309 946.19C919.464 957.822 922.921 969.305 926.557 980.694C930.301 992.027 934.199 1003.25 938.457 1014.23C946.982 1036.2 956.613 1057.43 967.651 1077.38L967.661 1077.4L967.668 1077.41C969.784 1081.4 969.517 1086.01 967.57 1090.3L967.569 1090.31C965.624 1094.58 961.988 1098.68 957.111 1101.57L957.11 1101.57L872.091 1152.01C871.633 1152.28 871.084 1152.36 870.568 1152.22C870.051 1152.09 869.61 1151.75 869.342 1151.29L863.309 1140.91L863.295 1140.89L863.283 1140.87L857.555 1130.39L857.553 1130.39L856.126 1127.76C856.119 1127.75 856.112 1127.74 856.104 1127.72L854.745 1125.08L854.745 1125.08L852.03 1119.79L849.322 1114.5C849.315 1114.49 849.308 1114.47 849.301 1114.46L846.735 1109.15C846.733 1109.15 846.732 1109.15 846.731 1109.14C843.636 1102.88 840.778 1096.56 837.937 1090.27C837.548 1089.41 837.16 1088.55 836.772 1087.7C836.766 1087.69 836.761 1087.67 836.756 1087.66C836.407 1086.85 836.058 1086.03 835.709 1085.22C832.979 1078.85 830.235 1072.45 827.707 1066.01C816.085 1037.03 806.601 1007.67 798.551 978.212L798.55 978.207C780.796 912.634 770.305 846.534 764.109 780.632L764.109 780.63C761.036 747.664 759.102 714.719 758.152 681.796C757.212 648.868 757.222 615.978 758.256 582.987C758.788 565.847 766.412 550.533 778.148 540.023ZM822.177 529.259C806.511 527.877 791.762 533.168 780.82 542.999L780.817 543.001C769.873 552.803 762.752 567.095 762.254 583.111C761.222 616.02 761.212 648.83 762.15 681.682C763.098 714.524 765.028 747.382 768.091 780.257C774.271 845.99 784.73 911.857 802.41 977.159C810.429 1006.5 819.866 1035.72 831.422 1064.53L831.428 1064.54C833.932 1070.93 836.652 1077.27 839.385 1083.64C839.731 1084.45 840.078 1085.26 840.424 1086.07C840.811 1086.92 841.197 1087.77 841.582 1088.63C844.428 1094.92 847.258 1101.18 850.321 1107.38L850.329 1107.4L852.882 1112.68L852.903 1112.72L855.589 1117.97L858.303 1123.25L858.303 1123.25L859.64 1125.85L859.662 1125.89L861.065 1128.47L861.067 1128.47L866.767 1138.9L866.793 1138.95L871.786 1147.54L955.069 1098.13C959.3 1095.62 962.348 1092.12 963.927 1088.65C965.492 1085.2 965.533 1081.94 964.143 1079.3C953.004 1059.17 943.302 1037.78 934.727 1015.68C930.435 1004.61 926.513 993.311 922.756 981.94L922.75 981.921C919.099 970.487 915.623 958.942 912.449 947.237C896.947 890.061 887.304 830.205 881.635 769.695C878.812 739.42 877.017 708.933 876.136 678.381C875.264 647.837 875.275 617.195 876.231 586.712C876.689 571.993 871.019 558.466 861.323 548.122C851.618 537.805 837.907 530.646 822.177 529.259Z" fill="black"/><g id="Group 10"><g id="Group 123"><path id="Fill 121" fill-rule="evenodd" clip-rule="evenodd" d="M927.166 1107.32C934.346 1119.79 942.059 1131.93 950.455 1143.54C952.607 1146.69 955.831 1148.59 958.996 1149.29C962.188 1149.98 965.429 1149.38 968.008 1147.38C970.587 1145.39 972.031 1142.4 972.315 1139.23C972.618 1136.03 971.659 1132.75 969.635 1129.78C959.998 1116.34 951.158 1102.16 943.054 1087.43" fill="white"/><path id="Stroke 122 (Stroke)" fill-rule="evenodd" clip-rule="evenodd" d="M944.09 1087.68C945.058 1087.15 946.274 1087.5 946.807 1088.47C954.876 1103.13 963.674 1117.24 973.261 1130.62C973.27 1130.63 973.279 1130.64 973.288 1130.66C975.53 1133.94 976.659 1137.68 976.307 1141.41C975.979 1145.07 974.305 1148.59 971.232 1150.97C968.138 1153.36 964.282 1154.04 960.577 1153.25L960.564 1153.25L960.564 1153.25C956.961 1152.45 953.287 1150.29 950.82 1146.7C942.383 1135.02 934.638 1122.83 927.433 1110.32C926.882 1109.36 927.211 1108.14 928.168 1107.59C929.126 1107.03 930.348 1107.36 930.9 1108.32C938.051 1120.74 945.727 1132.82 954.076 1144.37C954.086 1144.39 954.096 1144.4 954.106 1144.42C955.942 1147.1 958.704 1148.74 961.422 1149.34C964.099 1149.91 966.722 1149.4 968.785 1147.8L968.785 1147.8C970.869 1146.19 972.082 1143.74 972.323 1141.05L972.324 1141.04C972.576 1138.39 971.791 1135.57 969.996 1132.93C960.314 1119.42 951.437 1105.18 943.302 1090.4C942.77 1089.43 943.122 1088.21 944.09 1087.68Z" fill="black"/></g><g id="Group 126"><path id="Fill 124" fill-rule="evenodd" clip-rule="evenodd" d="M927.166 1107.32C934.346 1119.79 942.059 1131.93 950.455 1143.54C952.604 1146.69 953.693 1150.14 953.479 1153.46C953.286 1156.75 951.9 1159.81 949.321 1161.81C946.742 1163.8 943.444 1164.33 940.161 1163.52C936.906 1162.7 933.552 1160.63 931.274 1157.3C922.386 1145.01 914.259 1132.21 906.721 1119.12" fill="white"/><path id="Stroke 125 (Stroke)" fill-rule="evenodd" clip-rule="evenodd" d="M928.168 1107.58C929.125 1107.03 930.348 1107.36 930.899 1108.32C938.051 1120.74 945.727 1132.82 954.076 1144.37C954.081 1144.38 954.087 1144.39 954.092 1144.4C954.097 1144.4 954.101 1144.41 954.106 1144.42C956.455 1147.85 957.722 1151.74 957.475 1155.58C957.253 1159.35 955.654 1162.99 952.544 1165.39M928.168 1107.58C927.211 1108.14 926.882 1109.36 927.433 1110.32ZM927.433 1110.32C934.637 1122.83 942.382 1135.02 950.819 1146.69ZM950.819 1146.69C952.756 1149.54 953.663 1152.55 953.483 1155.33L953.483 1155.33L953.482 1155.34C953.317 1158.16 952.145 1160.64 950.098 1162.23L950.098 1162.23C948.072 1163.79 945.423 1164.26 942.644 1163.58C939.827 1162.87 936.905 1161.06 934.924 1158.17C934.914 1158.16 934.905 1158.15 934.895 1158.13C926.054 1145.9 917.963 1133.16 910.454 1120.12C909.903 1119.16 908.68 1118.84 907.723 1119.39C906.766 1119.94 906.437 1121.16 906.988 1122.12C914.551 1135.25 922.71 1148.1 931.639 1160.46C934.212 1164.2 937.988 1166.54 941.673 1167.46L941.673 1167.46L941.684 1167.47C945.468 1168.39 949.413 1167.81 952.544 1165.39" fill="black"/></g><g id="Group 129"><path id="Fill 127" fill-rule="evenodd" clip-rule="evenodd" d="M906.72 1119.12C914.258 1132.21 922.386 1145.01 931.273 1157.31C933.549 1160.62 934.767 1164.26 934.643 1167.69C934.541 1171.1 933.212 1174.24 930.633 1176.23C928.054 1178.23 924.699 1178.68 921.324 1177.75C917.98 1176.82 914.497 1174.56 912.093 1171.07C902.713 1158.08 894.172 1144.63 886.275 1130.92" fill="white"/><path id="Stroke 128 (Stroke)" fill-rule="evenodd" clip-rule="evenodd" d="M907.723 1119.39C908.68 1118.84 909.903 1119.16 910.454 1120.12C917.963 1133.16 926.054 1145.9 934.895 1158.13C934.904 1158.15 934.914 1158.16 934.923 1158.17C937.384 1161.76 938.784 1165.81 938.643 1169.76C938.525 1173.63 937.002 1177.38 933.857 1179.82C930.689 1182.26 926.656 1182.74 922.795 1181.68L922.785 1181.68C919.019 1180.62 915.141 1178.11 912.459 1174.22C903.038 1161.18 894.465 1147.68 886.543 1133.92C885.991 1132.96 886.32 1131.74 887.278 1131.19C888.235 1130.64 889.458 1130.97 890.009 1131.92C897.877 1145.59 906.381 1158.97 915.715 1171.9C915.724 1171.91 915.733 1171.92 915.742 1171.93C917.866 1175.03 920.945 1177.01 923.86 1177.83C926.747 1178.62 929.421 1178.19 931.411 1176.65C933.421 1175.1 934.557 1172.58 934.645 1169.63L934.645 1169.62H934.645C934.75 1166.71 933.719 1163.5 931.638 1160.46C922.71 1148.1 914.55 1135.25 906.988 1122.12C906.436 1121.16 906.766 1119.94 907.723 1119.39Z" fill="black"/></g><g id="Group 132"><path id="Fill 130" fill-rule="evenodd" clip-rule="evenodd" d="M936.74 1075.56L939.322 1080.6L942.025 1085.55C943.823 1088.85 945.607 1092.16 947.526 1095.37C949.368 1098.5 952.107 1100.71 955.187 1101.59C958.256 1102.48 961.521 1102.15 964.294 1100.43C967.066 1098.72 968.832 1095.97 969.469 1092.95C970.091 1089.94 969.72 1086.53 967.976 1083.58C960.04 1069.82 952.768 1055.43 946.108 1040.58" fill="white"/><path id="Stroke 131 (Stroke)" fill-rule="evenodd" clip-rule="evenodd" d="M947.29 1040.76C948.298 1040.31 949.481 1040.76 949.934 1041.77C956.567 1056.56 963.807 1070.88 971.704 1084.57C973.724 1088 974.138 1091.91 973.428 1095.35L973.427 1095.36C972.687 1098.87 970.624 1102.11 967.347 1104.14C964.056 1106.17 960.2 1106.55 956.634 1105.51C953.002 1104.47 949.873 1101.9 947.807 1098.39C946.045 1095.45 944.396 1092.41 942.77 1089.43C942.603 1089.12 942.436 1088.81 942.27 1088.51C942.269 1088.51 942.27 1088.51 942.27 1088.51L939.567 1083.56C939.559 1083.54 939.551 1083.53 939.543 1083.51L936.961 1078.48C936.457 1077.49 936.845 1076.29 937.828 1075.78C938.811 1075.28 940.016 1075.67 940.52 1076.65L943.09 1081.66L945.782 1086.59C945.948 1086.9 946.114 1087.2 946.28 1087.51C947.913 1090.51 949.524 1093.47 951.243 1096.35L951.25 1096.36C952.866 1099.1 955.212 1100.95 957.735 1101.66L957.746 1101.67C960.317 1102.42 962.99 1102.13 965.242 1100.73C967.508 1099.33 968.977 1097.07 969.512 1094.54C970.044 1091.96 969.717 1089.07 968.254 1086.6L968.244 1086.58C960.271 1072.76 952.969 1058.31 946.284 1043.4C945.832 1042.4 946.282 1041.21 947.29 1040.76Z" fill="black"/></g><g id="Group 135"><path id="Fill 133" fill-rule="evenodd" clip-rule="evenodd" d="M886.275 1130.92L890.908 1138.86L895.764 1146.7L898.196 1150.62L900.745 1154.48L905.85 1162.2C910.716 1169.11 910.4 1177.87 905.218 1181.73C902.578 1183.67 899.141 1183.98 895.74 1182.84C892.331 1181.71 888.905 1179.16 886.347 1175.5L880.986 1167.4L878.312 1163.34L875.762 1159.24L870.676 1151.02L865.83 1142.72" fill="white"/><path id="Stroke 134 (Stroke)" fill-rule="evenodd" clip-rule="evenodd" d="M887.267 1131.19C888.221 1130.64 889.446 1130.96 890.003 1131.91L894.623 1139.83L901.881 1151.54L909.503 1163.07C912.158 1166.86 913.435 1171.19 913.301 1175.18C913.167 1179.18 911.6 1182.96 908.413 1185.34L908.4 1185.35C905.132 1187.74 900.99 1188.03 897.11 1186.74C893.248 1185.46 889.484 1182.62 886.708 1178.65C886.698 1178.63 886.689 1178.62 886.679 1178.61L878.643 1166.45C878.633 1166.43 878.623 1166.42 878.614 1166.4L870.976 1154.08C870.967 1154.06 870.958 1154.05 870.949 1154.03L866.103 1145.73C865.546 1144.78 865.868 1143.55 866.822 1143C867.776 1142.44 869.001 1142.76 869.558 1143.71L874.391 1151.99L881.997 1164.27L890.001 1176.38C892.338 1179.71 895.419 1181.97 898.368 1182.94L898.375 1182.94C901.292 1183.92 904.02 1183.59 906.03 1182.13C908.021 1180.64 909.201 1178.12 909.304 1175.05C909.407 1171.97 908.414 1168.48 906.215 1165.35C906.204 1165.34 906.193 1165.32 906.182 1165.3L898.527 1153.72C898.517 1153.71 898.507 1153.69 898.497 1153.67L891.208 1141.91C891.199 1141.9 891.19 1141.88 891.181 1141.87L886.548 1133.93C885.991 1132.97 886.313 1131.75 887.267 1131.19Z" fill="black"/></g></g></g></g><g id="Hairstyle" transform="translate(880 314) scale(1 1)"><g id="Hairstyle/Bun"><circle id="Oval" cx="111" cy="82" r="14" fill="black"/><g id="hair"><path id="Hair" fill-rule="evenodd" clip-rule="evenodd" d="M119.686 90.3533C119.686 120.982 94.8565 145.811 64.2275 145.811C33.5985 145.811 8.76953 120.982 8.76953 90.3533C8.76953 59.7243 33.5985 34.8953 64.2275 34.8953C94.8565 34.8953 119.686 59.7243 119.686 90.3533" fill="black"/><path id="Hair_2" fill-rule="evenodd" clip-rule="evenodd" d="M58.327 30.1638C58.327 46.2698 45.27 59.3268 29.164 59.3268C13.057 59.3268 0 46.2698 0 30.1638C0 14.0578 13.057 0.999756 29.164 0.999756C45.27 0.999756 58.327 14.0578 58.327 30.1638" fill="black"/></g><g id="head"><path id="Fill 6" fill-rule="evenodd" clip-rule="evenodd" d="M131.934 107.012C131.934 115.425 125.114 122.245 116.701 122.245C108.288 122.245 101.468 115.425 101.468 107.012C101.468 98.5989 108.288 91.7789 116.701 91.7789C125.114 91.7789 131.934 98.5989 131.934 107.012" fill="white"/><path id="Fill 8" fill-rule="evenodd" clip-rule="evenodd" d="M116.701 93.7789C109.404 93.7789 103.468 99.7149 103.468 107.012C103.468 114.309 109.404 120.245 116.701 120.245C123.998 120.245 129.934 114.309 129.934 107.012C129.934 99.7149 123.998 93.7789 116.701 93.7789M116.701 124.245C107.199 124.245 99.4678 116.514 99.4678 107.012C99.4678 97.5099 107.199 89.7789 116.701 89.7789C126.203 89.7789 133.934 97.5099 133.934 107.012C133.934 116.514 126.203 124.245 116.701 124.245" fill="black"/><path id="Fill 10" fill-rule="evenodd" clip-rule="evenodd" d="M65.5981 206.507V206.507C46.6411 206.507 29.1641 191.969 29.1641 174.612L45.2741 114.949C45.2741 97.592 40.6411 83.521 59.5981 83.521H79.5981C98.5551 83.521 93.9221 97.592 93.9221 114.949V175.079C93.9221 192.436 84.5551 206.507 65.5981 206.507" fill="white"/><path id="Fill 12" fill-rule="evenodd" clip-rule="evenodd" d="M31.1651 174.872C31.3381 190.689 47.3541 204.507 65.5981 204.507V204.507C85.0071 204.507 91.9221 189.306 91.9221 175.079V114.949C91.9221 111.901 92.0601 109.005 92.1941 106.204C92.5611 98.497 92.8791 91.842 89.6991 88.507C87.7831 86.498 84.4791 85.521 79.5981 85.521H59.5981C54.7161 85.521 51.4121 86.498 49.4971 88.507C46.3171 91.842 46.6341 98.497 47.0021 106.204C47.1351 109.005 47.2741 111.901 47.2741 114.949V115.215L31.1651 174.872ZM65.5981 208.507C45.1231 208.507 27.1641 192.668 27.1641 174.612V174.347L43.2731 114.685C43.2661 111.827 43.1341 109.066 43.0061 106.394C42.5951 97.77 42.2401 90.322 46.6021 85.747C49.3131 82.903 53.5641 81.521 59.5981 81.521H79.5981C85.6321 81.521 89.8831 82.903 92.5941 85.747C96.9561 90.322 96.6011 97.77 96.1891 106.394C96.0581 109.148 95.9221 111.997 95.9221 114.949V175.079C95.9221 195.386 84.0191 208.507 65.5981 208.507V208.507Z" fill="black"/><path id="Fill 14" fill-rule="evenodd" clip-rule="evenodd" d="M77.1976 154.439C59.7306 154.439 43.9686 144.079 37.0416 128.047L36.3906 126.542C26.8296 104.411 37.0556 78.6269 59.1866 69.0649C64.7106 66.6789 70.5376 65.4689 76.5066 65.4689C93.9736 65.4689 109.737 75.8289 116.664 91.8609L117.314 93.3659C126.875 115.497 116.649 141.281 94.5176 150.843C88.9946 153.229 83.1666 154.439 77.1976 154.439" fill="white"/><path id="Fill 16" fill-rule="evenodd" clip-rule="evenodd" d="M76.5081 63.4689H76.5071C70.2631 63.4689 64.1691 64.7349 58.3931 67.2299C47.1821 72.0729 38.5291 80.9929 34.0261 92.3449C29.5231 103.698 29.7111 116.124 34.5551 127.335L35.2051 128.84C42.4481 145.606 58.9311 156.439 77.1981 156.439C83.4411 156.439 89.5351 155.174 95.3111 152.678C106.522 147.835 115.176 138.915 119.678 127.563C124.181 116.21 123.993 103.784 119.149 92.5729L118.499 91.0679C111.256 74.3019 94.7731 63.4689 76.5081 63.4689M76.5071 67.4689C92.6501 67.4689 108.018 76.8929 114.827 92.6549L115.477 94.1589C124.616 115.312 114.877 139.868 93.7251 149.007H93.7241C88.3331 151.336 82.7201 152.439 77.1981 152.439C61.0551 152.439 45.6861 143.015 38.8771 127.254L38.2271 125.749C29.0881 104.596 38.8271 80.0399 59.9801 70.9019V70.9019C65.3711 68.5719 70.9851 67.4689 76.5071 67.4689" fill="black"/><path id="Fill 18" fill-rule="evenodd" clip-rule="evenodd" d="M36.0025 122.245C27.5895 122.245 20.7695 115.425 20.7695 107.012C20.7695 98.5988 27.5895 91.7788 36.0025 91.7788C37.0545 91.7788 38.0805 91.8858 39.0725 92.0888" fill="white"/><path id="Fill 20" fill-rule="evenodd" clip-rule="evenodd" d="M36.0025 124.245C26.5005 124.245 18.7695 116.514 18.7695 107.012C18.7695 97.5098 26.5005 89.7788 36.0025 89.7788C37.1695 89.7788 38.3375 89.8968 39.4735 90.1288C40.5555 90.3508 41.2535 91.4068 41.0315 92.4898C40.8105 93.5718 39.7535 94.2688 38.6715 94.0478C37.7995 93.8698 36.9015 93.7788 36.0025 93.7788C28.7055 93.7788 22.7695 99.7148 22.7695 107.012C22.7695 114.309 28.7055 120.245 36.0025 120.245C37.1075 120.245 38.0025 121.141 38.0025 122.245C38.0025 123.349 37.1075 124.245 36.0025 124.245" fill="black"/></g><circle id="Oval_2" cx="46" cy="81" r="14" fill="black"/><g id="hair_2"><path id="Fill 23" fill-rule="evenodd" clip-rule="evenodd" d="M131.621 83.1824H80.2206C61.4906 83.1824 46.3066 67.9984 46.3066 49.2674C46.3066 45.2544 61.2796 42.0004 65.2936 42.0004H97.7056C116.437 42.0004 131.621 57.1844 131.621 75.9154V83.1824Z" fill="black"/></g><path id="Fill 9" fill-rule="evenodd" clip-rule="evenodd" d="M83.1474 123.992H90.7084C92.7934 123.992 94.3374 120.961 93.8714 117.782L90.6874 96.0426C89.9484 90.9976 85.4234 90.7156 84.4294 95.6516L80.0524 117.391C79.3944 120.662 80.9554 123.992 83.1474 123.992" fill="#ff2a67"/></g></g><g id="Face" transform="translate(900 404) scale(122 129)"><g id="Face/None" stroke="none" stroke-width="1" fill="none" fill-rule="evenodd" fill-opacity="0"/></g><g id="Expression" transform="translate(928 395) scale(1 1)"><g id="Expression/In Love"><path id="Path" fill-rule="evenodd" clip-rule="evenodd" d="M37.018 61.608C26.54 61.608 22.625 53.545 22.02 49.281C21.938 48.708 22.109 48.127 22.489 47.689C22.869 47.251 23.42 47 24 47H50.036C50.616 47 51.167 47.251 51.547 47.689C51.927 48.127 52.098 48.708 52.016 49.281L51.9612 49.6253C51.1995 53.9638 47.2203 61.608 37.018 61.608Z" fill="black"/><path id="Heart Copy" fill-rule="evenodd" clip-rule="evenodd" d="M53.4796 21.274L46.6439 15.8024C45.6048 14.9706 45 13.7118 45 12.3808V11.9174C45 9.763 46.74 8.01304 48.8944 8.00071C50.5636 7.99115 51.9902 9.02531 52.5644 10.4864L53.494 12.8519L54.4255 10.4872C55.0014 9.0252 56.4295 7.99112 58.0998 8.00068C60.2574 8.01303 62 9.76559 62 11.9232V12.3758C62 13.7087 61.3927 14.969 60.3503 15.7996L53.4796 21.274ZM53.4933 22.5418L53.4843 22.549L53.484 22.5584L52.6777 21.913M53.484 22.5584L53.4839 22.5609L53.4948 22.5685L53.5036 22.5741L53.4954 22.5676L53.484 22.5584ZM54.0875 9.03949C53.8472 9.37132 53.6473 9.73416 53.4951 10.1207C53.3432 9.73405 53.1435 9.37109 52.9035 9.03914M53.7267 22.3558L54.1285 21.7934L54.1089 21.7777L54.1064 21.7758M53.7267 22.3558L53.4933 22.5418Z" fill="black"/><path id="Heart Copy 2" fill-rule="evenodd" clip-rule="evenodd" d="M19.4796 21.274L12.6439 15.8024C11.6048 14.9706 11 13.7118 11 12.3808V11.9174C11 9.763 12.74 8.01304 14.8944 8.00071C16.5636 7.99115 17.9902 9.02531 18.5644 10.4864L19.494 12.8519L20.4255 10.4872C21.0014 9.0252 22.4295 7.99112 24.0998 8.00068C26.2574 8.01303 28 9.76559 28 11.9232V12.3758C28 13.7087 27.3927 14.969 26.3503 15.7996L19.4796 21.274ZM19.4933 22.5418L19.4843 22.549L19.484 22.5584L18.6777 21.913M19.484 22.5584L19.4839 22.5609L19.4948 22.5685L19.5036 22.5741L19.4954 22.5676L19.484 22.5584ZM20.0875 9.03949C19.8472 9.37132 19.6473 9.73416 19.4951 10.1207C19.3432 9.73405 19.1435 9.37109 18.9035 9.03914M19.7267 22.3558L20.1285 21.7934L20.1089 21.7777L20.1064 21.7758M19.7267 22.3558L19.4933 22.5418Z" fill="black"/></g></g><g id="Glasses" transform="translate(909 382) scale(105 93)"><g id="Glasses/No Items" stroke="none" stroke-width="1" fill="none" fill-rule="evenodd" fill-opacity="0"/></g></g></g></svg>