<svg id="visual" viewBox="0 0 960 540" width="960" height="540" xmlns="http://www.w3.org/2000/svg" xmlns:xlink="http://www.w3.org/1999/xlink" version="1.1"><path d="M0 104L32 109.3C64 114.7 128 125.3 192 129.8C256 134.3 320 132.7 384 129C448 125.3 512 119.7 576 119.7C640 119.7 704 125.3 768 127.2C832 129 896 127 928 126L960 125L960 0L928 0C896 0 832 0 768 0C704 0 640 0 576 0C512 0 448 0 384 0C320 0 256 0 192 0C128 0 64 0 32 0L0 0Z" fill="#ffb201"></path><path d="M0 190L32 192.7C64 195.3 128 200.7 192 202.5C256 204.3 320 202.7 384 201.8C448 201 512 201 576 201C640 201 704 201 768 201.8C832 202.7 896 204.3 928 205.2L960 206L960 123L928 124C896 125 832 127 768 125.2C704 123.3 640 117.7 576 117.7C512 117.7 448 123.3 384 127C320 130.7 256 132.3 192 127.8C128 123.3 64 112.7 32 107.3L0 102Z" fill="#fac951"></path><path d="M0 384L32 378.7C64 373.3 128 362.7 192 366.3C256 370 320 388 384 391.7C448 395.3 512 384.7 576 382.8C640 381 704 388 768 386.2C832 384.3 896 373.7 928 368.3L960 363L960 204L928 203.2C896 202.3 832 200.7 768 199.8C704 199 640 199 576 199C512 199 448 199 384 199.8C320 200.7 256 202.3 192 200.5C128 198.7 64 193.3 32 190.7L0 188Z" fill="#f8de85"></path><path d="M0 541L32 541C64 541 128 541 192 541C256 541 320 541 384 541C448 541 512 541 576 541C640 541 704 541 768 541C832 541 896 541 928 541L960 541L960 361L928 366.3C896 371.7 832 382.3 768 384.2C704 386 640 379 576 380.8C512 382.7 448 393.3 384 389.7C320 386 256 368 192 364.3C128 360.7 64 371.3 32 376.7L0 382Z" fill="#faf0b8"></path></svg>