<svg id="visual" viewBox="0 0 960 540" width="960" height="540" xmlns="http://www.w3.org/2000/svg" xmlns:xlink="http://www.w3.org/1999/xlink" version="1.1"><rect x="0" y="0" width="960" height="540" fill="#f56656"></rect><path d="M0 78L20 86.8C40 95.7 80 113.3 120 111.8C160 110.3 200 89.7 240 91C280 92.3 320 115.7 360 114.8C400 114 440 89 480 90.8C520 92.7 560 121.3 600 130.7C640 140 680 130 720 118.2C760 106.3 800 92.7 840 84.3C880 76 920 73 940 71.5L960 70L960 0L940 0C920 0 880 0 840 0C800 0 760 0 720 0C680 0 640 0 600 0C560 0 520 0 480 0C440 0 400 0 360 0C320 0 280 0 240 0C200 0 160 0 120 0C80 0 40 0 20 0L0 0Z" fill="#faf0b8" stroke-linecap="round" stroke-linejoin="miter"></path></svg>