<svg viewBox="31.73076923076917 179.68999999999994 777.4038461538462 729.33" xmlns="http://www.w3.org/2000/svg" xmlns:xlink="http://www.w3.org/1999/xlink" xmlns:blush="http://design.blush" overflow="visible" width="100%" height=""><g id="Master/Comps/Desk" stroke="none" stroke-width="1" fill="none" fill-rule="evenodd"><g id="Blob" opacity=".288" transform="translate(8.500000, 153.891534) scale(1.5086372360844529 1.5089820359281436)" blush:width="786" blush:height="756" blush:component="Blob"><g id="Blob/1" stroke="none" stroke-width="1" fill="none" fill-rule="evenodd"><path d="M421.532241,44.5681909 C463.077658,70.8943232 491.70403,118.895328 499.790051,167.826584 C507.969014,216.850866 495.607626,266.898425 478.5991,314.248253 C461.683517,361.691106 440.120795,406.343203 404.709601,437.22757 C369.391349,468.018912 320.224625,484.949499 272.266158,483.368071 C224.214747,481.693617 177.464536,461.507148 134.153206,433.320512 C90.841877,405.04085 50.96943,368.761021 31.82322,322.620521 C12.6770101,276.573046 14.1640943,220.664899 35.0762169,175.733726 C55.9883394,130.802554 96.3255002,96.8483546 138.893287,70.801298 C181.461075,44.8472665 226.259488,26.8003772 275.890926,20.1955878 C325.522363,13.4977733 379.986825,18.2420586 421.532241,44.5681909 Z" id="blobs-burgers" fill="#FFB23C"/></g></g><g id="Chair" transform="translate(35.000000, 285.000000) scale(1 1)" blush:width="526" blush:height="622" blush:component="Chair"><g id="Chair/Office" stroke="none" stroke-width="1" fill="none" fill-rule="evenodd"><g id="Group-21" transform="translate(17.000000, 0.000000)"><path d="M180.3992,324 L114.1092,324 C97.4142,324 83.7542,310.34 83.7542,293.645 L83.7542,227.355" id="Stroke-1" stroke="#0A1B45" stroke-width="39"/><path d="M120.6111,258 L96.1921,258 C43.2861,258 0.0001,214.713 0.0001,161.808 L0.0001,96.192 C0.0001,43.287 43.2861,0 96.1921,0 L120.6111,0 C153.6901,0 180.7541,27.064 180.7541,60.143 L180.7541,197.857 C180.7541,230.936 153.6901,258 120.6111,258" id="Fill-3" fill="#5A328E"/><path d="M253.7542,571 L243.7542,571 C239.3542,571 235.7542,566.352 235.7542,560.67 L235.7542,346.33 C235.7542,340.648 239.3542,336 243.7542,336 L253.7542,336 C258.1542,336 261.7542,340.648 261.7542,346.33 L261.7542,560.67 C261.7542,566.352 258.1542,571 253.7542,571" id="Fill-5" fill="#55B0EB"/><path d="M261.7542,586 L248.7542,586 L235.7542,586 C235.7542,586 145.7542,600.6 145.7542,594 L145.7542,591 C145.7542,584.4 151.1542,579 157.7542,579 L235.7542,559 L248.7542,559 L261.7542,559 L339.7542,579 C346.3542,579 351.7542,584.4 351.7542,591 L351.7542,594 C351.7542,600.6 261.7542,586 261.7542,586" id="Fill-7" fill="#0A1B45"/><path d="M256.8313,475 L240.6773,475 C233.5693,475 227.7543,472.25 227.7543,468.89 L227.7543,342.11 C227.7543,338.75 233.5693,336 240.6773,336 L256.8313,336 C263.9383,336 269.7543,338.75 269.7543,342.11 L269.7543,468.89 C269.7543,472.25 263.9383,475 256.8313,475" id="Fill-9" fill="#55B0EB"/><path d="M344.011,356 L153.497,356 C138.239,356 125.754,343.516 125.754,328.257 L125.754,313.743 C125.754,298.484 138.239,286 153.497,286 L344.011,286 C359.27,286 371.754,298.484 371.754,313.743 L371.754,328.257 C371.754,343.516 359.27,356 344.011,356" id="Fill-11" fill="#5A328E"/><path d="M161.7542,608 C161.7542,615.732 155.4862,622 147.7542,622 C140.0222,622 133.7542,615.732 133.7542,608 C133.7542,600.268 140.0222,594 147.7542,594 C155.4862,594 161.7542,600.268 161.7542,608" id="Fill-13" fill="#0A1B45"/><path d="M365.7542,608 C365.7542,615.732 359.4862,622 351.7542,622 C344.0222,622 337.7542,615.732 337.7542,608 C337.7542,600.268 344.0222,594 351.7542,594 C359.4862,594 365.7542,600.268 365.7542,608" id="Fill-15" fill="#0A1B45"/><path d="M263.7542,608 C263.7542,615.732 257.4862,622 249.7542,622 C242.0222,622 235.7542,615.732 235.7542,608 C235.7542,600.268 242.0222,594 249.7542,594 C257.4862,594 263.7542,600.268 263.7542,608" id="Fill-17" fill="#0A1B45"/><path d="M253.7542,596 L245.7542,596 L235.7542,571 C235.7542,564.4 241.1542,559 247.7542,559 L251.7542,559 C258.3542,559 263.7542,564.4 263.7542,571 L253.7542,596 Z" id="Fill-19" fill="#0A1B45"/></g></g></g><g transform="translate(-37.000000, 211.000000) scale(1 1)" blush:width="755" blush:height="859" id="Master/Character/Sitting" blush:component="Master/Character/Sitting"><g id="Master/Character/Sitting" stroke="none" stroke-width="1" fill="none" fill-rule="evenodd" blush:has-customizable-skin="true"><g id="Legs Sitting" transform="translate(243.000000, 266.000000) scale(1 1)" blush:width="525" blush:height="423" blush:component="Legs Sitting"><g id="Legs Sitting/ Loose Pants Relaxed" stroke="none" stroke-width="1" fill="none" fill-rule="evenodd"><g id="Group-15" transform="translate(0.000000, -1.000000)"><path d="M555.00886,262.163881 C553.03502,256.404769 550.996616,250.687826 548.893646,245 L470,279.566722 C475.024991,293.200436 479.702254,307.000819 483.67207,321 C484.541851,320.723892 509.661271,312.737843 511.269858,312.226792 C511.214517,310.46974 510.874168,307.483757 510.712755,305.682529 C536.326557,310.130378 572.255979,290.773697 597,284.974424 C593.790204,256.658789 577.128781,270.084669 555.00886,262.163881" id="Fill-3" fill="#0A1B45"/><path d="M130.881321,1.24197269 L108.423122,53.6222664 C104.777509,59.6086428 108.856992,61.1841628 112.577981,63.6248699 C171.400489,101.439347 242.960582,85.0807142 305.364358,104.781208 C388.766718,125.563684 427.00429,223.465715 454.650648,303 L488.133113,289.471709 C489.669124,283.472344 491.122405,277.39905 492.492957,271.269807 C497.149708,274.784506 501.778883,278.395114 506.3814,282.098635 L575,254.37368 C495.805814,32.7948318 389.304573,1.87717598 176.465486,1 C176.465486,1.16131513 161.270764,1.24197269 130.881321,1.24197269 Z" id="Fill-5" fill="#CC2935"/><path d="M342.615113,416.839249 L281.930577,416.982108 C278.644,416.987103 275.97578,414.16489 275.958323,410.660351 C274.316412,325.989962 275.044109,239.969907 259.462038,156.949888 C257.528865,143.546124 245.651429,137.111478 236.19781,130.062439 C196.418002,103.488681 148.098789,99.4206978 103,86.1128392 L122.195744,10 C180.747726,25.340851 246.690601,34.8424683 295.187144,78.9599026 C312.397344,92.7632719 324.042321,110.617641 328.812774,133.441103 C340.132493,181.79835 342.417569,231.960815 345.272307,281.362032 C343.967599,297.830769 356.005826,422.07408 342.615113,416.839249" id="Fill-7" fill="#8152FF" blush:skin="500"/><path d="M354.942028,391.530844 L354.707724,374 L270,375.606711 C270.185605,389.159271 270.429098,410.075506 270.389588,423.470095 C271.291887,423.474095 297.361174,423.591074 299.029784,423.599072 L300.290431,416.729309 L316.067807,423.676058 C333.914408,423.755044 370.283874,423.921014 388,424 L387.986217,411.749205 C387.945789,403.344718 363.922755,400.682197 354.942028,391.530844" id="Fill-9" fill="#0A1B45"/><path d="M95.7918261,1.12117708 C94.9330782,4.55436104 93.3379057,95.6268952 100.263114,99.9256298 C160.422761,99.9256298 226.597627,122.192995 237.521121,162.327626 C248.444615,202.462257 248.623176,322.656616 248.444615,394 L284.209209,393.553716 L294.10736,377.50951 L303.702694,393.310561 L377,392.39598 C374.169722,313.683908 371.239118,235.438134 358.337651,157.259402 C348.549029,95.3740344 329.677746,68.9882495 279.724023,38.1456295 C244.852233,16.9661566 206.119298,8.72601477 169.14988,1.12117708 C169.14988,0.959607638 144.697195,0.959607638 95.7918261,1.12117708 Z" id="Fill-11" fill="#FA3239"/><path d="M100.091346,100 L90.9086538,100 C40.7013654,100 -4.00177669e-11,55.676 -4.00177669e-11,1 L191,1 C191,55.676 150.298635,100 100.091346,100" id="Fill-13" fill="#FA3239"/></g><path d="M56,99 C25.072054,99 -4.00139793e-11,73.927946 -4.00177669e-11,43 L-4.00177669e-11,5.55111512e-17 L191,5.55111512e-17 C191,54.676 150.298635,99 100.091346,99 L56,99 Z" id="PELVIS-PLUS" fill="#FA3239"/></g></g><g id="Body" transform="translate(-33.000000, -31.000000) scale(1 1)" blush:width="863" blush:height="528" blush:component="Body"><g id="Body/Bomber Jacket Shake Hand" stroke="none" stroke-width="1" fill="none" fill-rule="evenodd"><g id="Group-33" transform="translate(255.000000, 107.000000)"><path d="M233.1066,190.8684 L18.6256,190.8684 L18.6256,83.8064 C18.6256,60.3384 37.6506,41.3124 61.1196,41.3124 L190.6126,41.3124 C214.0816,41.3124 233.1066,60.3384 233.1066,83.8064 L233.1066,190.8684 Z" id="Fill-1" fill="#D7DBE2"/><path d="M164.6252,41.3128 C164.6252,57.8688 156.6252,78.8688 130.1252,78.8688 C98.6252,78.8688 85.6252,60.9498 85.6252,41.3128 L164.6252,41.3128 Z" id="SKIN" fill="#8152FF" blush:skin="500"/><path d="M171.76,253.2786 C197.625,253.8686 219.625,251.8686 243.071,244.0246 C245.235,243.2996 247.075,241.9216 246.876,239.6466 L243.72,203.5596 C219.639,204.6066 194.491,209.2836 168.022,213.4326 C167.524,226.3526 167.016,238.2786 166.549,248.6256 C166.421,251.4756 168.907,253.2136 171.76,253.2786" id="Fill-5" fill="#CC2935"/><path d="M6.177,204.7112 L3.315,237.4342 C2.978,241.2802 5.308,244.8862 8.976,246.0912 C33.563,254.1692 68.777,258.3152 91.893,259.9352 C95.554,260.1912 98.775,257.5892 99.327,253.9602 C100.894,243.6732 102.024,232.2482 102.799,220.0972 C78.092,219.1352 33.268,214.8262 6.177,204.7112" id="Fill-7" fill="#CC2935"/><path d="M46.9885,43.1155 C29.4965,48.3785 16.7525,64.6005 16.7525,83.8065 L6.1765,204.7115 C33.2675,214.8265 78.0925,219.1355 102.7995,220.0965 C105.8515,172.1915 109.6255,75.8685 80.6255,60.8685 C80.6255,60.8685 59.6255,38.8685 46.9885,43.1155" id="Fill-9" fill="#FA3239"/><path d="M168.0217,213.4329 C195.6257,214.8689 218.6257,212.8689 243.7197,203.5599 L233.2457,83.8069 C233.2457,62.4119 217.4317,44.7179 196.8567,41.7559 C194.1897,52.1209 184.5207,55.3719 170.6257,61.8689 C171.2787,106.2699 169.7467,168.7459 168.0217,213.4329" id="Fill-11" fill="#FA3239"/><path d="M299.9426,270.2083 C301.3926,279.2023 299.0006,287.9523 293.6746,294.7473 C288.3776,301.5633 280.1296,306.3123 270.4916,307.2863 C249.3676,309.4113 227.9446,310.3293 206.1396,309.6133 C193.9126,309.1613 181.5566,308.1543 169.0676,306.3433 C156.5806,304.5023 143.9576,301.9583 131.2556,297.9783 C118.5766,294.0113 105.7996,288.7453 93.4696,281.4433 L91.1586,280.0913 C90.3886,279.6423 89.6176,279.1973 88.8686,278.6633 L84.3526,275.5773 C82.8566,274.5283 81.3446,273.5263 79.8756,272.4233 C78.4216,271.2863 76.9556,270.1593 75.5256,268.9953 C69.8246,264.3123 64.5356,259.1923 59.7246,253.7723 C50.0866,242.9263 42.3756,230.9643 36.2646,218.7553 C30.1466,206.5263 25.5726,194.0273 22.0536,181.5623 C18.5416,169.0883 16.0806,156.6273 14.3556,144.2483 C12.6366,131.8663 11.6456,119.5603 11.2386,107.3273 C10.8536,96.0193 14.7206,85.8213 20.9556,78.8763 C27.1986,71.8913 35.7556,68.1633 44.8376,68.7863 C53.9366,69.4093 61.8646,74.0443 67.5916,80.6043 C73.3246,87.2023 76.8826,95.7403 77.2016,105.1043 C77.8896,125.4183 80.4516,145.4223 85.5766,163.6493 C90.6776,181.8583 98.5166,198.1263 109.0586,209.9303 C111.6876,212.8933 114.4836,215.5853 117.4426,218.0153 L119.6946,219.7883 C120.4656,220.3633 121.3116,220.8833 122.1086,221.4433 L124.5176,223.1203 C124.8996,223.4173 125.3496,223.6613 125.7956,223.9093 L127.1196,224.6653 C134.0736,228.7943 142.1166,232.2213 150.8166,234.9433 C159.5096,237.6883 168.9276,239.6123 178.6006,241.0353 C188.2936,242.4403 198.3046,243.2783 208.4736,243.6553 C226.6496,244.2493 245.2816,243.4973 263.9516,241.6103 C272.4456,240.7503 280.5766,243.4693 287.0946,248.5443 C293.5916,253.6473 298.4926,261.2093 299.9426,270.2083" id="SKIN" fill="#8152FF" blush:skin="500"/><path d="M323.2883,290.4251 C324.2643,295.3021 320.8153,300.0961 315.6053,301.0231 C292.9813,305.0341 270.2753,307.8251 247.1303,309.1121 C241.8053,309.4051 237.3323,305.5171 237.1723,300.5621 C237.0083,295.5811 241.0243,291.4211 246.1273,291.1421 C268.4483,289.9031 290.5213,287.1911 312.4393,283.3031 C317.4543,282.4111 322.3093,285.5561 323.2883,290.4251" id="SKIN" fill="#8152FF" blush:skin="500"/><path d="M331.1877,272.4153 C332.3157,277.2553 329.0337,282.1403 323.9667,283.1573 C314.1417,285.1183 304.3377,286.8113 294.4807,288.2373 C291.9447,288.5933 289.5077,287.9173 287.6387,286.5343 C285.7657,285.1363 284.4587,283.0283 284.1417,280.5653 C283.8247,278.0993 284.5457,275.7433 285.9497,273.9193 C287.3517,272.0773 289.4337,270.7693 291.8907,270.4253 C301.4407,269.0443 310.9537,267.3993 320.4127,265.5113 C325.2527,264.5403 330.0537,267.5743 331.1877,272.4153" id="SKIN" fill="#8152FF" blush:skin="500"/><path d="M329.4641,256.3899 C330.7391,261.2009 327.6621,266.0679 322.7711,267.0689 C313.2811,269.0209 303.7361,270.6749 294.1601,272.1109 C289.2191,272.8309 284.6891,269.3839 284.0481,264.4499 C283.4081,259.5259 286.7501,255.0009 291.5061,254.3069 C300.7731,252.9179 310.0341,251.3129 319.1331,249.4409 C323.8001,248.4859 328.3601,251.5479 329.4641,256.3899" id="SKIN" fill="#8152FF" blush:skin="500"/><path d="M291.9397,238.054 C292.7117,242.958 289.5177,247.554 284.7877,248.196 C275.6187,249.46 266.4247,250.487 257.2427,251.266 C254.8787,251.445 251.8517,249.463 249.4657,247.352 C247.0767,245.244 245.3107,243.1 245.3107,243.1 C250.8987,242.753 248.4337,233.931 258.4777,233.099 C266.4167,232.382 274.3777,231.453 282.3227,230.365 C286.8687,229.749 291.1667,233.139 291.9397,238.054" id="SKIN" fill="#8152FF" blush:skin="500"/><path d="M318.6428,242.3938 L318.6428,242.3938 C319.6798,247.2548 316.7028,252.0028 311.9398,252.8948 C296.0318,255.8618 279.9168,258.1898 263.8008,259.7088 C258.9778,260.2068 254.7638,256.4288 254.3928,251.4938 C254.0218,246.5158 257.4588,242.2708 262.0848,241.7908 C277.6298,240.3278 293.2648,238.0678 308.6038,235.2068 C313.1618,234.3538 317.6098,237.5328 318.6428,242.3938" id="SKIN" fill="#8152FF" blush:skin="500"/><path d="M240.9701,315.4166 C230.0081,315.8786 218.9651,316.0446 207.7701,315.6606 C207.4411,315.8856 207.0731,316.1066 206.6701,316.3226 C206.2681,316.5386 205.8421,316.7496 205.2791,316.9526 C204.2031,317.3686 202.9451,317.6986 201.5391,318.0386 C200.1321,318.3686 198.5671,318.6746 196.8541,318.9566 C195.1421,319.2396 193.2821,319.5066 191.2551,319.6646 C187.2081,320.0036 182.6241,320.3276 177.4411,320.2396 C176.1501,320.2246 174.8281,320.2106 173.4771,320.1946 C172.1271,320.1786 170.7421,320.1416 169.3091,320.0396 C166.4541,319.8686 163.4811,319.6576 160.3981,319.4096 C147.9991,318.1656 133.5891,315.6936 117.6981,310.5296 C109.7701,307.9916 101.4571,304.5896 92.9951,300.4056 C91.9401,299.9236 90.8791,299.3426 89.8171,298.7436 C88.7571,298.1496 87.6931,297.5536 86.6271,296.9566 C84.4981,295.7376 82.3611,294.5616 80.2331,293.2416 C78.1091,291.8396 75.9861,290.4116 73.8651,288.9566 C72.8091,288.2246 71.7491,287.4916 70.6881,286.7566 C69.6291,286.0166 68.5961,285.1716 67.5511,284.3736 C63.3581,281.1566 59.4041,277.6286 55.5561,273.9816 C51.7971,270.2746 48.1271,266.4396 44.7911,262.4136 C38.0101,254.4016 32.2271,245.8346 27.3041,237.1356 C22.3531,228.4306 18.3911,219.5816 15.0571,210.8336 C11.7521,202.0806 9.1931,193.4246 7.1381,184.9896 C3.0911,168.1186 1.1481,152.1536 0.3911,137.6456 C-0.3709,123.1286 0.0531,110.0396 1.0411,98.7846 C0.8511,83.3646 6.5081,69.6316 15.2571,60.5206 C24.0011,51.3696 37.3171744,41.7559 55.5561,42.5711833 C73.7950256,43.3864666 74.4004745,44.7862767 81.6664745,53.5972767 C88.9214745,62.4402767 88.8861,85.6556 89.0351,97.7406 C90.6091,109.4856 92.4841,121.5576 94.9381,133.3016 C97.3711,145.0466 100.4171,156.4556 104.1501,166.6816 C105.9941,171.8146 108.0631,176.5826 110.2131,181.0166 C112.3881,185.4246 114.7061,189.4156 117.0921,193.0096 C119.5111,196.5576 121.9941,199.7086 124.5631,202.4986 C125.8751,203.8476 127.1561,205.1976 128.5181,206.3916 L129.5241,207.3116 L130.6471,208.1726 C131.3871,208.7536 132.1131,209.3486 132.8281,209.9606 C133.1621,210.2806 133.5821,210.5506 134.0031,210.8236 L135.2361,211.6606 C136.0531,212.2236 136.8561,212.8016 137.6551,213.3876 C139.4871,214.4086 141.1951,215.5266 143.0141,216.5756 C143.9751,217.0716 144.9271,217.5646 145.8711,218.0526 C146.3421,218.3056 146.8111,218.5566 147.2771,218.8066 C147.7401,219.0636 148.2021,219.3206 148.7191,219.5316 C150.7351,220.4526 152.7131,221.3566 154.6501,222.2416 C162.6401,225.7246 170.9961,228.3726 178.5011,230.6656 C186.0081,232.9976 192.8771,234.7226 198.3171,236.3906 C201.0551,237.1946 203.4791,237.9026 205.4811,238.6456 C206.4861,239.0046 207.3811,239.3916 208.1931,239.7116 C209.0031,240.0436 209.5471,240.3706 210.0861,240.6966 C219.1861,241.0166 228.4491,240.8786 237.7541,240.4856 L240.9701,315.4166 Z" id="Fill-28" fill="#FA3239"/><path d="M208.1359,315.6673 L210.4309,239.2023 C219.3929,239.5103 228.5179,239.3763 237.6899,238.9843 L240.9689,315.4143 C230.1289,315.8763 219.2049,316.0373 208.1359,315.6673" id="Fill-31" fill="#CC2935"/><path d="M74.6252,0.8684 C33.6252,5.8684 29.7282,40.6324 46.9882,44.1154 C60.6252,46.8684 69.3692,62.8764 81.3292,69.0254 C83.9972,70.3974 87.1392,68.2964 86.9302,65.3034 C86.8712,64.4554 86.8122,63.6124 86.7532,62.7764 C86.0962,53.5054 87.4822,41.6474 96.7762,41.7184 C113.4392,41.8424 138.3902,41.8234 154.4212,41.6824 C163.1172,41.6054 170.2802,49.5104 170.4912,58.2044 C170.5262,59.6314 170.5592,61.0754 170.5882,62.5334 C170.6462,65.4724 173.8332,67.2784 176.3842,65.8174 C187.1932,59.6264 194.5702,51.6394 196.8562,42.7564 C197.3522,40.8314 197.6252,38.8674 197.6252,36.8684 C197.6252,13.6724 116.2932,-4.2126 74.6252,0.8684" id="Fill-13" fill="#CC2935"/></g></g></g><g id="Head" transform="translate(288.000000, -61.000000) scale(1 1)" blush:width="127" blush:height="211" blush:component="Head"><g id="Head/Layered " stroke="none" stroke-width="1" fill="none" fill-rule="evenodd"><path d="M130,125.5 L130,108.367 C130,104.576 127.538,101.504 124.5,101.504 C121.462,101.504 119,98.431 119,94.641 L119,86.457 C119,72.397 101.84,61 90.715,61 L79,61 L79,173 L121.072,173 C133.182,173 143,160.162 143,144.324 L143,138.5 C143,134.91 140.775,132 138.029,132 L134.971,132 C132.225,132 130,129.09 130,125.5" id="Fill-1" fill="#000"/><path d="M57.801,173 L77,173 L77,61 L57.801,61 C29.744,61 7,83.744 7,111.801 L7,122.199 C7,150.256 29.744,173 57.801,173" id="Fill-4" fill="#000"/><g id="head" transform="translate(22.000000, 72.000000)"><g fill="#8152FF" id="SKIN" blush:skin="500"><path d="M13,62 L58,62 L58,113.633 C58,127.538 47.926,138.81 35.5,138.81 C23.074,138.81 13,127.538 13,113.633 L13,62 Z"/><path d="M60.0525,94 L55.0655,94 C31.8335,94 13.0005,75.167 13.0005,51.935 L13.0005,32.203 C13.0005,14.418 27.4175,0 45.2035,0 L50.7965,0 C68.5825,0 83.0005,14.418 83.0005,32.203 L83.0005,71.052 C83.0005,83.726 72.7265,94 60.0525,94"/><path d="M25,58.5 C25,65.403 19.404,71 12.5,71 C5.596,71 0,65.403 0,58.5 C0,51.597 5.596,46 12.5,46 C19.404,46 25,51.597 25,58.5"/></g><path d="M10.067,53.1685 C10.9718309,53.1685 12.2239875,53.3771928 13.5088204,54.0196092 C15.6553998,55.0928989 17.0130325,57.055328 17.10411,59.9021045 L17.109,60.2105 L14.109,60.2105 C14.109,58.3751144 13.4076866,57.3231443 12.1671796,56.7028908 C11.7065142,56.4725581 11.1976823,56.3199085 10.686339,56.2346846 C10.4347302,56.1927498 10.2385731,56.1747448 10.1250097,56.169908 L10.067,56.1685 L10.067,53.1685 Z" id="ear-line" fill="#000"/><path d="M34.7507501,96.3317762 C25.4557924,93.0436693 20.8185822,84.7387742 18.9822222,73.5681961 C26.2532122,85.6702724 39.4406226,93.8133264 54.5439426,93.9968331 L55.0655,94 L58,94 C50.0632106,98.2298391 42.3134606,99.0070978 34.7507501,96.3317762 Z" id="SHADOW" fill="#000" opacity=".12"/></g><path d="M34.3390489,118 L32.8032704,118 C26.9501148,112.308 24.7014391,100.708 24.0235369,89.449 C23.0946709,74.02 49.8788072,61 65.3335778,61 L83.3159838,61 L104,87 L66.0314771,87 C59.2564544,105.085 46.3373181,118 34.3390489,118" id="Fill-15" fill="#000"/></g></g><g id="Expression" transform="translate(335.000000, 34.000000) scale(1 1)" fill="#000" blush:width="61" blush:height="61" blush:component="Expression"><defs><filter id="expressionsurprised-filter-1"><feColorMatrix in="SourceGraphic" values="0 0 0 0 0.000000 0 0 0 0 0.000000 0 0 0 0 0.000000 0 0 0 1.000000 0"/></filter></defs><g id="Expression/Surprised" stroke="none" stroke-width="1" fill="none" fill-rule="evenodd"><polygon id="Stroke-5" fill="#000" fill-rule="nonzero" points="33.1977829 19.396766 36.1476171 18.850434 40.4350211 41.9996 30.5607 41.9996 30.5607 38.9996 36.828 38.999"/><g filter="url(#expressionsurprised-filter-1)" id="Group-13"><g transform="translate(10.000000, 8.000000)"><path d="M10.5607,14.4865 C10.5607,12.8295 9.2177,11.4865 7.5607,11.4865 C5.9037,11.4865 4.5607,12.8295 4.5607,14.4865 C4.5607,16.1435 5.9037,17.4865 7.5607,17.4865 C9.2177,17.4865 10.5607,16.1435 10.5607,14.4865" id="Fill-1" fill="#000"/><path d="M36.5607,14.4865 C36.5607,12.8295 35.2177,11.4865 33.5607,11.4865 C31.9037,11.4865 30.5607,12.8295 30.5607,14.4865 C30.5607,16.1435 31.9037,17.4865 33.5607,17.4865 C35.2177,17.4865 36.5607,16.1435 36.5607,14.4865" id="Fill-3" fill="#000"/><path d="M13.0607,-0.9998 L13.0607,2.0002 C9.83427364,2.0002 6.89139387,2.86575287 4.2891644,4.31143591 C3.37835315,4.81744216 2.57765326,5.3584556 1.89641643,5.89627415 L1.50720319,6.21376583 C1.3601559,6.33818993 1.247969,6.43915159 1.17175673,6.5117787 L1.12136017,6.56086017 L-0.999960172,4.43953983 C-0.282807118,3.72238677 1.01184841,2.7002903 2.8322356,1.68896409 C5.72358133,0.0826609066 8.98945494,-0.910755694 12.5704367,-0.994103257 L13.0607,-0.9998 Z" id="Stroke-7" fill="#000" fill-rule="nonzero"/><path d="M28.4134207,2.33831266 C29.825204,5.28460361 36.0669731,8.08597064 39.2092119,6.72921901 L39.3869997,6.64630304 L40.7344003,9.32669696 C36.1172151,11.6476985 28.0909095,8.172101 25.8152217,3.84800985 L25.7079793,3.63468734 L28.4134207,2.33831266 Z" id="Stroke-9" fill="#000" fill-rule="nonzero"/><path d="M26.5607,42.9865 C26.5607,44.6435 25.2177,45.9865 23.5607,45.9865 C21.9037,45.9865 20.5607,44.6435 20.5607,42.9865 C20.5607,41.3295 21.9037,39.9865 23.5607,39.9865 C25.2177,39.9865 26.5607,41.3295 26.5607,42.9865" id="Fill-11" fill="#000"/></g></g></g></g><g id="Accessories" transform="translate(322.000000, 56.000000) scale(1 1)" fill="#000" blush:width="76" blush:height="48" blush:component="Accessories"><g id="Accessories/None" stroke="none" stroke-width="1" fill="none" fill-rule="evenodd" fill-opacity="0"/></g><g id="Glasses" transform="translate(314.000000, 42.000000) scale(1 1)" fill="#000" blush:width="95" blush:height="32" blush:component="Glasses"><g id="Glasses/Thick" stroke="none" stroke-width="1" fill="none" fill-rule="evenodd"><path d="M43.5452664,3.00012344 C49.2894512,3.02462661 55.021427,4.35163303 57.0857956,6.97405047 C58.0938547,8.25461237 58.6772219,10.0147386 58.9068842,11.9996703 L62.1143968,11.9996703 C62.3440591,10.0147386 62.9274264,8.25461237 63.9354854,6.97405047 C65.9529365,4.41123343 71.4731799,3.0856142 77.0844275,3.00401411 L77.4760146,3.00012344 L77.8967218,3.00012344 L80.8146938,3.0378718 C91.0822714,3.2070925 94.9796428,3.73089949 95.893837,5.69362755 C96.9046181,7.86372269 97.4724619,10.8486323 96.5699433,12.3975628 L96.4345265,12.6077971 C96.2607766,12.8804731 95.8187885,13.7026763 95.3317143,14.6775352 L95.2267324,14.8886255 L94.7966033,15.7746065 C94.1772527,17.0747485 93.6217104,18.3482986 93.2115536,19.4320065 L93.1438986,19.6872046 L93.1438986,19.6872046 C92.2530855,22.9637972 90.4857872,26.1972123 88.6985341,28.3365739 C85.3492115,32.34575 71.1131799,32.6082999 67.0329763,28.4576053 C64.4038322,25.7830393 62.5077693,20.7417692 62.087653,15.9998009 L58.933628,15.9998009 C58.5135117,20.7417692 56.6174488,25.7830393 53.9883048,28.4576053 C49.9081011,32.6082999 35.6720695,32.34575 32.3227469,28.3365739 C30.5354938,26.1972123 28.7681955,22.9637972 27.8773824,19.6872046 L27.8097274,19.4320065 C27.4233065,18.4110132 26.9078403,17.2215143 26.331547,16.0000268 L0,16 L0,12 L24.2628445,12.0004643 C23.6422666,10.3774347 24.1973223,7.69055104 25.127444,5.69362755 C26.0970439,3.61194627 30.4223758,3.14888604 42.1443686,3.0107703 L43.1245592,3.00012344 L43.5452664,3.00012344 Z M32.8542992,9.57832836 C31.1333273,11.9393787 30.7976239,14.9040914 31.4059083,17.8533932 L31.6334165,18.4663592 L31.5539327,18.4983688 C32.1949786,21.035914 33.5135424,23.5284501 35.226974,25.5794466 C37.0849603,27.8034767 48.7860935,28.0192764 51.3034638,25.4584151 C54.5060095,22.2005411 56.3804317,12.9591713 54.2303847,9.80770023 L54.1067801,9.63896051 L53.9809214,9.49277664 C51.015179,6.32545056 35.1904568,6.373287 32.8542992,9.57832836 Z M88.1669819,9.57832836 C85.8662205,6.42184823 70.4825425,6.32762495 67.1839305,9.35102137 L67.0403596,9.49277664 L66.9145009,9.63896051 L66.7908963,9.80770023 C64.6408493,12.9591713 66.5152715,22.2005411 69.7178172,25.4584151 C72.2351876,28.0192764 83.9363207,27.8034767 85.794307,25.5794466 C87.4069485,23.6490969 88.669811,21.3276257 89.347247,18.9456229 L89.4673483,18.4983688 L89.3878645,18.4663592 L89.6153727,17.8533932 L89.6153727,17.8533932 C90.2236571,14.9040914 89.8879537,11.9393787 88.1669819,9.57832836 Z" id="Shape" fill="#000"/></g></g></g></g><g id="Desk" transform="translate(171.000000, 207.000000)"><rect id="Rectangle" fill="#BE6FFB" x="290" y="0" width="257" height="217"/><rect id="Rectangle" fill="#CCA4FF" x="290" y="0" width="26" height="217"/><g id="keyboard" transform="translate(185.000000, 258.000000)"><rect id="Rectangle" fill="#C67BFF" x="0" y="0" width="203" height="15"/><rect id="Rectangle" fill="#F2E7FF" x="0" y="0" width="68" height="15"/></g><rect id="Rectangle" fill="#BE6FFB" x="56" y="272" width="520" height="38"/><rect id="Rectangle" fill="#CCA4FF" x="56" y="272" width="174" height="38"/><rect id="Rectangle" fill="#E4CEFF" x="56" y="272" width="257" height="38"/><polygon id="Rectangle" fill="#CCA4FF" points="72 310 106 310 18 700 -6.36626862e-12 700"/><polygon id="Rectangle" fill="#CCA4FF" transform="translate(330.000000, 505.000000) scale(-1, 1) translate(-330.000000, -505.000000)" points="349 310 383 310 295 700 277 700"/><polygon id="Rectangle" fill="#CCA4FF" transform="translate(584.000000, 505.000000) scale(-1, 1) translate(-584.000000, -505.000000)" points="603 310 637 310 549 700 531 700"/><rect id="Rectangle" fill="#870CF7" x="425" y="83" width="63" height="189"/><rect id="Rectangle" fill="#CCA4FF" x="425" y="83" width="18" height="189"/></g></g></svg>